<?xml version="1.0" encoding="utf-8"?>
<!-- Generator: Adobe Illustrator 20.1.0, SVG Export Plug-In . SVG Version: 6.00 Build 0)  -->
<svg version="1.1" id="Layer_1" xmlns="http://www.w3.org/2000/svg" xmlns:xlink="http://www.w3.org/1999/xlink" x="0px" y="0px"
	 viewBox="0 0 392 286.6" style="enable-background:new 0 0 392 286.6;" xml:space="preserve">
<style type="text/css">
	.st0{fill:#FFFFFF;}
</style>
<g>
	<g>
		<path d="M210.5,155.3l-3.5,7.8c-0.6,1.3-1.1,2.2-1.4,2.6c-0.4,0.5-0.8,0.7-1.2,0.7c-0.4,0-0.8-0.2-1.1-0.6
			c-0.2-0.2-0.7-1.1-1.5-2.5c-0.8-1.5-1.4-2.8-1.9-3.9l-3.8-8.6c-0.5-1.2-1.1-1.8-1.6-1.8c-0.6,0-1,0.5-1,1.5
			c-0.1,2.3-0.2,4.4-0.2,6.3c0,2,0.1,3.4,0.3,4.1c0.1,0.4,0.3,0.7,0.5,0.9c0.2,0.2,0.8,0.5,1.8,1c0.6,0.3,1,0.9,1,1.7
			c0,2.2-2.8,3.2-8.3,3.2c-4.7,0-7-1.1-7-3.2c0-0.5,0.1-0.9,0.4-1.2c0.2-0.2,0.9-0.6,1.9-1.1c0.6-0.3,1.1-0.7,1.3-1.2
			c0.2-0.5,0.4-1.5,0.6-2.9c0.2-1.5,0.3-4.1,0.5-7.6c0.2-3.5,0.2-6.5,0.2-9c0-3.1-0.2-5.3-0.7-6.4c-0.2-0.4-0.4-0.7-0.6-0.9
			c-0.2-0.2-0.6-0.4-1.3-0.8c-1.4-0.7-2.1-1.5-2.1-2.5c0-0.7,0.3-1.3,0.8-1.9c0.5-0.6,1.2-1,2-1.2c0.8-0.3,2-0.5,3.4-0.7
			c1.4-0.2,2.6-0.3,3.6-0.3c2.5,0,4.2,0.2,5.2,0.6c0.5,0.2,0.9,0.5,1.2,0.8c0.3,0.3,0.7,1,1.2,2l6,11.1c0.7,1.2,1.1,2,1.4,2.2
			c0.3,0.3,0.6,0.4,1,0.4c0.4,0,0.7-0.1,1-0.4c0.3-0.3,0.7-0.8,1.1-1.6l4.1-8c0.5-1,0.8-1.7,1-2c0.9-1.9,1.9-3.2,2.8-3.8
			c1.2-0.8,3.3-1.2,6.4-1.2c5.5,0,8.2,1.2,8.2,3.7c0,0.6-0.1,1-0.3,1.3c-0.2,0.3-0.6,0.7-1.3,1.2c-0.9,0.7-1.4,1.7-1.7,2.9
			c-0.4,2.7-0.7,5.9-0.7,9.7c0,4.9,0.2,9.2,0.7,12.9c0.1,0.9,0.3,1.5,0.5,1.9c0.2,0.3,0.9,0.8,1.9,1.5c0.7,0.5,1,1.1,1,1.9
			c0,1.4-0.9,2.3-2.7,2.9c-0.9,0.3-1.9,0.5-2.9,0.6c-1,0.1-2.6,0.1-4.7,0.1c-3.3,0-5.7-0.2-7.3-0.7c-1.8-0.5-2.7-1.4-2.7-2.7
			c0-0.5,0.1-0.8,0.3-1.1c0.2-0.3,0.8-0.8,1.8-1.6c0.5-0.4,0.8-1.2,1-2.3c0.2-1.2,0.3-3.1,0.3-5.9c0-1.5-0.1-2.6-0.2-3
			c-0.1-0.5-0.4-0.7-0.9-0.7c-0.5,0-1.1,0.4-1.6,1.1C212.2,151.6,211.5,153.1,210.5,155.3z"/>
		<path d="M250,140.1v15.7c0,3.4,1.1,5,3.3,5c0.6,0,1.1-0.2,1.7-0.5c0.5-0.3,0.9-0.7,1.1-1.2c0.4-0.9,0.6-3,0.6-6.2
			c0-3.2-0.1-5.3-0.3-6.5c-0.1-0.5-0.2-0.8-0.4-1.1c-0.2-0.2-0.6-0.5-1.1-0.8c-1.1-0.6-1.7-1.3-1.7-2.2c0-1.2,0.9-2,2.8-2.5
			c3.6-0.9,7.1-1.3,10.6-1.3c1.9,0,2.9,1,2.9,3.1c0,0.2,0,0.6,0,1.3c0,0.9-0.1,2.1-0.1,3.4v12.8c0,0.7,0.6,1.3,1.7,1.8
			c0.9,0.5,1.4,1.1,1.4,2c0,1.7-2.1,3.1-6.2,4c-2.4,0.6-4.7,0.8-7,0.8c-0.9,0-1.6-0.1-1.9-0.3c-0.3-0.2-0.5-0.6-0.6-1.2
			c-0.1-1.2-0.5-1.8-1.1-1.8c-0.2,0-0.4,0.1-0.6,0.2c-0.2,0.1-0.8,0.5-1.8,1.2c-1.9,1.3-4,2-6.3,2c-3.7,0-6.3-1.1-7.8-3.2
			c-1.3-1.8-1.9-4.8-1.9-9.1c0-1.6,0-2.9,0-4.1c0-0.7,0-1.1,0-1.3c0-1.7-0.1-2.9-0.4-3.7c-0.3-0.8-0.8-1.4-1.6-1.8
			c-0.8-0.4-1.2-0.7-1.4-0.9c-0.2-0.2-0.3-0.6-0.3-1c0-1.5,1.1-2.4,3.3-2.9c3.8-0.8,7.6-1.2,11.3-1.2
			C249.4,138.6,250,139.1,250,140.1z"/>
		<path d="M285.9,138.4c1,0,2.5,0.2,4.7,0.6c0.4,0.1,0.8,0.1,1.1,0.1c0.3,0,1-0.2,1.9-0.5c0.4-0.2,0.8-0.3,1.1-0.3
			c0.9,0,1.8,0.6,2.7,1.7c0.7,0.9,1.3,1.9,1.8,3c0.5,1.1,0.7,2,0.7,2.8c0,0.8-0.3,1.4-0.8,1.9c-0.5,0.5-1.2,0.8-2,0.8
			c-0.7,0-1.3-0.2-1.8-0.5c-0.5-0.3-1.4-1.1-2.6-2.2c-1.2-1.2-2.3-1.8-3.1-1.8c-0.5,0-1,0.2-1.4,0.6c-0.4,0.4-0.6,0.9-0.6,1.4
			c0,0.9,0.9,1.8,2.7,2.7c3.3,1.5,5.8,3.1,7.5,4.8c1.5,1.5,2.2,3.3,2.2,5.4c0,2.7-1.2,4.9-3.5,6.7c-2,1.6-4.5,2.3-7.4,2.3
			c-0.8,0-2.1-0.1-4.1-0.4c-1.9-0.2-2.9-0.3-3.2-0.3c-0.3,0-0.5,0-0.9,0.1c-0.6,0.1-1,0.1-1.2,0.1c-0.9,0-1.6-0.2-2.1-0.7
			c-0.8-0.7-1.5-1.8-2.2-3.4c-0.7-1.5-1-2.9-1-4c0-1.8,0.7-2.7,2.1-2.7c0.5,0,1,0.2,1.5,0.5c0.5,0.4,1.4,1.3,2.9,2.9
			c0.8,0.8,1.4,1.4,2,1.8c0.5,0.3,1.1,0.5,1.7,0.5c0.6,0,1.1-0.2,1.5-0.5c0.4-0.3,0.6-0.8,0.6-1.3c0-0.9-0.7-1.7-2.2-2.4
			c-3.1-1.5-5.3-3.1-6.7-4.7c-1.4-1.6-2.1-3.5-2.1-5.6c0-2.3,0.7-4.3,2.1-5.9C279.7,139.6,282.4,138.4,285.9,138.4z"/>
		<path d="M318.6,140.4v16.8c0,1.3,0.1,2.3,0.4,2.9c0.2,0.6,0.7,1.2,1.5,1.7c0.6,0.4,1,0.8,1.2,1.1c0.2,0.3,0.3,0.7,0.3,1.1
			c0,2.5-3.2,3.7-9.5,3.7c-3.4,0-6.1-0.3-8.1-0.8c-0.7-0.2-1.2-0.5-1.6-1s-0.6-1-0.6-1.7c0-0.5,0.1-0.9,0.3-1.2
			c0.2-0.3,0.8-0.8,1.6-1.4c0.6-0.4,1-1.2,1.3-2.2c0.3-1,0.4-2.5,0.4-4.5c0-0.6,0-1.8-0.1-3.6c-0.1-1.7-0.1-2.8-0.2-3.1
			c-0.1-0.8-0.7-1.4-1.6-1.8c-1.2-0.5-1.8-1.3-1.8-2.3c0-1.2,0.8-2.1,2.3-2.7c2.2-0.8,4.5-1.5,6.9-2.1s4.4-0.9,5.7-0.9
			C318.1,138.6,318.6,139.2,318.6,140.4z M312.9,127.8c1.7,0,3,0.3,4,0.9c1,0.6,1.5,1.5,1.5,2.5c0,1.5-0.7,2.7-2.2,3.5
			c-2.4,1.4-5.2,2.1-8.5,2.1c-1.4,0-2.5-0.3-3.4-0.8c-1.1-0.7-1.7-1.7-1.7-2.9c0-1.7,1.2-3,3.6-3.9
			C308.6,128.2,310.8,127.8,312.9,127.8z"/>
		<path d="M340.2,138.4c3.4,0,6.5,0.9,9.1,2.6c2.5,1.6,3.7,3.7,3.7,6.1c0,1.7-0.6,3-1.7,4.1c-1.1,1-2.4,1.5-3.9,1.5
			c-1.6,0-2.8-0.6-3.6-1.7c-0.3-0.4-0.6-1.3-1.1-2.8c-0.5-1.6-1.5-2.4-3-2.4c-1.1,0-2,0.5-2.7,1.4c-0.7,0.9-1.1,2.1-1.1,3.4
			c0,2.3,0.8,4.4,2.5,6.2c1.4,1.4,3,2.2,5.1,2.2c1,0,1.8-0.1,2.4-0.2c0.7-0.2,1.5-0.5,2.6-1c0.3-0.1,0.6-0.2,0.9-0.2
			c0.7,0,1.2,0.3,1.7,0.9c0.5,0.6,0.8,1.3,0.8,2.2c0,0.9-0.4,1.8-1.1,2.7c-0.7,1-1.7,1.8-2.8,2.5c-2.5,1.5-5.5,2.3-8.9,2.3
			c-4,0-7.4-1.2-10.2-3.5c-3.6-2.9-5.4-6.7-5.4-11.2c0-4.4,1.7-8,5-10.8C331.8,139.8,335.6,138.4,340.2,138.4z"/>
		<path d="M197.5,216.6l-3.9,0c-2.7,0-4.7,0.1-6,0.2c-1.1,0.1-1.9,0.1-2.4,0.1c-1.2,0-2.1-0.3-2.8-0.9c-0.7-0.6-1-1.3-1-2.1
			c0-0.5,0.1-1,0.4-1.3c0.3-0.3,0.9-0.8,1.8-1.4c0.6-0.4,0.9-1,1.2-1.8c0.2-0.8,0.4-2.6,0.7-5.3c0.4-4.2,0.6-9.4,0.6-15.5
			c0-2.3-0.1-3.8-0.4-4.5c-0.3-0.7-1-1.4-2.1-1.8c-1.3-0.5-1.9-1.3-1.9-2.4c0-0.8,0.4-1.5,1.1-2.1c0.8-0.5,1.7-0.8,2.9-0.8
			c0.7,0,1.5,0,2.5,0.1c1.7,0.1,3.5,0.1,5.5,0.1c1.4,0,4.3-0.1,8.5-0.2c1.3,0,2.5-0.1,3.6-0.1c2.6,0,4.6,0.2,6.2,0.6
			c1.6,0.4,2.9,1.1,4.1,2.1c1.9,1.6,2.8,3.7,2.8,6.4c0,1.3-0.3,2.6-0.8,3.9c-0.6,1.3-1.3,2.3-2.3,3c-0.7,0.5-1,1-1,1.5
			c0,0.5,0.4,0.9,1.2,1.2c1.6,0.6,3,1.7,4.3,3.2c1.3,1.6,2,3.5,2,5.9c0,2.8-1,5.3-3,7.6c-2.7,3-6.6,4.5-11.9,4.5
			c-0.7,0-2.5,0-5.3-0.1C199.6,216.7,198.1,216.7,197.5,216.6z M199.5,185.2v6c0,0.9,0.1,1.6,0.4,2c0.2,0.4,0.7,0.6,1.3,0.6
			c1.4,0,2.5-0.4,3.2-1.3c0.7-0.9,1-2.3,1-4.1c0-1.8-0.3-3.2-1-4.2c-0.7-1-1.7-1.5-3-1.5c-0.7,0-1.1,0.2-1.4,0.6
			C199.6,183.6,199.5,184.3,199.5,185.2z M199.5,201.9v2.7c0,2.5,0.2,4.2,0.6,5c0.4,0.8,1.1,1.2,2.2,1.2c2.9,0,4.4-1.7,4.4-5.2
			c0-4.3-1.6-6.4-4.9-6.4c-0.8,0-1.4,0.2-1.8,0.6C199.6,200.3,199.5,200.9,199.5,201.9z"/>
		<path d="M251,203.7h-13.6c-0.6,0-0.9,0.3-0.9,0.8c0,1.3,0.7,2.4,2,3.5c1.4,1.1,2.8,1.7,4.4,1.7c0.9,0,2-0.2,3.1-0.5
			s2.1-0.8,2.8-1.3c0.7-0.5,1.2-0.7,1.6-0.7c0.5,0,1,0.3,1.5,0.9c0.5,0.6,0.7,1.3,0.7,1.9c0,1.4-0.9,2.7-2.6,4
			c-3.1,2.3-6.6,3.4-10.6,3.4c-4.1,0-7.4-1.2-10.2-3.5c-1.3-1.2-2.4-2.6-3.3-4.2c-1.1-2.2-1.7-4.5-1.7-6.9c0-3.2,1-6.2,3-8.7
			c1.7-2.2,3.9-3.9,6.5-5c2-0.8,4.1-1.2,6.4-1.2c3.7,0,6.8,1,9.3,3.1c1.3,1,2.3,2.3,3.1,3.7c0.9,1.6,1.4,3.2,1.4,4.7
			c0,1.3-0.3,2.3-0.8,3.1C252.5,203.3,251.8,203.7,251,203.7z M238.2,198.3h2.9c1.2,0,1.9-0.6,1.9-1.7c0-1-0.3-1.9-0.9-2.5
			c-0.6-0.7-1.4-1-2.3-1c-1.1,0-1.9,0.4-2.5,1.3c-0.6,0.8-0.9,1.6-0.9,2.4c0,0.6,0.1,1,0.4,1.2C237,198.2,237.5,198.3,238.2,198.3z"
			/>
		<path d="M272.2,187.8c3.4,0,6.2,0.8,8.5,2.5c1.2,0.9,2.1,1.9,2.6,3.1c0.5,1.2,0.7,2.8,0.7,4.8l-0.1,4.3c0,3,0.2,4.9,0.6,5.8
			c0.2,0.4,0.4,0.7,0.6,0.8c0.2,0.1,0.6,0.2,1.2,0.3c0.6,0.1,0.9,0.5,0.9,1.2c0,0.9-0.4,1.9-1.1,2.9c-0.7,1-1.7,1.8-2.9,2.5
			c-1.4,0.8-3,1.3-4.5,1.3c-2,0-3.6-0.7-4.8-2.1c-0.4-0.5-0.8-0.8-1.1-0.8c-0.4,0-0.9,0.2-1.5,0.7c-1.9,1.4-4.1,2.1-6.6,2.1
			c-2.5,0-4.6-0.5-6.1-1.6c-1-0.7-1.8-1.6-2.4-2.8c-0.6-1.1-0.9-2.3-0.9-3.6c0-2,0.8-3.8,2.4-5.3c2.5-2.4,6.3-3.7,11.3-3.7
			c1.1,0,1.8-0.1,2.1-0.3c0.3-0.2,0.4-0.7,0.4-1.5c0-2-0.2-3.5-0.6-4.4c-0.4-0.9-1.1-1.4-2.1-1.4c-0.6,0-1.1,0.2-1.5,0.5
			c-0.5,0.3-1,1-1.7,1.9c-1.7,2.5-3.5,3.7-5.4,3.7c-0.9,0-1.7-0.3-2.3-0.8c-0.6-0.6-0.9-1.3-0.9-2.2c0-0.9,0.4-1.9,1.1-2.8
			c0.7-0.9,1.8-1.7,3-2.4C264.8,188.7,268.4,187.8,272.2,187.8z M270.3,204.6c-0.8,0-1.6,0.3-2.2,1c-0.6,0.7-0.9,1.5-0.9,2.5
			c0,0.9,0.2,1.7,0.7,2.2c0.4,0.6,1,0.9,1.8,0.9c1.5,0,2.3-1.3,2.3-3.9c0-1.1-0.1-1.8-0.3-2.1C271.3,204.8,270.9,204.6,270.3,204.6z
			"/>
		<path d="M306.5,195.4v9.8c0,1.2,0.3,2.1,0.9,2.8c0.6,0.7,1.3,1.1,2.2,1.1c0.8,0,1.7-0.3,3-1c0.3-0.2,0.6-0.3,0.9-0.3
			c0.5,0,0.9,0.3,1.3,0.8c0.4,0.6,0.6,1.2,0.6,1.8c0,1.2-0.7,2.3-2,3.4c-2.7,2.3-6.1,3.5-10,3.5c-3.1,0-5.6-0.9-7.4-2.6
			c-1.9-1.7-2.8-4-2.8-6.9v-13.4c0-0.4-0.1-0.7-0.2-0.8c-0.1-0.1-0.4-0.2-0.8-0.2h-3c-0.6,0-0.9-0.1-1.1-0.3
			c-0.2-0.2-0.2-0.6-0.2-1.3v-1.3c0-0.6,0.2-1,0.7-1.3l13.3-8.3c0.3-0.2,0.7-0.3,1.2-0.3h2.3c0.5,0,0.8,0.1,1,0.3
			c0.2,0.2,0.2,0.7,0.2,1.3v3.9c0,0.6,0.1,1,0.3,1.1c0.2,0.2,0.6,0.3,1.2,0.3h5.4c0.7,0,1.2,0.1,1.4,0.4c0.2,0.3,0.3,0.8,0.3,1.7
			v1.7c0,0.9-0.1,1.6-0.4,1.9c-0.3,0.4-0.8,0.5-1.5,0.5h-5.2c-0.5,0-0.9,0.1-1.1,0.3C306.6,194.5,306.5,194.9,306.5,195.4z"/>
		<path d="M328.3,187.8c1,0,2.5,0.2,4.7,0.6c0.4,0.1,0.8,0.1,1.1,0.1c0.3,0,1-0.2,1.9-0.5c0.4-0.2,0.8-0.3,1.1-0.3
			c0.9,0,1.8,0.6,2.7,1.7c0.7,0.9,1.3,1.9,1.8,3c0.5,1.1,0.7,2,0.7,2.8c0,0.8-0.3,1.4-0.8,1.9c-0.5,0.5-1.2,0.8-2,0.8
			c-0.7,0-1.3-0.2-1.8-0.5c-0.5-0.3-1.4-1.1-2.6-2.2c-1.2-1.2-2.3-1.8-3.1-1.8c-0.5,0-1,0.2-1.4,0.6c-0.4,0.4-0.6,0.9-0.6,1.4
			c0,0.9,0.9,1.8,2.7,2.7c3.3,1.5,5.8,3.1,7.5,4.8c1.5,1.5,2.2,3.3,2.2,5.4c0,2.7-1.2,4.9-3.5,6.7c-2,1.6-4.5,2.3-7.4,2.3
			c-0.8,0-2.1-0.1-4.1-0.4c-1.9-0.2-2.9-0.3-3.2-0.3c-0.3,0-0.5,0-0.9,0.1c-0.6,0.1-1,0.1-1.2,0.1c-0.9,0-1.6-0.2-2.1-0.7
			c-0.8-0.7-1.5-1.8-2.2-3.4c-0.7-1.5-1-2.9-1-4c0-1.8,0.7-2.7,2.1-2.7c0.5,0,1,0.2,1.5,0.5c0.5,0.4,1.4,1.3,2.9,2.9
			c0.8,0.8,1.4,1.4,2,1.8c0.5,0.3,1.1,0.5,1.7,0.5c0.6,0,1.1-0.2,1.5-0.5c0.4-0.3,0.6-0.8,0.6-1.3c0-0.9-0.7-1.7-2.2-2.4
			c-3.1-1.5-5.3-3.1-6.7-4.7c-1.4-1.6-2.1-3.5-2.1-5.6c0-2.3,0.7-4.3,2.1-5.9C322.1,189,324.8,187.8,328.3,187.8z"/>
		<path d="M197.5,266.1l-3.9,0c-2.7,0-4.7,0.1-6,0.2c-1.1,0.1-1.9,0.1-2.4,0.1c-1.2,0-2.1-0.3-2.8-0.9c-0.7-0.6-1-1.3-1-2.1
			c0-0.5,0.1-1,0.4-1.3c0.3-0.3,0.9-0.8,1.8-1.4c0.6-0.4,0.9-1,1.2-1.8c0.2-0.8,0.4-2.6,0.7-5.3c0.4-4.2,0.6-9.4,0.6-15.5
			c0-2.3-0.1-3.8-0.4-4.5c-0.3-0.7-1-1.4-2.1-1.8c-1.3-0.5-1.9-1.3-1.9-2.4c0-0.8,0.4-1.5,1.1-2.1c0.8-0.5,1.7-0.8,2.9-0.8
			c0.7,0,1.5,0,2.5,0.1c1.7,0.1,3.5,0.1,5.5,0.1c1.4,0,4.3-0.1,8.5-0.2c1.3,0,2.5-0.1,3.6-0.1c2.6,0,4.6,0.2,6.2,0.6
			c1.6,0.4,2.9,1.1,4.1,2.1c1.9,1.6,2.8,3.7,2.8,6.4c0,1.3-0.3,2.6-0.8,3.9c-0.6,1.3-1.3,2.3-2.3,3c-0.7,0.5-1,1-1,1.5
			c0,0.5,0.4,0.9,1.2,1.2c1.6,0.6,3,1.7,4.3,3.2c1.3,1.6,2,3.5,2,5.9c0,2.8-1,5.3-3,7.6c-2.7,3-6.6,4.5-11.9,4.5
			c-0.7,0-2.5,0-5.3-0.1C199.6,266.1,198.1,266.1,197.5,266.1z M199.5,234.6v6c0,0.9,0.1,1.6,0.4,2c0.2,0.4,0.7,0.6,1.3,0.6
			c1.4,0,2.5-0.4,3.2-1.3c0.7-0.9,1-2.3,1-4.1c0-1.8-0.3-3.2-1-4.2c-0.7-1-1.7-1.5-3-1.5c-0.7,0-1.1,0.2-1.4,0.6
			C199.6,233,199.5,233.7,199.5,234.6z M199.5,251.3v2.7c0,2.5,0.2,4.2,0.6,5c0.4,0.8,1.1,1.2,2.2,1.2c2.9,0,4.4-1.7,4.4-5.2
			c0-4.3-1.6-6.4-4.9-6.4c-0.8,0-1.4,0.2-1.8,0.6C199.6,249.7,199.5,250.4,199.5,251.3z"/>
		<path d="M240.1,238.9v15.7c0,3.4,1.1,5,3.3,5c0.6,0,1.1-0.2,1.7-0.5c0.5-0.3,0.9-0.7,1.1-1.2c0.4-0.9,0.6-3,0.6-6.2
			c0-3.2-0.1-5.3-0.3-6.5c-0.1-0.5-0.2-0.8-0.4-1.1c-0.2-0.2-0.6-0.5-1.1-0.8c-1.1-0.6-1.7-1.3-1.7-2.2c0-1.2,0.9-2,2.8-2.5
			c3.6-0.9,7.1-1.3,10.6-1.3c1.9,0,2.9,1,2.9,3.1c0,0.2,0,0.6,0,1.3c0,0.9-0.1,2.1-0.1,3.4V258c0,0.7,0.6,1.3,1.7,1.8
			c0.9,0.5,1.4,1.1,1.4,2c0,1.7-2.1,3.1-6.2,4c-2.4,0.6-4.7,0.8-7,0.8c-0.9,0-1.6-0.1-1.9-0.3c-0.3-0.2-0.5-0.6-0.6-1.2
			c-0.1-1.2-0.5-1.8-1.1-1.8c-0.2,0-0.4,0.1-0.6,0.2c-0.2,0.1-0.8,0.5-1.8,1.2c-1.9,1.3-4,2-6.3,2c-3.7,0-6.3-1.1-7.8-3.2
			c-1.3-1.8-1.9-4.8-1.9-9.1c0-1.6,0-2.9,0-4.1c0-0.7,0-1.1,0-1.3c0-1.7-0.1-2.9-0.4-3.7c-0.3-0.8-0.8-1.4-1.6-1.8
			c-0.8-0.4-1.2-0.7-1.4-0.9c-0.2-0.2-0.3-0.6-0.3-1c0-1.5,1.1-2.4,3.3-2.9c3.8-0.8,7.6-1.2,11.3-1.2
			C239.6,237.5,240.1,237.9,240.1,238.9z"/>
		<path d="M281,243.1v9.3c0,4.1,0.1,6.5,0.2,7.2c0.1,0.7,0.6,1.2,1.4,1.6c0.7,0.3,1.2,0.6,1.4,0.9c0.2,0.3,0.4,0.7,0.4,1.2
			c0,0.6-0.2,1.2-0.7,1.7c-0.5,0.5-1.1,0.9-1.8,1.1c-1.4,0.4-3.7,0.6-7,0.6c-3.7,0-6.3-0.3-7.8-0.8c-0.7-0.3-1.3-0.6-1.7-1.2
			s-0.7-1.1-0.7-1.7c0-0.5,0.1-0.8,0.4-1.1c0.2-0.3,0.8-0.6,1.6-0.9c0.8-0.3,1.2-1.2,1.4-2.7c0.3-2.5,0.5-6.1,0.5-10.7
			c0-4.7-0.1-7.7-0.4-9.1c-0.3-1.4-0.9-2.4-2-3c-0.8-0.5-1.4-0.9-1.7-1.3c-0.3-0.4-0.4-0.9-0.4-1.5c0-0.9,0.5-1.8,1.4-2.5
			s2.4-1.4,4.3-2c1.3-0.4,3.1-0.8,5.2-1.2c2.1-0.4,3.7-0.6,4.6-0.6c1.5,0,2.3,0.9,2.3,2.8c0,0.6-0.1,2-0.3,4.3
			C281.1,237.1,281,240.3,281,243.1z"/>
		<path d="M302.6,243.1v9.3c0,4.1,0.1,6.5,0.2,7.2c0.1,0.7,0.6,1.2,1.4,1.6c0.7,0.3,1.2,0.6,1.4,0.9c0.2,0.3,0.4,0.7,0.4,1.2
			c0,0.6-0.2,1.2-0.7,1.7c-0.5,0.5-1.1,0.9-1.8,1.1c-1.4,0.4-3.7,0.6-7,0.6c-3.7,0-6.3-0.3-7.8-0.8c-0.7-0.3-1.3-0.6-1.7-1.2
			s-0.7-1.1-0.7-1.7c0-0.5,0.1-0.8,0.4-1.1c0.2-0.3,0.8-0.6,1.6-0.9c0.8-0.3,1.2-1.2,1.4-2.7c0.3-2.5,0.5-6.1,0.5-10.7
			c0-4.7-0.1-7.7-0.4-9.1c-0.3-1.4-0.9-2.4-2-3c-0.8-0.5-1.4-0.9-1.7-1.3c-0.3-0.4-0.4-0.9-0.4-1.5c0-0.9,0.5-1.8,1.4-2.5
			s2.4-1.4,4.3-2c1.3-0.4,3.1-0.8,5.2-1.2c2.1-0.4,3.7-0.6,4.6-0.6c1.5,0,2.3,0.9,2.3,2.8c0,0.6-0.1,2-0.3,4.3
			C302.8,237.1,302.7,240.3,302.6,243.1z"/>
		<path d="M334.5,253.1h-13.6c-0.6,0-0.9,0.3-0.9,0.8c0,1.3,0.7,2.4,2,3.5c1.4,1.1,2.8,1.7,4.4,1.7c0.9,0,2-0.2,3.1-0.5
			c1.1-0.4,2.1-0.8,2.8-1.3c0.7-0.5,1.2-0.7,1.6-0.7c0.5,0,1,0.3,1.5,0.9s0.7,1.3,0.7,1.9c0,1.4-0.9,2.7-2.6,4
			c-3.1,2.3-6.6,3.4-10.6,3.4c-4.1,0-7.4-1.2-10.2-3.5c-1.3-1.2-2.4-2.6-3.3-4.2c-1.1-2.2-1.7-4.5-1.7-6.9c0-3.2,1-6.2,3-8.7
			c1.7-2.2,3.9-3.9,6.5-5c2-0.8,4.1-1.2,6.4-1.2c3.7,0,6.8,1,9.3,3.1c1.3,1,2.3,2.3,3.1,3.7c0.9,1.6,1.4,3.2,1.4,4.7
			c0,1.3-0.3,2.3-0.8,3.1C336,252.7,335.3,253.1,334.5,253.1z M321.6,247.7h2.9c1.2,0,1.9-0.6,1.9-1.7c0-1-0.3-1.9-0.9-2.5
			s-1.4-1-2.3-1c-1.1,0-1.9,0.4-2.5,1.3c-0.6,0.8-0.9,1.6-0.9,2.4c0,0.6,0.1,1,0.4,1.2C320.4,247.6,320.9,247.7,321.6,247.7z"/>
		<path d="M356,244.8v9.8c0,1.2,0.3,2.1,0.9,2.8c0.6,0.7,1.3,1.1,2.2,1.1c0.8,0,1.7-0.3,3-1c0.3-0.2,0.6-0.3,0.9-0.3
			c0.5,0,0.9,0.3,1.3,0.8c0.4,0.6,0.6,1.2,0.6,1.8c0,1.2-0.7,2.3-2,3.4c-2.7,2.3-6.1,3.5-10,3.5c-3.1,0-5.6-0.9-7.4-2.6
			c-1.9-1.7-2.8-4-2.8-6.9V244c0-0.4-0.1-0.7-0.2-0.8c-0.1-0.1-0.4-0.2-0.8-0.2h-3c-0.6,0-0.9-0.1-1.1-0.3c-0.2-0.2-0.2-0.6-0.2-1.3
			v-1.3c0-0.6,0.2-1,0.7-1.3l13.3-8.3c0.3-0.2,0.7-0.3,1.2-0.3h2.3c0.5,0,0.8,0.1,1,0.3c0.2,0.2,0.2,0.7,0.2,1.3v3.9
			c0,0.6,0.1,1,0.3,1.1c0.2,0.2,0.6,0.3,1.2,0.3h5.4c0.7,0,1.2,0.1,1.4,0.4c0.2,0.3,0.3,0.8,0.3,1.7v1.7c0,0.9-0.1,1.6-0.4,1.9
			c-0.3,0.4-0.8,0.5-1.5,0.5h-5.2c-0.5,0-0.9,0.1-1.1,0.3C356.1,243.9,356,244.3,356,244.8z"/>
		<path d="M377.8,237.3c1,0,2.5,0.2,4.7,0.6c0.4,0.1,0.8,0.1,1.1,0.1c0.3,0,1-0.2,1.9-0.5c0.4-0.2,0.8-0.3,1.1-0.3
			c0.9,0,1.8,0.6,2.7,1.7c0.7,0.9,1.3,1.9,1.8,3c0.5,1.1,0.7,2,0.7,2.8c0,0.8-0.3,1.4-0.8,1.9c-0.5,0.5-1.2,0.8-2,0.8
			c-0.7,0-1.3-0.2-1.8-0.5c-0.5-0.3-1.4-1.1-2.6-2.2c-1.2-1.2-2.3-1.8-3.1-1.8c-0.5,0-1,0.2-1.4,0.6c-0.4,0.4-0.6,0.9-0.6,1.4
			c0,0.9,0.9,1.8,2.7,2.7c3.3,1.5,5.8,3.1,7.5,4.8c1.5,1.5,2.2,3.3,2.2,5.4c0,2.7-1.2,4.9-3.5,6.7c-2,1.6-4.5,2.3-7.4,2.3
			c-0.8,0-2.1-0.1-4.1-0.4c-1.9-0.2-2.9-0.3-3.2-0.3c-0.3,0-0.5,0-0.9,0.1c-0.6,0.1-1,0.1-1.2,0.1c-0.9,0-1.6-0.2-2.1-0.7
			c-0.8-0.7-1.5-1.8-2.2-3.4c-0.7-1.5-1-2.9-1-4c0-1.8,0.7-2.7,2.1-2.7c0.5,0,1,0.2,1.5,0.5c0.5,0.4,1.4,1.3,2.9,2.9
			c0.8,0.8,1.4,1.4,2,1.8c0.5,0.3,1.1,0.5,1.7,0.5c0.6,0,1.1-0.2,1.5-0.5c0.4-0.3,0.6-0.8,0.6-1.3c0-0.9-0.7-1.7-2.2-2.4
			c-3.1-1.5-5.3-3.1-6.7-4.7c-1.4-1.6-2.1-3.5-2.1-5.6c0-2.3,0.7-4.3,2.1-5.9C371.6,238.4,374.3,237.3,377.8,237.3z"/>
	</g>
	<path d="M191.4,78.2l-12.5,9.1l-12.1,7.1l-16.4,19.2c0,0,0,0,0,0c11.2-15.4,13.8-31.4,13.9-34.9c-3.7-1.3-8.9-3.1-6.2-2.5
		c1.7,0.4,4.4,0.1,7.1-0.3c2-4.1,6.7-13,12.7-21.2l-4.4-3.2l6,1c1.6-2.1,3.3-4.1,5-5.9c9.2-9.6,3.2-17.5-2.5-18.7
		c-4.9-1-10,7.3-10,7.3s-10.9,8-15.3,14.6c-2.1,3.1-3.4,9.4-6.5,15.4c-4.5,9-10.5,17.9-10.5,17.9l-5.5,16.5
		c2.3-9.8,3.2-19.3,3.5-23.5c-4.1-0.3-9.5-1.8-7.3-1.3c1.8,0.4,5.2-1.3,8-2.9l7.9-28.4l0,0l-7.5-3.6l8.4,0.3l0.1-0.3l7.8-16.1
		c5.5-9.4,8.1-20.2-3.2-23.5c-8.8-2.6-8.2,10.7-12.4,13.3c-1.1,0.7-20.6,41.5-24.1,50.4c-3.5,8.8-6.9,32-6.9,32l-0.8,4.3
		c-1.2,0-2.3,0-3.3,0c1.3-9.2,1.9-16,2.2-21.3l-5.7,0.7c-0.6,0.2-1.1,0.3-1.6,0.2l1.6-0.2c1.8-0.7,4.1-2.8,6-4.8
		c0.6-9.8,0.6-13.9,4.5-21.8c0.8-1.7,2.5-4.9,4.2-8.9l-5.4-2.4h6.4c4-9.6,7.6-22.2,2.1-28.1c-11.4-12-10.3,5-16.4,10.2
		c-6.1,5.2-6.5,19.6-13,27.8c-6.5,8.2-7.2,23.1-7.2,23.1l-4.4,12.7c0,0,2.4,6.4,2.8,15.2c0.4,11.1-0.7,20.8-0.7,20.8l5.9,7.9
		l0.3,10.5c34.6,20.7,34.4,48.4,34.4,48.4c-5-28.7-37.8-46.1-37.8-46.1c0.9-11.3-9.3-19.9-9.3-19.9c-2.9,3.8-6.7,3-6.7,3l6.7-7.8
		c5.5-12.2-2.6-39.5-5.5-45.3c-2.9-5.8-7.9-4.1-11-3.3c-3.1,0.8-5,3.9-5,3.9s1,8.3,1.6,13.2c0.6,4.9-2.6,13.2-4.9,19.2
		c-2.3,6,2.4,16.3,2.4,21.1c0,4.8,7.6,16.8,4.1,27.4c-3.5,10.7,10.3,38.4,19.9,53.5c3,4.7-1.1,24.7-8.2,41c-1.1,2.6-0.1,5.6,2.4,6.8
		c11.8,5.8,19.3,13.6,28.1,15.4c1.8,0.4,3.6-0.7,4.1-2.4l10.1-39.2l1.1,0.1l-10.3,45.8c-0.4,2.3,1.2,4.4,3.4,5
		c4.1,1.2,7.5,2.2,12.1,4.4c3.6,1.8,7.9,0,8.6-4l12.7-59c0.4-2.1-0.8-4.1-2.8-4.7l-6.8-2l4.6,0.7c2.5,0.4,5,0,7.2-1.2l0,0
		c6.7-10.2,16.8-20.4,18.7-31.6c2-12,3.8-36.1,4.2-43.9c0.4-7.8,1.7-14.1,1.6-15.6c-0.1-1.3,15.7-19.1,19.5-23.5c-2-2.6-6-8-2.9-5.1
		c1.5,1.4,3.4,2.4,5.3,3.2c3.4-2.4,11.5-8.5,13.7-13.3C207.1,72.7,191.4,78.2,191.4,78.2z"/>
	<path d="M42.8,145.8l-7.3-5.5c0,0-4.9-2.8-6,0c-1.2,2.8,0,4,0,4l7.4,3.1L42.8,145.8z"/>
	<path d="M52.1,186.1l-9.4,5.8l-1,6.9c0,0,5.1,3.2,6.1,2.5C48.9,200.6,52.1,186.1,52.1,186.1z"/>
	<polygon points="37.6,156.2 26.9,152.1 26.9,156.2 	"/>
	<path d="M38.6,182.7c-1.8,0.6-4.6-3-6.2-8c-1.6-4.9-1.4-9.4,0.3-10.1c-0.1,0-0.3-0.1-0.4-0.1l-2.4,1c0,0-0.7,0.5-0.9,1.5
		c-0.7,0-2-0.2-2.1-0.3c-0.4,0.1-20.7,9-20.7,9s-0.7,0.5-1.3,1.3c-1,0.7-5.8,3.9-4.6,8.6c1,2.6,3.7,4.9,9.1,4.3
		c0.9,0.2,1.4,0.3,1.4,0.3l17.1-4.4l3.9-1c0,0,1.7-0.1,2.8-2c0.6,0.4,1.1,1.2,4.1,0c0.1-0.1,0.2-0.3,0.4-0.5
		C38.8,182.5,38.7,182.6,38.6,182.7z"/>
	<ellipse transform="matrix(0.952 -0.306 0.306 0.952 -51.3932 19.4033)" cx="36.2" cy="173.6" rx="1.5" ry="4.1"/>
	<ellipse transform="matrix(0.9098 -0.415 0.415 0.9098 -48.1376 66.5033)" class="st0" cx="129" cy="144" rx="12" ry="19.7"/>
	<polygon class="st0" points="123.1,138.8 152.2,129.6 124.2,141.4 	"/>
	<path class="st0" d="M121.6,144.5l28.5-9l-24.9,10.4C123.8,146.5,122.2,145.9,121.6,144.5L121.6,144.5z"/>
	<g>
		<path d="M106.2,129c0,0,0.2-0.1,0.5-0.4c0.3-0.2,0.8-0.6,1.6-1c0.4-0.2,0.8-0.4,1.3-0.5c0.5-0.2,1-0.3,1.6-0.4
			c0.6-0.1,1.2-0.2,1.9-0.2c0.3,0,0.7,0,1,0c0.3,0,0.7,0.1,1.1,0.1c0.7,0.1,1.5,0.3,2.3,0.4c0.8,0.2,1.5,0.5,2.3,0.8
			c1.5,0.7,3.1,1.6,4.5,2.7c1.4,1.1,2.8,2.5,3.9,4c0.6,0.7,1.1,1.5,1.6,2.4c0.3,0.4,0.5,0.8,0.7,1.3l0.3,0.6l0.2,0.3l0.1,0.2l0,0.1
			l0.1,0.2l0.5,1.2l0.2,0.6c0.1,0.2,0.2,0.5,0.2,0.7c0.2,0.5,0.3,1,0.4,1.5c0.1,0.5,0.2,0.9,0.3,1.4c0.4,1.9,0.5,3.7,0.5,5.6
			c-0.1,1.8-0.4,3.6-0.9,5.2c-0.1,0.4-0.3,0.8-0.4,1.2c-0.2,0.4-0.3,0.8-0.5,1.1c-0.4,0.7-0.7,1.4-1.2,2c-0.2,0.3-0.4,0.6-0.6,0.9
			c-0.2,0.3-0.4,0.5-0.7,0.8c-0.4,0.5-0.9,0.9-1.4,1.3c-0.4,0.4-0.9,0.7-1.3,0.9c-0.4,0.3-0.8,0.5-1.2,0.6c-0.7,0.4-1.4,0.5-1.8,0.6
			c-0.4,0.1-0.6,0.1-0.6,0.1l-0.2-0.4c0,0,0.2-0.1,0.5-0.3c0.3-0.2,0.9-0.5,1.4-0.9c0.3-0.2,0.6-0.5,0.9-0.8c0.3-0.3,0.7-0.6,1-1
			c0.3-0.4,0.7-0.8,0.9-1.3c0.2-0.2,0.3-0.5,0.5-0.7c0.1-0.3,0.3-0.5,0.4-0.8c0.6-1.1,1-2.4,1.2-3.8c0.3-1.4,0.4-2.9,0.3-4.5
			c-0.1-1.6-0.3-3.2-0.7-4.8c-0.4-1.6-1-3.1-1.6-4.7c-0.7-1.5-1.5-3-2.5-4.3c-0.9-1.4-2-2.6-3.2-3.6c-1.1-1.1-2.4-2-3.6-2.7
			c-1.2-0.7-2.5-1.2-3.7-1.6c-0.3-0.1-0.6-0.2-0.9-0.2c-0.3,0-0.6-0.1-0.9-0.1c-0.6-0.1-1.1-0.1-1.6-0.1c-0.5,0-1,0-1.4,0.1
			c-0.4,0-0.8,0.1-1.2,0.2c-0.7,0.1-1.3,0.3-1.6,0.5c-0.4,0.1-0.6,0.2-0.6,0.2L106.2,129z"/>
	</g>
</g>
</svg>
