<?xml version="1.0" encoding="utf-8"?>
<!-- Generator: Adobe Illustrator 20.1.0, SVG Export Plug-In . SVG Version: 6.00 Build 0)  -->
<svg version="1.1" id="Layer_1" xmlns="http://www.w3.org/2000/svg" xmlns:xlink="http://www.w3.org/1999/xlink" x="0px" y="0px"
	 viewBox="0 0 367.6 268.8" style="enable-background:new 0 0 367.6 268.8;" xml:space="preserve">
<g>
	<g>
		<path d="M197.4,145.6l-3.3,7.3c-0.6,1.2-1,2.1-1.4,2.5c-0.3,0.4-0.7,0.6-1.1,0.6c-0.4,0-0.8-0.2-1.1-0.5c-0.2-0.2-0.7-1-1.4-2.4
			c-0.7-1.4-1.3-2.6-1.8-3.7l-3.6-8.1c-0.5-1.1-1-1.7-1.5-1.7c-0.6,0-0.9,0.5-1,1.4c-0.1,2.1-0.2,4.1-0.2,5.9c0,1.9,0.1,3.2,0.3,3.8
			c0.1,0.4,0.3,0.7,0.5,0.9c0.2,0.2,0.8,0.5,1.7,1c0.6,0.3,0.9,0.8,0.9,1.6c0,2-2.6,3-7.8,3c-4.4,0-6.6-1-6.6-3
			c0-0.5,0.1-0.9,0.3-1.1c0.2-0.2,0.8-0.6,1.8-1c0.6-0.3,1-0.6,1.2-1.1c0.2-0.5,0.4-1.4,0.5-2.7c0.2-1.4,0.3-3.8,0.5-7.1
			c0.1-3.3,0.2-6.1,0.2-8.5c0-2.9-0.2-4.9-0.7-6c-0.2-0.4-0.3-0.6-0.6-0.8c-0.2-0.2-0.6-0.4-1.2-0.7c-1.3-0.6-1.9-1.4-1.9-2.4
			c0-0.6,0.2-1.2,0.7-1.7c0.5-0.5,1.1-0.9,1.9-1.1c0.8-0.2,1.9-0.4,3.2-0.6c1.3-0.2,2.5-0.3,3.4-0.3c2.3,0,4,0.2,4.9,0.6
			c0.5,0.2,0.8,0.4,1.1,0.7c0.3,0.3,0.7,0.9,1.2,1.9l5.6,10.4c0.6,1.1,1,1.8,1.3,2.1c0.2,0.3,0.6,0.4,1,0.4c0.4,0,0.7-0.1,1-0.4
			c0.3-0.3,0.6-0.8,1-1.5l3.8-7.5c0.5-1,0.8-1.6,0.9-1.9c0.9-1.8,1.8-3,2.6-3.6c1.1-0.8,3.1-1.2,6-1.2c5.1,0,7.7,1.2,7.7,3.5
			c0,0.5-0.1,0.9-0.3,1.3c-0.2,0.3-0.6,0.7-1.2,1.2c-0.8,0.6-1.4,1.5-1.6,2.7c-0.4,2.5-0.6,5.5-0.6,9.1c0,4.6,0.2,8.7,0.7,12.1
			c0.1,0.9,0.3,1.4,0.5,1.7c0.2,0.3,0.8,0.8,1.8,1.4c0.7,0.4,1,1,1,1.7c0,1.3-0.8,2.2-2.5,2.7c-0.9,0.3-1.8,0.5-2.7,0.6
			c-1,0.1-2.4,0.1-4.4,0.1c-3.1,0-5.3-0.2-6.8-0.7c-1.7-0.5-2.5-1.3-2.5-2.5c0-0.4,0.1-0.8,0.3-1.1c0.2-0.3,0.8-0.8,1.7-1.5
			c0.5-0.4,0.8-1.1,1-2.2c0.2-1.1,0.3-2.9,0.3-5.5c0-1.4-0.1-2.4-0.2-2.9c-0.1-0.5-0.4-0.7-0.9-0.7c-0.5,0-1,0.3-1.5,1
			C199,142.2,198.3,143.5,197.4,145.6z"/>
		<path d="M234.4,131.4v14.7c0,3.1,1,4.7,3.1,4.7c0.5,0,1-0.1,1.5-0.4c0.5-0.3,0.9-0.7,1.1-1.1c0.4-0.9,0.6-2.8,0.6-5.8
			c0-3-0.1-5-0.3-6.1c-0.1-0.5-0.2-0.8-0.4-1c-0.2-0.2-0.5-0.4-1-0.7c-1-0.5-1.5-1.2-1.5-2.1c0-1.1,0.9-1.9,2.7-2.3
			c3.4-0.8,6.7-1.2,10-1.2c1.8,0,2.7,1,2.7,2.9c0,0.2,0,0.6,0,1.2c0,0.9-0.1,1.9-0.1,3.2v12c0,0.6,0.5,1.2,1.6,1.7
			c0.9,0.4,1.3,1.1,1.3,1.9c0,1.6-1.9,2.9-5.8,3.8c-2.3,0.5-4.5,0.8-6.6,0.8c-0.9,0-1.5-0.1-1.8-0.3c-0.3-0.2-0.5-0.6-0.6-1.2
			c-0.1-1.1-0.4-1.7-1-1.7c-0.2,0-0.4,0.1-0.6,0.1c-0.2,0.1-0.7,0.5-1.7,1.1c-1.8,1.2-3.8,1.9-5.9,1.9c-3.5,0-5.9-1-7.4-3
			c-1.2-1.7-1.8-4.5-1.8-8.5c0-1.5,0-2.8,0-3.8c0-0.6,0-1,0-1.2c0-1.6-0.1-2.7-0.4-3.4c-0.3-0.7-0.8-1.3-1.5-1.7
			c-0.7-0.4-1.2-0.7-1.3-0.9c-0.2-0.2-0.3-0.5-0.3-0.9c0-1.4,1-2.3,3.1-2.7c3.5-0.8,7.1-1.2,10.6-1.2
			C233.9,130,234.4,130.5,234.4,131.4z"/>
		<path d="M268.1,129.8c0.9,0,2.4,0.2,4.4,0.6c0.4,0.1,0.8,0.1,1,0.1c0.3,0,0.9-0.2,1.8-0.5c0.4-0.2,0.8-0.2,1.1-0.2
			c0.8,0,1.7,0.5,2.5,1.6c0.7,0.9,1.2,1.8,1.7,2.8c0.4,1,0.7,1.9,0.7,2.6c0,0.7-0.3,1.3-0.8,1.8c-0.5,0.5-1.1,0.7-1.9,0.7
			c-0.6,0-1.2-0.2-1.7-0.5c-0.5-0.3-1.3-1-2.4-2c-1.2-1.1-2.1-1.7-2.9-1.7c-0.5,0-0.9,0.2-1.3,0.6c-0.4,0.4-0.6,0.8-0.6,1.3
			c0,0.9,0.9,1.7,2.6,2.5c3.1,1.4,5.4,2.9,7,4.5c1.4,1.4,2.1,3.1,2.1,5c0,2.5-1.1,4.6-3.3,6.3c-1.9,1.5-4.2,2.2-7,2.2
			c-0.7,0-2-0.1-3.9-0.4c-1.8-0.2-2.7-0.3-3-0.3c-0.2,0-0.5,0-0.8,0.1c-0.5,0.1-0.9,0.1-1.1,0.1c-0.9,0-1.5-0.2-2-0.7
			c-0.7-0.7-1.4-1.7-2.1-3.2c-0.6-1.4-1-2.7-1-3.7c0-1.7,0.7-2.5,2-2.5c0.5,0,1,0.2,1.4,0.5c0.4,0.3,1.3,1.2,2.7,2.7
			c0.7,0.8,1.4,1.3,1.8,1.6c0.5,0.3,1,0.4,1.6,0.4c0.6,0,1.1-0.2,1.4-0.5c0.4-0.3,0.5-0.7,0.5-1.3c0-0.8-0.7-1.6-2.1-2.2
			c-2.9-1.4-5-2.9-6.3-4.4c-1.3-1.5-1.9-3.3-1.9-5.3c0-2.2,0.7-4,2-5.6C262.3,130.9,264.8,129.8,268.1,129.8z"/>
		<path d="M298.8,131.7v15.8c0,1.2,0.1,2.2,0.3,2.7c0.2,0.6,0.7,1.1,1.4,1.6c0.6,0.4,0.9,0.7,1.1,1c0.2,0.3,0.3,0.6,0.3,1.1
			c0,2.3-3,3.5-8.9,3.5c-3.2,0-5.7-0.3-7.6-0.8c-0.6-0.2-1.1-0.5-1.5-1s-0.6-1-0.6-1.5c0-0.5,0.1-0.9,0.3-1.1
			c0.2-0.3,0.7-0.7,1.5-1.3c0.6-0.4,1-1.1,1.2-2c0.2-0.9,0.4-2.3,0.4-4.2c0-0.6,0-1.7-0.1-3.4c-0.1-1.6-0.1-2.6-0.2-2.9
			c-0.1-0.7-0.6-1.3-1.5-1.7c-1.1-0.5-1.7-1.2-1.7-2.2c0-1.1,0.7-2,2.2-2.6c2-0.8,4.2-1.4,6.5-2c2.3-0.5,4.1-0.8,5.4-0.8
			C298.3,130,298.8,130.6,298.8,131.7z M293.5,119.8c1.6,0,2.8,0.3,3.7,0.9c0.9,0.6,1.4,1.4,1.4,2.4c0,1.4-0.7,2.5-2.1,3.3
			c-2.2,1.3-4.9,1.9-8,1.9c-1.3,0-2.4-0.3-3.1-0.8c-1.1-0.7-1.6-1.6-1.6-2.7c0-1.6,1.1-2.8,3.3-3.7
			C289.4,120.3,291.5,119.8,293.5,119.8z"/>
		<path d="M319,129.8c3.2,0,6.1,0.8,8.5,2.4c2.3,1.5,3.5,3.4,3.5,5.7c0,1.6-0.5,2.9-1.6,3.8c-1,0.9-2.2,1.4-3.7,1.4
			c-1.5,0-2.6-0.5-3.4-1.6c-0.2-0.3-0.6-1.2-1-2.6c-0.5-1.5-1.4-2.3-2.8-2.3c-1,0-1.8,0.4-2.5,1.3c-0.7,0.9-1,1.9-1,3.2
			c0,2.2,0.8,4.1,2.3,5.8c1.3,1.4,2.9,2,4.8,2c0.9,0,1.7-0.1,2.3-0.2c0.6-0.2,1.4-0.5,2.4-0.9c0.3-0.1,0.5-0.2,0.8-0.2
			c0.6,0,1.2,0.3,1.6,0.9c0.5,0.6,0.7,1.3,0.7,2c0,0.8-0.3,1.7-1,2.6c-0.7,0.9-1.5,1.7-2.6,2.3c-2.4,1.4-5.1,2.2-8.3,2.2
			c-3.7,0-6.9-1.1-9.5-3.3c-3.4-2.8-5-6.3-5-10.5c0-4.1,1.6-7.5,4.7-10.2C311.1,131.1,314.8,129.8,319,129.8z"/>
		<path d="M185.2,203.2l-3.6,0c-2.6,0-4.4,0.1-5.6,0.2c-1.1,0.1-1.8,0.1-2.3,0.1c-1.1,0-2-0.3-2.6-0.8c-0.6-0.6-1-1.2-1-2
			c0-0.5,0.1-0.9,0.4-1.2c0.2-0.3,0.8-0.7,1.7-1.4c0.5-0.4,0.9-0.9,1.1-1.7c0.2-0.8,0.4-2.4,0.7-5c0.3-3.9,0.5-8.8,0.5-14.6
			c0-2.1-0.1-3.5-0.4-4.2c-0.3-0.7-0.9-1.3-2-1.7c-1.2-0.5-1.8-1.2-1.8-2.2c0-0.8,0.4-1.4,1.1-2c0.7-0.5,1.6-0.8,2.8-0.8
			c0.6,0,1.4,0,2.4,0.1c1.6,0.1,3.3,0.1,5.2,0.1c1.4,0,4-0.1,8-0.2c1.2,0,2.4-0.1,3.4-0.1c2.4,0,4.3,0.2,5.8,0.6
			c1.5,0.4,2.8,1,3.8,2c1.8,1.5,2.7,3.5,2.7,6c0,1.2-0.3,2.5-0.8,3.7c-0.5,1.2-1.2,2.1-2.1,2.8c-0.6,0.5-1,1-1,1.4
			c0,0.5,0.4,0.8,1.1,1.1c1.5,0.6,2.8,1.6,4,3c1.2,1.5,1.9,3.3,1.9,5.5c0,2.6-1,5-2.9,7.1c-2.5,2.8-6.2,4.3-11.2,4.3
			c-0.7,0-2.3,0-4.9-0.1C187.2,203.2,185.7,203.2,185.2,203.2z M187.1,173.7v5.6c0,0.9,0.1,1.5,0.3,1.9c0.2,0.4,0.6,0.5,1.2,0.5
			c1.3,0,2.3-0.4,3-1.2c0.6-0.8,1-2.1,1-3.9c0-1.7-0.3-3-1-3.9c-0.7-0.9-1.6-1.4-2.8-1.4c-0.6,0-1.1,0.2-1.3,0.5
			C187.2,172.2,187.1,172.8,187.1,173.7z M187.1,189.4v2.6c0,2.4,0.2,3.9,0.5,4.7c0.3,0.8,1,1.2,2.1,1.2c2.8,0,4.1-1.6,4.1-4.8
			c0-4-1.5-6-4.6-6c-0.8,0-1.3,0.2-1.7,0.5C187.2,187.8,187.1,188.4,187.1,189.4z"/>
		<path d="M235.4,191h-12.8c-0.6,0-0.8,0.2-0.8,0.7c0,1.2,0.6,2.3,1.9,3.3c1.3,1,2.6,1.6,4.1,1.6c0.9,0,1.8-0.2,2.9-0.5
			c1.1-0.3,1.9-0.7,2.6-1.2c0.6-0.4,1.1-0.7,1.5-0.7c0.5,0,0.9,0.3,1.4,0.9s0.7,1.2,0.7,1.8c0,1.3-0.8,2.6-2.4,3.8
			c-2.9,2.2-6.2,3.2-10,3.2c-3.8,0-7-1.1-9.6-3.3c-1.2-1.1-2.3-2.4-3.1-3.9c-1.1-2-1.6-4.2-1.6-6.5c0-3,0.9-5.8,2.8-8.2
			c1.6-2.1,3.6-3.7,6.1-4.7c1.8-0.8,3.8-1.2,6-1.2c3.4,0,6.4,1,8.8,2.9c1.2,1,2.2,2.1,2.9,3.5c0.9,1.5,1.3,3,1.3,4.5
			c0,1.2-0.2,2.1-0.7,2.9C236.8,190.7,236.2,191,235.4,191z M223.3,186h2.7c1.2,0,1.7-0.5,1.7-1.6c0-1-0.3-1.8-0.8-2.4
			c-0.6-0.6-1.3-0.9-2.2-0.9c-1,0-1.8,0.4-2.4,1.2c-0.5,0.7-0.8,1.5-0.8,2.3c0,0.5,0.1,0.9,0.4,1.1C222.2,185.9,222.7,186,223.3,186
			z"/>
		<path d="M255.3,176.1c3.1,0,5.8,0.8,8,2.4c1.2,0.9,2,1.8,2.4,2.9c0.5,1.1,0.7,2.6,0.7,4.5l-0.1,4c0,2.8,0.2,4.6,0.6,5.5
			c0.2,0.4,0.4,0.7,0.6,0.8c0.2,0.1,0.6,0.2,1.1,0.3c0.6,0.1,0.9,0.5,0.9,1.1c0,0.9-0.3,1.8-1,2.7c-0.7,0.9-1.6,1.7-2.7,2.4
			c-1.4,0.8-2.8,1.2-4.3,1.2c-1.9,0-3.4-0.7-4.5-2c-0.4-0.5-0.7-0.7-1.1-0.7c-0.4,0-0.8,0.2-1.4,0.7c-1.8,1.3-3.9,2-6.2,2
			c-2.4,0-4.3-0.5-5.8-1.5c-1-0.7-1.7-1.5-2.3-2.6c-0.6-1.1-0.8-2.2-0.8-3.4c0-1.9,0.8-3.5,2.3-5c2.4-2.3,5.9-3.4,10.6-3.4
			c1,0,1.7-0.1,2-0.3c0.3-0.2,0.4-0.7,0.4-1.5c0-1.9-0.2-3.3-0.6-4.2c-0.4-0.9-1-1.3-2-1.3c-0.5,0-1,0.2-1.5,0.5
			c-0.4,0.3-1,0.9-1.6,1.8c-1.6,2.3-3.3,3.4-5,3.4c-0.9,0-1.6-0.3-2.2-0.8c-0.6-0.5-0.8-1.2-0.8-2.1c0-0.9,0.3-1.7,1-2.6
			c0.7-0.9,1.6-1.6,2.8-2.3C248.3,177,251.7,176.1,255.3,176.1z M253.5,191.9c-0.8,0-1.5,0.3-2.1,1c-0.6,0.7-0.9,1.4-0.9,2.3
			c0,0.9,0.2,1.6,0.6,2.1c0.4,0.5,1,0.8,1.7,0.8c1.4,0,2.2-1.2,2.2-3.7c0-1-0.1-1.7-0.3-2C254.4,192,254,191.9,253.5,191.9z"/>
		<path d="M287.4,183.3v9.2c0,1.1,0.3,2,0.8,2.7c0.5,0.7,1.2,1,2,1c0.7,0,1.6-0.3,2.8-1c0.3-0.2,0.5-0.2,0.8-0.2
			c0.4,0,0.8,0.3,1.2,0.8c0.4,0.5,0.5,1.1,0.5,1.7c0,1.1-0.6,2.2-1.8,3.2c-2.6,2.2-5.7,3.3-9.3,3.3c-2.9,0-5.2-0.8-7-2.5
			c-1.8-1.6-2.6-3.8-2.6-6.5v-12.5c0-0.4,0-0.7-0.1-0.8c-0.1-0.1-0.4-0.1-0.8-0.1h-2.8c-0.5,0-0.9-0.1-1-0.3
			c-0.1-0.2-0.2-0.6-0.2-1.2v-1.2c0-0.5,0.2-0.9,0.6-1.2l12.4-7.8c0.3-0.2,0.7-0.2,1.1-0.2h2.2c0.5,0,0.8,0.1,0.9,0.3
			c0.2,0.2,0.2,0.6,0.2,1.2v3.7c0,0.5,0.1,0.9,0.3,1.1c0.2,0.2,0.5,0.2,1.1,0.2h5c0.7,0,1.1,0.1,1.3,0.4c0.2,0.2,0.3,0.8,0.3,1.6
			v1.6c0,0.9-0.1,1.5-0.4,1.8c-0.3,0.3-0.7,0.5-1.4,0.5h-4.9c-0.5,0-0.9,0.1-1,0.3C287.5,182.4,287.4,182.8,287.4,183.3z"/>
		<path d="M307.9,176.2c0.9,0,2.4,0.2,4.4,0.6c0.4,0.1,0.8,0.1,1,0.1c0.3,0,0.9-0.2,1.8-0.5c0.4-0.2,0.8-0.2,1.1-0.2
			c0.8,0,1.7,0.5,2.5,1.6c0.7,0.9,1.2,1.8,1.7,2.8c0.4,1,0.7,1.9,0.7,2.6c0,0.7-0.3,1.3-0.8,1.8c-0.5,0.5-1.1,0.7-1.9,0.7
			c-0.6,0-1.2-0.2-1.7-0.5c-0.5-0.3-1.3-1-2.4-2c-1.2-1.1-2.1-1.7-2.9-1.7c-0.5,0-0.9,0.2-1.3,0.6c-0.4,0.4-0.6,0.8-0.6,1.3
			c0,0.9,0.9,1.7,2.6,2.5c3.1,1.4,5.4,2.9,7,4.5c1.4,1.4,2.1,3.1,2.1,5c0,2.5-1.1,4.6-3.3,6.3c-1.9,1.5-4.2,2.2-7,2.2
			c-0.7,0-2-0.1-3.9-0.4c-1.8-0.2-2.7-0.3-3-0.3c-0.2,0-0.5,0-0.8,0.1c-0.5,0.1-0.9,0.1-1.1,0.1c-0.9,0-1.5-0.2-2-0.7
			c-0.7-0.7-1.4-1.7-2.1-3.2c-0.6-1.4-1-2.7-1-3.7c0-1.7,0.7-2.5,2-2.5c0.5,0,1,0.2,1.4,0.5c0.4,0.3,1.3,1.2,2.7,2.7
			c0.7,0.8,1.4,1.3,1.8,1.6c0.5,0.3,1,0.4,1.6,0.4c0.6,0,1.1-0.2,1.4-0.5c0.4-0.3,0.5-0.7,0.5-1.3c0-0.8-0.7-1.6-2.1-2.2
			c-2.9-1.4-5-2.9-6.3-4.4c-1.3-1.5-1.9-3.3-1.9-5.3c0-2.2,0.7-4,2-5.6C302.1,177.3,304.6,176.2,307.9,176.2z"/>
		<path d="M185.2,249.5l-3.6,0c-2.6,0-4.4,0.1-5.6,0.2c-1.1,0.1-1.8,0.1-2.3,0.1c-1.1,0-2-0.3-2.6-0.8c-0.6-0.6-1-1.2-1-2
			c0-0.5,0.1-0.9,0.4-1.2c0.2-0.3,0.8-0.7,1.7-1.4c0.5-0.4,0.9-0.9,1.1-1.7c0.2-0.8,0.4-2.4,0.7-5c0.3-3.9,0.5-8.8,0.5-14.6
			c0-2.1-0.1-3.5-0.4-4.2c-0.3-0.7-0.9-1.3-2-1.7c-1.2-0.5-1.8-1.2-1.8-2.2c0-0.8,0.4-1.4,1.1-2c0.7-0.5,1.6-0.8,2.8-0.8
			c0.6,0,1.4,0,2.4,0.1c1.6,0.1,3.3,0.1,5.2,0.1c1.4,0,4-0.1,8-0.2c1.2,0,2.4-0.1,3.4-0.1c2.4,0,4.3,0.2,5.8,0.6
			c1.5,0.4,2.8,1,3.8,2c1.8,1.5,2.7,3.5,2.7,6c0,1.2-0.3,2.5-0.8,3.7c-0.5,1.2-1.2,2.1-2.1,2.8c-0.6,0.5-1,1-1,1.4
			c0,0.5,0.4,0.8,1.1,1.1c1.5,0.6,2.8,1.6,4,3c1.2,1.5,1.9,3.3,1.9,5.5c0,2.6-1,5-2.9,7.1c-2.5,2.8-6.2,4.3-11.2,4.3
			c-0.7,0-2.3,0-4.9-0.1C187.2,249.6,185.7,249.5,185.2,249.5z M187.1,220v5.6c0,0.9,0.1,1.5,0.3,1.9c0.2,0.4,0.6,0.5,1.2,0.5
			c1.3,0,2.3-0.4,3-1.2c0.6-0.8,1-2.1,1-3.9c0-1.7-0.3-3-1-3.9c-0.7-0.9-1.6-1.4-2.8-1.4c-0.6,0-1.1,0.2-1.3,0.5
			C187.2,218.5,187.1,219.1,187.1,220z M187.1,235.7v2.6c0,2.4,0.2,3.9,0.5,4.7c0.3,0.8,1,1.2,2.1,1.2c2.8,0,4.1-1.6,4.1-4.8
			c0-4-1.5-6-4.6-6c-0.8,0-1.3,0.2-1.7,0.5C187.2,234.2,187.1,234.8,187.1,235.7z"/>
		<path d="M225.2,224v14.7c0,3.1,1,4.7,3.1,4.7c0.5,0,1-0.1,1.5-0.4c0.5-0.3,0.9-0.7,1.1-1.1c0.4-0.9,0.6-2.8,0.6-5.8
			c0-3-0.1-5-0.3-6.1c-0.1-0.5-0.2-0.8-0.4-1c-0.2-0.2-0.5-0.4-1-0.7c-1-0.5-1.5-1.2-1.5-2.1c0-1.1,0.9-1.9,2.7-2.3
			c3.4-0.8,6.7-1.2,10-1.2c1.8,0,2.7,1,2.7,2.9c0,0.2,0,0.6,0,1.2c0,0.9-0.1,1.9-0.1,3.2v12c0,0.6,0.5,1.2,1.6,1.7
			c0.9,0.4,1.3,1.1,1.3,1.9c0,1.6-1.9,2.9-5.8,3.8c-2.3,0.5-4.5,0.8-6.6,0.8c-0.9,0-1.5-0.1-1.8-0.3c-0.3-0.2-0.5-0.6-0.6-1.2
			c-0.1-1.1-0.4-1.7-1-1.7c-0.2,0-0.4,0.1-0.6,0.1c-0.2,0.1-0.7,0.5-1.7,1.1c-1.8,1.2-3.8,1.9-5.9,1.9c-3.5,0-5.9-1-7.4-3
			c-1.2-1.7-1.8-4.5-1.8-8.5c0-1.5,0-2.8,0-3.8c0-0.6,0-1,0-1.2c0-1.6-0.1-2.7-0.4-3.4c-0.3-0.7-0.8-1.3-1.5-1.7
			c-0.7-0.4-1.2-0.7-1.3-0.9c-0.2-0.2-0.3-0.5-0.3-0.9c0-1.4,1-2.3,3.1-2.7c3.5-0.8,7.1-1.2,10.6-1.2
			C224.7,222.7,225.2,223.1,225.2,224z"/>
		<path d="M263.5,228v8.7c0,3.9,0.1,6.1,0.2,6.7c0.1,0.6,0.6,1.1,1.3,1.5c0.7,0.3,1.1,0.6,1.3,0.8c0.2,0.3,0.3,0.6,0.3,1.1
			c0,0.6-0.2,1.1-0.6,1.6c-0.4,0.5-1,0.8-1.7,1c-1.3,0.4-3.5,0.6-6.6,0.6c-3.5,0-5.9-0.3-7.4-0.8c-0.7-0.2-1.2-0.6-1.6-1.1
			c-0.4-0.5-0.6-1-0.6-1.6c0-0.4,0.1-0.8,0.3-1c0.2-0.2,0.7-0.5,1.5-0.8c0.7-0.3,1.1-1.1,1.3-2.5c0.3-2.4,0.4-5.7,0.4-10
			c0-4.4-0.1-7.3-0.4-8.5c-0.3-1.3-0.9-2.2-1.9-2.8c-0.8-0.4-1.3-0.8-1.6-1.2c-0.3-0.4-0.4-0.9-0.4-1.4c0-0.9,0.4-1.7,1.3-2.3
			c0.9-0.7,2.2-1.3,4.1-1.8c1.2-0.4,2.9-0.7,4.9-1.1c2-0.3,3.4-0.5,4.3-0.5c1.4,0,2.1,0.9,2.1,2.7c0,0.6-0.1,1.9-0.3,4
			C263.7,222.3,263.5,225.3,263.5,228z"/>
		<path d="M283.8,228v8.7c0,3.9,0.1,6.1,0.2,6.7c0.1,0.6,0.6,1.1,1.3,1.5c0.7,0.3,1.1,0.6,1.3,0.8c0.2,0.3,0.3,0.6,0.3,1.1
			c0,0.6-0.2,1.1-0.6,1.6c-0.4,0.5-1,0.8-1.7,1c-1.3,0.4-3.5,0.6-6.6,0.6c-3.5,0-5.9-0.3-7.4-0.8c-0.7-0.2-1.2-0.6-1.6-1.1
			c-0.4-0.5-0.6-1-0.6-1.6c0-0.4,0.1-0.8,0.3-1c0.2-0.2,0.7-0.5,1.5-0.8c0.7-0.3,1.1-1.1,1.3-2.5c0.3-2.4,0.4-5.7,0.4-10
			c0-4.4-0.1-7.3-0.4-8.5c-0.3-1.3-0.9-2.2-1.9-2.8c-0.8-0.4-1.3-0.8-1.6-1.2c-0.3-0.4-0.4-0.9-0.4-1.4c0-0.9,0.4-1.7,1.3-2.3
			c0.9-0.7,2.2-1.3,4.1-1.8c1.2-0.4,2.9-0.7,4.9-1.1c2-0.3,3.4-0.5,4.3-0.5c1.4,0,2.1,0.9,2.1,2.7c0,0.6-0.1,1.9-0.3,4
			C284,222.3,283.8,225.3,283.8,228z"/>
		<path d="M313.7,237.4h-12.8c-0.6,0-0.8,0.2-0.8,0.7c0,1.2,0.6,2.3,1.9,3.3c1.3,1,2.6,1.6,4.1,1.6c0.9,0,1.8-0.2,2.9-0.5
			c1.1-0.3,1.9-0.7,2.6-1.2c0.6-0.4,1.1-0.7,1.5-0.7c0.5,0,0.9,0.3,1.4,0.9c0.5,0.6,0.7,1.2,0.7,1.8c0,1.3-0.8,2.6-2.4,3.8
			c-2.9,2.2-6.2,3.2-10,3.2c-3.8,0-7-1.1-9.6-3.3c-1.2-1.1-2.3-2.4-3.1-3.9c-1.1-2-1.6-4.2-1.6-6.5c0-3,0.9-5.8,2.8-8.2
			c1.6-2.1,3.6-3.7,6.1-4.7c1.8-0.8,3.8-1.2,6-1.2c3.4,0,6.4,1,8.8,2.9c1.2,1,2.2,2.1,2.9,3.5c0.9,1.5,1.3,3,1.3,4.5
			c0,1.2-0.2,2.1-0.7,2.9C315.1,237,314.5,237.4,313.7,237.4z M301.6,232.3h2.7c1.2,0,1.7-0.5,1.7-1.6c0-1-0.3-1.8-0.8-2.4
			c-0.6-0.6-1.3-0.9-2.2-0.9c-1,0-1.8,0.4-2.4,1.2c-0.5,0.7-0.8,1.5-0.8,2.3c0,0.5,0.1,0.9,0.4,1.1
			C300.5,232.2,301,232.3,301.6,232.3z"/>
		<path d="M333.8,229.6v9.2c0,1.1,0.3,2,0.8,2.7c0.5,0.7,1.2,1,2,1c0.7,0,1.6-0.3,2.8-1c0.3-0.2,0.5-0.2,0.8-0.2
			c0.4,0,0.8,0.3,1.2,0.8c0.4,0.5,0.5,1.1,0.5,1.7c0,1.1-0.6,2.2-1.8,3.2c-2.6,2.2-5.7,3.3-9.3,3.3c-2.9,0-5.2-0.8-7-2.5
			c-1.8-1.6-2.6-3.8-2.6-6.5v-12.5c0-0.4,0-0.7-0.1-0.8c-0.1-0.1-0.4-0.1-0.8-0.1h-2.8c-0.5,0-0.9-0.1-1-0.3
			c-0.1-0.2-0.2-0.6-0.2-1.2v-1.2c0-0.5,0.2-0.9,0.6-1.2l12.4-7.8c0.3-0.2,0.7-0.2,1.1-0.2h2.2c0.5,0,0.8,0.1,0.9,0.3
			c0.2,0.2,0.2,0.6,0.2,1.2v3.7c0,0.5,0.1,0.9,0.3,1.1c0.2,0.2,0.5,0.2,1.1,0.2h5c0.7,0,1.1,0.1,1.3,0.4c0.2,0.2,0.3,0.8,0.3,1.6
			v1.6c0,0.9-0.1,1.5-0.4,1.8c-0.3,0.3-0.7,0.5-1.4,0.5h-4.9c-0.5,0-0.9,0.1-1,0.3C333.9,228.8,333.8,229.1,333.8,229.6z"/>
		<path d="M354.3,222.5c0.9,0,2.4,0.2,4.4,0.6c0.4,0.1,0.8,0.1,1,0.1c0.3,0,0.9-0.2,1.8-0.5c0.4-0.2,0.8-0.2,1.1-0.2
			c0.8,0,1.7,0.5,2.5,1.6c0.7,0.9,1.2,1.8,1.7,2.8c0.4,1,0.7,1.9,0.7,2.6c0,0.7-0.3,1.3-0.8,1.8c-0.5,0.5-1.1,0.7-1.9,0.7
			c-0.6,0-1.2-0.2-1.7-0.5c-0.5-0.3-1.3-1-2.4-2c-1.2-1.1-2.1-1.7-2.9-1.7c-0.5,0-0.9,0.2-1.3,0.6c-0.4,0.4-0.6,0.8-0.6,1.3
			c0,0.9,0.9,1.7,2.6,2.5c3.1,1.4,5.4,2.9,7,4.5c1.4,1.4,2.1,3.1,2.1,5c0,2.5-1.1,4.6-3.3,6.3c-1.9,1.5-4.2,2.2-7,2.2
			c-0.7,0-2-0.1-3.9-0.4c-1.8-0.2-2.7-0.3-3-0.3c-0.2,0-0.5,0-0.8,0.1c-0.5,0.1-0.9,0.1-1.1,0.1c-0.9,0-1.5-0.2-2-0.7
			c-0.7-0.7-1.4-1.7-2.1-3.2c-0.6-1.4-1-2.7-1-3.7c0-1.7,0.7-2.5,2-2.5c0.5,0,1,0.2,1.4,0.5c0.4,0.3,1.3,1.2,2.7,2.7
			c0.7,0.8,1.4,1.3,1.8,1.6c0.5,0.3,1,0.4,1.6,0.4c0.6,0,1.1-0.2,1.4-0.5c0.4-0.3,0.5-0.7,0.5-1.3c0-0.8-0.7-1.6-2.1-2.2
			c-2.9-1.4-5-2.9-6.3-4.4c-1.3-1.5-1.9-3.3-1.9-5.3c0-2.2,0.7-4,2-5.6C348.5,223.6,351.1,222.5,354.3,222.5z"/>
	</g>
	<path d="M40.1,136.7l-6.8-5.2c0,0-4.6-2.6-5.6,0c-1.1,2.6,0,3.8,0,3.8l6.9,2.9L40.1,136.7z"/>
	<path d="M48.9,174.5l-8.8,5.4l-1,6.5c0,0,4.7,3,5.7,2.4C45.9,188.1,48.9,174.5,48.9,174.5z"/>
	<polygon points="35.2,146.5 25.3,142.6 25.3,146.5 	"/>
	<path d="M36.2,171.3c-1.7,0.6-4.3-2.8-5.8-7.5c-1.5-4.6-1.3-8.8,0.3-9.5c-0.1,0-0.3-0.1-0.4-0.1l-2.3,1c0,0-0.6,0.4-0.8,1.4
		c-0.7,0-1.9-0.2-2-0.3c-0.4,0.1-19.4,8.5-19.4,8.5s-0.7,0.5-1.2,1.3c-0.9,0.6-5.5,3.6-4.3,8c0.9,2.5,3.5,4.6,8.5,4
		c0.8,0.2,1.3,0.2,1.3,0.2l16-4.1l3.7-1c0,0,1.6-0.1,2.6-1.8c0.6,0.4,1,1.1,3.9,0c0.1-0.1,0.2-0.3,0.4-0.5
		C36.4,171.2,36.3,171.3,36.2,171.3z"/>
	<ellipse transform="matrix(0.952 -0.306 0.306 0.952 -48.1961 18.1962)" cx="33.9" cy="162.8" rx="1.4" ry="3.9"/>
	<path d="M179.5,73.3l-11.7,8.5l-11.4,6.7l-15.4,18c0,0,0,0,0,0c10.5-14.4,13-29.4,13.1-32.8c-3.5-1.2-8.3-2.9-5.8-2.3
		c1.6,0.4,4.2,0.1,6.6-0.3c1.9-3.8,6.3-12.2,11.9-19.9l-4.1-3l5.6,1c1.5-2,3.1-3.8,4.7-5.5c8.6-9,3-16.4-2.3-17.5
		c-4.6-0.9-9.4,6.9-9.4,6.9s-10.2,7.5-14.3,13.7c-1.9,3-3.2,8.8-6.1,14.5c-4.2,8.4-9.9,16.8-9.9,16.8l-5.1,15.5
		c2.2-9.2,3-18.1,3.3-22.1c-3.9-0.2-8.9-1.7-6.9-1.2c1.7,0.3,4.9-1.2,7.5-2.8l7.4-26.6l0,0l-7-3.4l7.9,0.3l0.1-0.3l7.3-15.1
		c5.2-8.8,7.6-18.9-3-22c-8.2-2.4-7.7,10.1-11.6,12.5c-1,0.6-19.3,38.9-22.6,47.2c-3.3,8.3-6.5,30-6.5,30l-0.7,4c-1.1,0-2.2,0-3.1,0
		c1.2-8.7,1.7-15,2.1-20l-5.3,0.6c-0.5,0.2-1,0.3-1.5,0.2l1.5-0.2c1.7-0.6,3.9-2.7,5.6-4.5c0.5-9.2,0.6-13,4.2-20.4
		c0.8-1.6,2.3-4.6,3.9-8.3l-5.1-2.3h6c3.7-9,7.1-20.9,1.9-26.3c-10.7-11.3-9.6,4.6-15.4,9.5c-5.7,4.9-6.1,18.4-12.2,26.1
		c-6.1,7.7-6.8,21.7-6.8,21.7L73,82c0,0,2.3,6,2.6,14.2c0.4,10.4-0.7,19.5-0.7,19.5l5.5,7.4l0.3,9.9c32.4,19.4,32.3,45.4,32.3,45.4
		c-4.7-26.9-35.5-43.3-35.5-43.3c0.8-10.6-8.7-18.6-8.7-18.6c-2.7,3.6-6.3,2.8-6.3,2.8l6.3-7.4c5.2-11.5-2.5-37-5.2-42.4
		c-2.7-5.4-7.4-3.8-10.3-3c-2.9,0.7-4.7,3.6-4.7,3.6s1,7.7,1.5,12.3c0.5,4.6-2.5,12.4-4.6,18c-2.2,5.6,2.2,15.2,2.2,19.8
		c0,4.5,7.1,15.7,3.8,25.7c-3.3,10,9.6,36,18.7,50.2c2.8,4.4-1,23.1-7.7,38.5c-1,2.4-0.1,5.2,2.3,6.4c11.1,5.4,18.1,12.7,26.4,14.4
		c1.7,0.4,3.4-0.6,3.8-2.3l9.5-36.8l1,0.1l-9.6,42.9c-0.4,2.2,1.1,4.1,3.2,4.7c3.9,1.1,7.1,2,11.3,4.1c3.4,1.7,7.4,0,8-3.7
		l11.9-55.3c0.4-1.9-0.8-3.8-2.7-4.4l-6.3-1.9l4.3,0.6c2.3,0.3,4.7,0,6.7-1.1c6.3-9.6,15.8-19.1,17.5-29.6c1.9-11.2,3.6-33.9,4-41.1
		c0.4-7.3,1.6-13.2,1.5-14.6c-0.1-1.2,14.7-17.9,18.3-22c-1.9-2.5-5.6-7.5-2.7-4.8c1.4,1.3,3.2,2.3,5,3c3.2-2.2,10.8-8,12.8-12.5
		C194.2,68.2,179.5,73.3,179.5,73.3z M110.7,139.7c-3.1-6.8-3.3-13.7-1-17.9c0.4,0.2,0.8,0.4,1.1,0.6c1.2,0.7,2.3,1.5,3.4,2.5
		c1.1,1,2.1,2.1,3,3.4c0.9,1.2,1.7,2.7,2.3,4c0.6,1.5,1.2,2.9,1.5,4.4c0.4,1.5,0.6,3,0.6,4.5c0,1.5-0.1,2.9-0.3,4.2
		c-0.3,1.3-0.7,2.5-1.2,3.6c-0.1,0.3-0.3,0.5-0.4,0.8c-0.1,0.2-0.3,0.4-0.4,0.6C116.1,148.3,112.9,144.5,110.7,139.7z M131.1,130.1
		l9.7-3.1l-9.4,3.9c3.9,9.1,2.7,18.4-2.8,20.9c-2.2,1-4.8,0.8-7.4-0.5c0.2-0.2,0.3-0.4,0.5-0.6c0.2-0.3,0.4-0.5,0.6-0.8
		c0.4-0.6,0.7-1.2,1.1-1.9c0.2-0.3,0.3-0.7,0.4-1c0.1-0.4,0.3-0.7,0.4-1.1c0.5-1.5,0.8-3.1,0.8-4.9c0.1-1.7-0.1-3.5-0.4-5.2
		c-0.1-0.4-0.2-0.9-0.3-1.3c-0.1-0.5-0.3-0.9-0.4-1.4c-0.1-0.2-0.1-0.5-0.2-0.7l-0.2-0.6l-0.4-1.1l-0.1-0.2l0-0.1l-0.1-0.2l-0.2-0.3
		l-0.3-0.6c-0.2-0.4-0.4-0.8-0.7-1.2c-0.5-0.8-1-1.5-1.5-2.2c-1.1-1.4-2.3-2.7-3.7-3.8c-1.3-1.1-2.8-1.9-4.2-2.5
		c-0.3-0.1-0.6-0.2-0.9-0.4c0.6-0.5,1.2-1,1.9-1.3c4.7-2.1,11,1.2,15.4,7.7l14-4.4l-13.3,5.6C130,128.1,130.6,129.1,131.1,130.1z"/>
</g>
</svg>
