<svg xmlns="http://www.w3.org/2000/svg" viewBox="0 0 367.6 268.8"><path d="M197.4 145.6l-3.3 7.3c-.6 1.2-1 2.1-1.4 2.5-.3.4-.7.6-1.1.6-.4 0-.8-.2-1.1-.5-.2-.2-.7-1-1.4-2.4s-1.3-2.6-1.8-3.7l-3.6-8.1c-.5-1.1-1-1.7-1.5-1.7-.6 0-.9.5-1 1.4-.1 2.1-.2 4.1-.2 5.9 0 1.9.1 3.2.3 3.8.1.4.3.7.5.9.2.2.8.5 1.7 1 .6.3.9.8.9 1.6 0 2-2.6 3-7.8 3-4.4 0-6.6-1-6.6-3 0-.5.1-.9.3-1.1.2-.2.8-.6 1.8-1 .6-.3 1-.6 1.2-1.1.2-.5.4-1.4.5-2.7.2-1.4.3-3.8.5-7.1.1-3.3.2-6.1.2-8.5 0-2.9-.2-4.9-.7-6-.2-.4-.3-.6-.6-.8-.2-.2-.6-.4-1.2-.7-1.3-.6-1.9-1.4-1.9-2.4 0-.6.2-1.2.7-1.7.5-.5 1.1-.9 1.9-1.1.8-.2 1.9-.4 3.2-.6 1.3-.2 2.5-.3 3.4-.3 2.3 0 4 .2 4.9.6.5.2.8.4 1.1.7.3.3.7.9 1.2 1.9l5.6 10.4c.6 1.1 1 1.8 1.3 2.1.2.3.6.4 1 .4s.7-.1 1-.4c.3-.3.6-.8 1-1.5l3.8-7.5c.5-1 .8-1.6.9-1.9.9-1.8 1.8-3 2.6-3.6 1.1-.8 3.1-1.2 6-1.2 5.1 0 7.7 1.2 7.7 3.5 0 .5-.1.9-.3 1.3-.2.3-.6.7-1.2 1.2-.8.6-1.4 1.5-1.6 2.7-.4 2.5-.6 5.5-.6 9.1 0 4.6.2 8.7.7 12.1.1.9.3 1.4.5 1.7.2.3.8.8 1.8 1.4.7.4 1 1 1 1.7 0 1.3-.8 2.2-2.5 2.7-.9.3-1.8.5-2.7.6-1 .1-2.4.1-4.4.1-3.1 0-5.3-.2-6.8-.7-1.7-.5-2.5-1.3-2.5-2.5 0-.4.1-.8.3-1.1.2-.3.8-.8 1.7-1.5.5-.4.8-1.1 1-2.2.2-1.1.3-2.9.3-5.5 0-1.4-.1-2.4-.2-2.9s-.4-.7-.9-.7-1 .3-1.5 1c-.5 1.1-1.2 2.4-2.1 4.5zm37-14.2v14.7c0 3.1 1 4.7 3.1 4.7.5 0 1-.1 1.5-.4.5-.3.9-.7 1.1-1.1.4-.9.6-2.8.6-5.8s-.1-5-.3-6.1c-.1-.5-.2-.8-.4-1-.2-.2-.5-.4-1-.7-1-.5-1.5-1.2-1.5-2.1 0-1.1.9-1.9 2.7-2.3 3.4-.8 6.7-1.2 10-1.2 1.8 0 2.7 1 2.7 2.9v1.2c0 .9-.1 1.9-.1 3.2v12c0 .6.5 1.2 1.6 1.7.9.4 1.3 1.1 1.3 1.9 0 1.6-1.9 2.9-5.8 3.8-2.3.5-4.5.8-6.6.8-.9 0-1.5-.1-1.8-.3-.3-.2-.5-.6-.6-1.2-.1-1.1-.4-1.7-1-1.7-.2 0-.4.1-.6.1-.2.1-.7.5-1.7 1.1-1.8 1.2-3.8 1.9-5.9 1.9-3.5 0-5.9-1-7.4-3-1.2-1.7-1.8-4.5-1.8-8.5v-5c0-1.6-.1-2.7-.4-3.4-.3-.7-.8-1.3-1.5-1.7-.7-.4-1.2-.7-1.3-.9-.2-.2-.3-.5-.3-.9 0-1.4 1-2.3 3.1-2.7 3.5-.8 7.1-1.2 10.6-1.2 1.2-.2 1.7.3 1.7 1.2zm33.7-1.6c.9 0 2.4.2 4.4.6.4.1.8.1 1 .1.3 0 .9-.2 1.8-.5.4-.2.8-.2 1.1-.2.8 0 1.7.5 2.5 1.6.7.9 1.2 1.8 1.7 2.8.4 1 .7 1.9.7 2.6 0 .7-.3 1.3-.8 1.8s-1.1.7-1.9.7c-.6 0-1.2-.2-1.7-.5s-1.3-1-2.4-2c-1.2-1.1-2.1-1.7-2.9-1.7-.5 0-.9.2-1.3.6-.4.4-.6.8-.6 1.3 0 .9.9 1.7 2.6 2.5 3.1 1.4 5.4 2.9 7 4.5 1.4 1.4 2.1 3.1 2.1 5 0 2.5-1.1 4.6-3.3 6.3-1.9 1.5-4.2 2.2-7 2.2-.7 0-2-.1-3.9-.4-1.8-.2-2.7-.3-3-.3-.2 0-.5 0-.8.1-.5.1-.9.1-1.1.1-.9 0-1.5-.2-2-.7-.7-.7-1.4-1.7-2.1-3.2-.6-1.4-1-2.7-1-3.7 0-1.7.7-2.5 2-2.5.5 0 1 .2 1.4.5.4.3 1.3 1.2 2.7 2.7.7.8 1.4 1.3 1.8 1.6.5.3 1 .4 1.6.4.6 0 1.1-.2 1.4-.5.4-.3.5-.7.5-1.3 0-.8-.7-1.6-2.1-2.2-2.9-1.4-5-2.9-6.3-4.4-1.3-1.5-1.9-3.3-1.9-5.3 0-2.2.7-4 2-5.6 2-1.9 4.5-3 7.8-3zm30.7 1.9v15.8c0 1.2.1 2.2.3 2.7.2.6.7 1.1 1.4 1.6.6.4.9.7 1.1 1 .2.3.3.6.3 1.1 0 2.3-3 3.5-8.9 3.5-3.2 0-5.7-.3-7.6-.8-.6-.2-1.1-.5-1.5-1s-.6-1-.6-1.5.1-.9.3-1.1c.2-.3.7-.7 1.5-1.3.6-.4 1-1.1 1.2-2 .2-.9.4-2.3.4-4.2 0-.6 0-1.7-.1-3.4-.1-1.6-.1-2.6-.2-2.9-.1-.7-.6-1.3-1.5-1.7-1.1-.5-1.7-1.2-1.7-2.2 0-1.1.7-2 2.2-2.6 2-.8 4.2-1.4 6.5-2 2.3-.5 4.1-.8 5.4-.8 1 .1 1.5.7 1.5 1.8zm-5.3-11.9c1.6 0 2.8.3 3.7.9.9.6 1.4 1.4 1.4 2.4 0 1.4-.7 2.5-2.1 3.3-2.2 1.3-4.9 1.9-8 1.9-1.3 0-2.4-.3-3.1-.8-1.1-.7-1.6-1.6-1.6-2.7 0-1.6 1.1-2.8 3.3-3.7 2.3-.8 4.4-1.3 6.4-1.3zm25.5 10c3.2 0 6.1.8 8.5 2.4 2.3 1.5 3.5 3.4 3.5 5.7 0 1.6-.5 2.9-1.6 3.8-1 .9-2.2 1.4-3.7 1.4s-2.6-.5-3.4-1.6c-.2-.3-.6-1.2-1-2.6-.5-1.5-1.4-2.3-2.8-2.3-1 0-1.8.4-2.5 1.3s-1 1.9-1 3.2c0 2.2.8 4.1 2.3 5.8 1.3 1.4 2.9 2 4.8 2 .9 0 1.7-.1 2.3-.2.6-.2 1.4-.5 2.4-.9.3-.1.5-.2.8-.2.6 0 1.2.3 1.6.9.5.6.7 1.3.7 2 0 .8-.3 1.7-1 2.6-.7.9-1.5 1.7-2.6 2.3-2.4 1.4-5.1 2.2-8.3 2.2-3.7 0-6.9-1.1-9.5-3.3-3.4-2.8-5-6.3-5-10.5 0-4.1 1.6-7.5 4.7-10.2 2.9-2.5 6.6-3.8 10.8-3.8zm-133.8 73.4h-3.6c-2.6 0-4.4.1-5.6.2-1.1.1-1.8.1-2.3.1-1.1 0-2-.3-2.6-.8-.6-.6-1-1.2-1-2 0-.5.1-.9.4-1.2.2-.3.8-.7 1.7-1.4.5-.4.9-.9 1.1-1.7.2-.8.4-2.4.7-5 .3-3.9.5-8.8.5-14.6 0-2.1-.1-3.5-.4-4.2-.3-.7-.9-1.3-2-1.7-1.2-.5-1.8-1.2-1.8-2.2 0-.8.4-1.4 1.1-2 .7-.5 1.6-.8 2.8-.8.6 0 1.4 0 2.4.1 1.6.1 3.3.1 5.2.1 1.4 0 4-.1 8-.2 1.2 0 2.4-.1 3.4-.1 2.4 0 4.3.2 5.8.6 1.5.4 2.8 1 3.8 2 1.8 1.5 2.7 3.5 2.7 6 0 1.2-.3 2.5-.8 3.7-.5 1.2-1.2 2.1-2.1 2.8-.6.5-1 1-1 1.4 0 .5.4.8 1.1 1.1 1.5.6 2.8 1.6 4 3 1.2 1.5 1.9 3.3 1.9 5.5 0 2.6-1 5-2.9 7.1-2.5 2.8-6.2 4.3-11.2 4.3-.7 0-2.3 0-4.9-.1h-4.4zm1.9-29.5v5.6c0 .9.1 1.5.3 1.9.2.4.6.5 1.2.5 1.3 0 2.3-.4 3-1.2.6-.8 1-2.1 1-3.9 0-1.7-.3-3-1-3.9-.7-.9-1.6-1.4-2.8-1.4-.6 0-1.1.2-1.3.5-.3.4-.4 1-.4 1.9zm0 15.7v2.6c0 2.4.2 3.9.5 4.7.3.8 1 1.2 2.1 1.2 2.8 0 4.1-1.6 4.1-4.8 0-4-1.5-6-4.6-6-.8 0-1.3.2-1.7.5-.3.2-.4.8-.4 1.8zm48.3 1.6h-12.8c-.6 0-.8.2-.8.7 0 1.2.6 2.3 1.9 3.3 1.3 1 2.6 1.6 4.1 1.6.9 0 1.8-.2 2.9-.5 1.1-.3 1.9-.7 2.6-1.2.6-.4 1.1-.7 1.5-.7.5 0 .9.3 1.4.9s.7 1.2.7 1.8c0 1.3-.8 2.6-2.4 3.8-2.9 2.2-6.2 3.2-10 3.2s-7-1.1-9.6-3.3c-1.2-1.1-2.3-2.4-3.1-3.9-1.1-2-1.6-4.2-1.6-6.5 0-3 .9-5.8 2.8-8.2 1.6-2.1 3.6-3.7 6.1-4.7 1.8-.8 3.8-1.2 6-1.2 3.4 0 6.4 1 8.8 2.9 1.2 1 2.2 2.1 2.9 3.5.9 1.5 1.3 3 1.3 4.5 0 1.2-.2 2.1-.7 2.9-.6.8-1.2 1.1-2 1.1zm-12.1-5h2.7c1.2 0 1.7-.5 1.7-1.6 0-1-.3-1.8-.8-2.4-.6-.6-1.3-.9-2.2-.9-1 0-1.8.4-2.4 1.2-.5.7-.8 1.5-.8 2.3 0 .5.1.9.4 1.1.3.2.8.3 1.4.3zm32-9.9c3.1 0 5.8.8 8 2.4 1.2.9 2 1.8 2.4 2.9.5 1.1.7 2.6.7 4.5l-.1 4c0 2.8.2 4.6.6 5.5.2.4.4.7.6.8.2.1.6.2 1.1.3.6.1.9.5.9 1.1 0 .9-.3 1.8-1 2.7-.7.9-1.6 1.7-2.7 2.4-1.4.8-2.8 1.2-4.3 1.2-1.9 0-3.4-.7-4.5-2-.4-.5-.7-.7-1.1-.7-.4 0-.8.2-1.4.7-1.8 1.3-3.9 2-6.2 2-2.4 0-4.3-.5-5.8-1.5-1-.7-1.7-1.5-2.3-2.6-.6-1.1-.8-2.2-.8-3.4 0-1.9.8-3.5 2.3-5 2.4-2.3 5.9-3.4 10.6-3.4 1 0 1.7-.1 2-.3.3-.2.4-.7.4-1.5 0-1.9-.2-3.3-.6-4.2-.4-.9-1-1.3-2-1.3-.5 0-1 .2-1.5.5-.4.3-1 .9-1.6 1.8-1.6 2.3-3.3 3.4-5 3.4-.9 0-1.6-.3-2.2-.8-.6-.5-.8-1.2-.8-2.1 0-.9.3-1.7 1-2.6.7-.9 1.6-1.6 2.8-2.3 3.5-1.6 6.9-2.5 10.5-2.5zm-1.8 15.8c-.8 0-1.5.3-2.1 1-.6.7-.9 1.4-.9 2.3 0 .9.2 1.6.6 2.1.4.5 1 .8 1.7.8 1.4 0 2.2-1.2 2.2-3.7 0-1-.1-1.7-.3-2-.3-.4-.7-.5-1.2-.5zm33.9-8.6v9.2c0 1.1.3 2 .8 2.7.5.7 1.2 1 2 1 .7 0 1.6-.3 2.8-1 .3-.2.5-.2.8-.2.4 0 .8.3 1.2.8.4.5.5 1.1.5 1.7 0 1.1-.6 2.2-1.8 3.2-2.6 2.2-5.7 3.3-9.3 3.3-2.9 0-5.2-.8-7-2.5-1.8-1.6-2.6-3.8-2.6-6.5v-12.5c0-.4 0-.7-.1-.8-.1-.1-.4-.1-.8-.1h-2.8c-.5 0-.9-.1-1-.3-.1-.2-.2-.6-.2-1.2v-1.2c0-.5.2-.9.6-1.2l12.4-7.8c.3-.2.7-.2 1.1-.2h2.2c.5 0 .8.1.9.3.2.2.2.6.2 1.2v3.7c0 .5.1.9.3 1.1.2.2.5.2 1.1.2h5c.7 0 1.1.1 1.3.4.2.2.3.8.3 1.6v1.6c0 .9-.1 1.5-.4 1.8-.3.3-.7.5-1.4.5h-4.9c-.5 0-.9.1-1 .3-.1 0-.2.4-.2.9zm20.5-7.1c.9 0 2.4.2 4.4.6.4.1.8.1 1 .1.3 0 .9-.2 1.8-.5.4-.2.8-.2 1.1-.2.8 0 1.7.5 2.5 1.6.7.9 1.2 1.8 1.7 2.8.4 1 .7 1.9.7 2.6 0 .7-.3 1.3-.8 1.8s-1.1.7-1.9.7c-.6 0-1.2-.2-1.7-.5s-1.3-1-2.4-2c-1.2-1.1-2.1-1.7-2.9-1.7-.5 0-.9.2-1.3.6-.4.4-.6.8-.6 1.3 0 .9.9 1.7 2.6 2.5 3.1 1.4 5.4 2.9 7 4.5 1.4 1.4 2.1 3.1 2.1 5 0 2.5-1.1 4.6-3.3 6.3-1.9 1.5-4.2 2.2-7 2.2-.7 0-2-.1-3.9-.4-1.8-.2-2.7-.3-3-.3-.2 0-.5 0-.8.1-.5.1-.9.1-1.1.1-.9 0-1.5-.2-2-.7-.7-.7-1.4-1.7-2.1-3.2-.6-1.4-1-2.7-1-3.7 0-1.7.7-2.5 2-2.5.5 0 1 .2 1.4.5.4.3 1.3 1.2 2.7 2.7.7.8 1.4 1.3 1.8 1.6.5.3 1 .4 1.6.4.6 0 1.1-.2 1.4-.5.4-.3.5-.7.5-1.3 0-.8-.7-1.6-2.1-2.2-2.9-1.4-5-2.9-6.3-4.4-1.3-1.5-1.9-3.3-1.9-5.3 0-2.2.7-4 2-5.6 2-1.9 4.5-3 7.8-3zm-122.7 73.3h-3.6c-2.6 0-4.4.1-5.6.2-1.1.1-1.8.1-2.3.1-1.1 0-2-.3-2.6-.8-.6-.6-1-1.2-1-2 0-.5.1-.9.4-1.2.2-.3.8-.7 1.7-1.4.5-.4.9-.9 1.1-1.7.2-.8.4-2.4.7-5 .3-3.9.5-8.8.5-14.6 0-2.1-.1-3.5-.4-4.2-.3-.7-.9-1.3-2-1.7-1.2-.5-1.8-1.2-1.8-2.2 0-.8.4-1.4 1.1-2 .7-.5 1.6-.8 2.8-.8.6 0 1.4 0 2.4.1 1.6.1 3.3.1 5.2.1 1.4 0 4-.1 8-.2 1.2 0 2.4-.1 3.4-.1 2.4 0 4.3.2 5.8.6 1.5.4 2.8 1 3.8 2 1.8 1.5 2.7 3.5 2.7 6 0 1.2-.3 2.5-.8 3.7-.5 1.2-1.2 2.1-2.1 2.8-.6.5-1 1-1 1.4 0 .5.4.8 1.1 1.1 1.5.6 2.8 1.6 4 3 1.2 1.5 1.9 3.3 1.9 5.5 0 2.6-1 5-2.9 7.1-2.5 2.8-6.2 4.3-11.2 4.3-.7 0-2.3 0-4.9-.1-2.4.1-3.9 0-4.4 0zm1.9-29.5v5.6c0 .9.1 1.5.3 1.9.2.4.6.5 1.2.5 1.3 0 2.3-.4 3-1.2.6-.8 1-2.1 1-3.9 0-1.7-.3-3-1-3.9-.7-.9-1.6-1.4-2.8-1.4-.6 0-1.1.2-1.3.5-.3.4-.4 1-.4 1.9zm0 15.7v2.6c0 2.4.2 3.9.5 4.7.3.8 1 1.2 2.1 1.2 2.8 0 4.1-1.6 4.1-4.8 0-4-1.5-6-4.6-6-.8 0-1.3.2-1.7.5-.3.3-.4.9-.4 1.8zm38.1-11.7v14.7c0 3.1 1 4.7 3.1 4.7.5 0 1-.1 1.5-.4.5-.3.9-.7 1.1-1.1.4-.9.6-2.8.6-5.8s-.1-5-.3-6.1c-.1-.5-.2-.8-.4-1-.2-.2-.5-.4-1-.7-1-.5-1.5-1.2-1.5-2.1 0-1.1.9-1.9 2.7-2.3 3.4-.8 6.7-1.2 10-1.2 1.8 0 2.7 1 2.7 2.9v1.2c0 .9-.1 1.9-.1 3.2v12c0 .6.5 1.2 1.6 1.7.9.4 1.3 1.1 1.3 1.9 0 1.6-1.9 2.9-5.8 3.8-2.3.5-4.5.8-6.6.8-.9 0-1.5-.1-1.8-.3-.3-.2-.5-.6-.6-1.2-.1-1.1-.4-1.7-1-1.7-.2 0-.4.1-.6.1-.2.1-.7.5-1.7 1.1-1.8 1.2-3.8 1.9-5.9 1.9-3.5 0-5.9-1-7.4-3-1.2-1.7-1.8-4.5-1.8-8.5v-5c0-1.6-.1-2.7-.4-3.4-.3-.7-.8-1.3-1.5-1.7-.7-.4-1.2-.7-1.3-.9-.2-.2-.3-.5-.3-.9 0-1.4 1-2.3 3.1-2.7 3.5-.8 7.1-1.2 10.6-1.2 1.2-.1 1.7.3 1.7 1.2zm38.3 4v8.7c0 3.9.1 6.1.2 6.7.1.6.6 1.1 1.3 1.5.7.3 1.1.6 1.3.8.2.3.3.6.3 1.1 0 .6-.2 1.1-.6 1.6-.4.5-1 .8-1.7 1-1.3.4-3.5.6-6.6.6-3.5 0-5.9-.3-7.4-.8-.7-.2-1.2-.6-1.6-1.1-.4-.5-.6-1-.6-1.6 0-.4.1-.8.3-1 .2-.2.7-.5 1.5-.8.7-.3 1.1-1.1 1.3-2.5.3-2.4.4-5.7.4-10 0-4.4-.1-7.3-.4-8.5-.3-1.3-.9-2.2-1.9-2.8-.8-.4-1.3-.8-1.6-1.2-.3-.4-.4-.9-.4-1.4 0-.9.4-1.7 1.3-2.3.9-.7 2.2-1.3 4.1-1.8 1.2-.4 2.9-.7 4.9-1.1 2-.3 3.4-.5 4.3-.5 1.4 0 2.1.9 2.1 2.7 0 .6-.1 1.9-.3 4 0 3-.2 6-.2 8.7zm20.3 0v8.7c0 3.9.1 6.1.2 6.7.1.6.6 1.1 1.3 1.5.7.3 1.1.6 1.3.8.2.3.3.6.3 1.1 0 .6-.2 1.1-.6 1.6-.4.5-1 .8-1.7 1-1.3.4-3.5.6-6.6.6-3.5 0-5.9-.3-7.4-.8-.7-.2-1.2-.6-1.6-1.1-.4-.5-.6-1-.6-1.6 0-.4.1-.8.3-1 .2-.2.7-.5 1.5-.8.7-.3 1.1-1.1 1.3-2.5.3-2.4.4-5.7.4-10 0-4.4-.1-7.3-.4-8.5-.3-1.3-.9-2.2-1.9-2.8-.8-.4-1.3-.8-1.6-1.2-.3-.4-.4-.9-.4-1.4 0-.9.4-1.7 1.3-2.3.9-.7 2.2-1.3 4.1-1.8 1.2-.4 2.9-.7 4.9-1.1 2-.3 3.4-.5 4.3-.5 1.4 0 2.1.9 2.1 2.7 0 .6-.1 1.9-.3 4 0 3-.2 6-.2 8.7zm29.9 9.4h-12.8c-.6 0-.8.2-.8.7 0 1.2.6 2.3 1.9 3.3 1.3 1 2.6 1.6 4.1 1.6.9 0 1.8-.2 2.9-.5 1.1-.3 1.9-.7 2.6-1.2.6-.4 1.1-.7 1.5-.7.5 0 .9.3 1.4.9.5.6.7 1.2.7 1.8 0 1.3-.8 2.6-2.4 3.8-2.9 2.2-6.2 3.2-10 3.2s-7-1.1-9.6-3.3c-1.2-1.1-2.3-2.4-3.1-3.9-1.1-2-1.6-4.2-1.6-6.5 0-3 .9-5.8 2.8-8.2 1.6-2.1 3.6-3.7 6.1-4.7 1.8-.8 3.8-1.2 6-1.2 3.4 0 6.4 1 8.8 2.9 1.2 1 2.2 2.1 2.9 3.5.9 1.5 1.3 3 1.3 4.5 0 1.2-.2 2.1-.7 2.9-.6.7-1.2 1.1-2 1.1zm-12.1-5.1h2.7c1.2 0 1.7-.5 1.7-1.6 0-1-.3-1.8-.8-2.4-.6-.6-1.3-.9-2.2-.9-1 0-1.8.4-2.4 1.2-.5.7-.8 1.5-.8 2.3 0 .5.1.9.4 1.1.3.2.8.3 1.4.3zm32.2-2.7v9.2c0 1.1.3 2 .8 2.7.5.7 1.2 1 2 1 .7 0 1.6-.3 2.8-1 .3-.2.5-.2.8-.2.4 0 .8.3 1.2.8.4.5.5 1.1.5 1.7 0 1.1-.6 2.2-1.8 3.2-2.6 2.2-5.7 3.3-9.3 3.3-2.9 0-5.2-.8-7-2.5-1.8-1.6-2.6-3.8-2.6-6.5v-12.5c0-.4 0-.7-.1-.8-.1-.1-.4-.1-.8-.1h-2.8c-.5 0-.9-.1-1-.3-.1-.2-.2-.6-.2-1.2v-1.2c0-.5.2-.9.6-1.2l12.4-7.8c.3-.2.7-.2 1.1-.2h2.2c.5 0 .8.1.9.3.2.2.2.6.2 1.2v3.7c0 .5.1.9.3 1.1.2.2.5.2 1.1.2h5c.7 0 1.1.1 1.3.4.2.2.3.8.3 1.6v1.6c0 .9-.1 1.5-.4 1.8-.3.3-.7.5-1.4.5H335c-.5 0-.9.1-1 .3-.1.1-.2.4-.2.9zm20.5-7.1c.9 0 2.4.2 4.4.6.4.1.8.1 1 .1.3 0 .9-.2 1.8-.5.4-.2.8-.2 1.1-.2.8 0 1.7.5 2.5 1.6.7.9 1.2 1.8 1.7 2.8.4 1 .7 1.9.7 2.6 0 .7-.3 1.3-.8 1.8s-1.1.7-1.9.7c-.6 0-1.2-.2-1.7-.5s-1.3-1-2.4-2c-1.2-1.1-2.1-1.7-2.9-1.7-.5 0-.9.2-1.3.6-.4.4-.6.8-.6 1.3 0 .9.9 1.7 2.6 2.5 3.1 1.4 5.4 2.9 7 4.5 1.4 1.4 2.1 3.1 2.1 5 0 2.5-1.1 4.6-3.3 6.3-1.9 1.5-4.2 2.2-7 2.2-.7 0-2-.1-3.9-.4-1.8-.2-2.7-.3-3-.3-.2 0-.5 0-.8.1-.5.1-.9.1-1.1.1-.9 0-1.5-.2-2-.7-.7-.7-1.4-1.7-2.1-3.2-.6-1.4-1-2.7-1-3.7 0-1.7.7-2.5 2-2.5.5 0 1 .2 1.4.5.4.3 1.3 1.2 2.7 2.7.7.8 1.4 1.3 1.8 1.6.5.3 1 .4 1.6.4.6 0 1.1-.2 1.4-.5.4-.3.5-.7.5-1.3 0-.8-.7-1.6-2.1-2.2-2.9-1.4-5-2.9-6.3-4.4-1.3-1.5-1.9-3.3-1.9-5.3 0-2.2.7-4 2-5.6 2-1.9 4.6-3 7.8-3zM40.1 136.7l-6.8-5.2s-4.6-2.6-5.6 0c-1.1 2.6 0 3.8 0 3.8l6.9 2.9 5.5-1.5zm8.8 37.8l-8.8 5.4-1 6.5s4.7 3 5.7 2.4c1.1-.7 4.1-14.3 4.1-14.3zm-13.7-28l-9.9-3.9v3.9zm1 24.8c-1.7.6-4.3-2.8-5.8-7.5-1.5-4.6-1.3-8.8.3-9.5-.1 0-.3-.1-.4-.1l-2.3 1s-.6.4-.8 1.4c-.7 0-1.9-.2-2-.3-.4.1-19.4 8.5-19.4 8.5s-.7.5-1.2 1.3c-.9.6-5.5 3.6-4.3 8 .9 2.5 3.5 4.6 8.5 4 .8.2 1.3.2 1.3.2l16-4.1 3.7-1s1.6-.1 2.6-1.8c.6.4 1 1.1 3.9 0 .1-.1.2-.3.4-.5-.3.3-.4.4-.5.4z"/><ellipse transform="rotate(-17.82 33.924 162.825)" cx="33.9" cy="162.8" rx="1.4" ry="3.9"/><path d="M179.5 73.3l-11.7 8.5-11.4 6.7-15.4 18c10.5-14.4 13-29.4 13.1-32.8-3.5-1.2-8.3-2.9-5.8-2.3 1.6.4 4.2.1 6.6-.3 1.9-3.8 6.3-12.2 11.9-19.9l-4.1-3 5.6 1c1.5-2 3.1-3.8 4.7-5.5 8.6-9 3-16.4-2.3-17.5-4.6-.9-9.4 6.9-9.4 6.9s-10.2 7.5-14.3 13.7c-1.9 3-3.2 8.8-6.1 14.5-4.2 8.4-9.9 16.8-9.9 16.8l-5.1 15.5c2.2-9.2 3-18.1 3.3-22.1-3.9-.2-8.9-1.7-6.9-1.2 1.7.3 4.9-1.2 7.5-2.8l7.4-26.6-7-3.4 7.9.3.1-.3 7.3-15.1c5.2-8.8 7.6-18.9-3-22-8.2-2.4-7.7 10.1-11.6 12.5-1 .6-19.3 38.9-22.6 47.2-3.3 8.3-6.5 30-6.5 30l-.7 4H98c1.2-8.7 1.7-15 2.1-20l-5.3.6c-.5.2-1 .3-1.5.2l1.5-.2c1.7-.6 3.9-2.7 5.6-4.5.5-9.2.6-13 4.2-20.4.8-1.6 2.3-4.6 3.9-8.3l-5.1-2.3h6c3.7-9 7.1-20.9 1.9-26.3-10.7-11.3-9.6 4.6-15.4 9.5-5.7 4.9-6.1 18.4-12.2 26.1-6.1 7.7-6.8 21.7-6.8 21.7L73 82s2.3 6 2.6 14.2c.4 10.4-.7 19.5-.7 19.5l5.5 7.4.3 9.9c32.4 19.4 32.3 45.4 32.3 45.4-4.7-26.9-35.5-43.3-35.5-43.3.8-10.6-8.7-18.6-8.7-18.6-2.7 3.6-6.3 2.8-6.3 2.8l6.3-7.4c5.2-11.5-2.5-37-5.2-42.4-2.7-5.4-7.4-3.8-10.3-3-2.9.7-4.7 3.6-4.7 3.6s1 7.7 1.5 12.3c.5 4.6-2.5 12.4-4.6 18-2.2 5.6 2.2 15.2 2.2 19.8 0 4.5 7.1 15.7 3.8 25.7s9.6 36 18.7 50.2c2.8 4.4-1 23.1-7.7 38.5-1 2.4-.1 5.2 2.3 6.4 11.1 5.4 18.1 12.7 26.4 14.4 1.7.4 3.4-.6 3.8-2.3l9.5-36.8 1 .1-9.6 42.9c-.4 2.2 1.1 4.1 3.2 4.7 3.9 1.1 7.1 2 11.3 4.1 3.4 1.7 7.4 0 8-3.7l11.9-55.3c.4-1.9-.8-3.8-2.7-4.4l-6.3-1.9 4.3.6c2.3.3 4.7 0 6.7-1.1 6.3-9.6 15.8-19.1 17.5-29.6 1.9-11.2 3.6-33.9 4-41.1.4-7.3 1.6-13.2 1.5-14.6-.1-1.2 14.7-17.9 18.3-22-1.9-2.5-5.6-7.5-2.7-4.8 1.4 1.3 3.2 2.3 5 3 3.2-2.2 10.8-8 12.8-12.5 5.5-12.5-9.2-7.4-9.2-7.4zm-68.8 66.4c-3.1-6.8-3.3-13.7-1-17.9.4.2.8.4 1.1.6 1.2.7 2.3 1.5 3.4 2.5s2.1 2.1 3 3.4c.9 1.2 1.7 2.7 2.3 4 .6 1.5 1.2 2.9 1.5 4.4.4 1.5.6 3 .6 4.5s-.1 2.9-.3 4.2c-.3 1.3-.7 2.5-1.2 3.6-.1.3-.3.5-.4.8-.1.2-.3.4-.4.6-3.2-2.1-6.4-5.9-8.6-10.7zm20.4-9.6l9.7-3.1-9.4 3.9c3.9 9.1 2.7 18.4-2.8 20.9-2.2 1-4.8.8-7.4-.5.2-.2.3-.4.5-.6.2-.3.4-.5.6-.8.4-.6.7-1.2 1.1-1.9.2-.3.3-.7.4-1 .1-.4.3-.7.4-1.1.5-1.5.8-3.1.8-4.9.1-1.7-.1-3.5-.4-5.2-.1-.4-.2-.9-.3-1.3-.1-.5-.3-.9-.4-1.4-.1-.2-.1-.5-.2-.7l-.2-.6-.4-1.1-.1-.2v-.1l-.1-.2-.2-.3-.3-.6c-.2-.4-.4-.8-.7-1.2-.5-.8-1-1.5-1.5-2.2-1.1-1.4-2.3-2.7-3.7-3.8-1.3-1.1-2.8-1.9-4.2-2.5-.3-.1-.6-.2-.9-.4.6-.5 1.2-1 1.9-1.3 4.7-2.1 11 1.2 15.4 7.7l14-4.4-13.3 5.6c.6 1.3 1.2 2.3 1.7 3.3z"/></svg>