<?xml version="1.0" encoding="utf-8"?>
<!-- Generator: Adobe Illustrator 20.1.0, SVG Export Plug-In . SVG Version: 6.00 Build 0)  -->
<svg version="1.1" id="Layer_1" xmlns="http://www.w3.org/2000/svg" xmlns:xlink="http://www.w3.org/1999/xlink" x="0px" y="0px"
	 viewBox="0 0 500.2 315" style="enable-background:new 0 0 500.2 315;" xml:space="preserve">
<style type="text/css">
	.st0{fill:#0000FF;}
</style>
<g>
	<path class="st0" d="M114.3,167.6c-0.7,0-0.8,0.5-1,0.8c-0.8,1.4-1.6,2.7-2.4,4.1c-3.7,6.1-7.5,12.2-12.1,17.7
		c-5.8,7-11.9,13.6-19.4,18.9c-7,4.9-14.6,8.1-23,9.7c-7.1,1.3-13.9,0.5-20.5-2.3c-4.9-2-8.8-5.4-11.6-9.8c-3.7-5.8-6.4-12-7.8-18.8
		c-1.8-8.5-2-17.1-1.2-25.8c0.4-4.3,0.7-8.6,1.3-12.9c0.4-2.8,0.7-5.6,1.6-8.3c0.2-0.4,0.4-0.9,0.6-1.2c0.8-0.1,1,0.4,1.2,0.8
		c0.7,1.5,0.9,3,0.8,4.6c-0.3,4.9-0.7,9.8-1.1,14.7c-0.5,6.5-0.5,13,1.3,19.3c0.9,3.2,2.2,6.3,3.8,9.2c3.4,5.9,8.4,9.5,14.8,11.4
		c8.9,2.6,17.5,1.5,25.7-2.5c3.3-1.6,6.3-3.7,9.2-6c6.5-5,12.2-10.7,17.7-16.8c2.4-2.7,4.4-5.6,6.6-8.4c4.1-5.3,7.6-11.1,11-16.9
		c2.7-4.7,5.2-9.5,7.2-14.5c0.7-1.8,1.3-3.6,1.9-5.4c0.5-1.5,0.4-2.9-0.5-4.3c-1.3-2-2.5-4.1-4.3-5.8c-0.9,0.3-1.5,1-2.2,1.6
		c-2.8,2.3-5.5,4.8-8.4,7.1c-2.4,2-5,3.6-7.9,4.7c-3.1,1.2-6.3,1.6-9.5,0.8c-2.9-0.6-5.1-2.3-6.8-4.6c-2.8-3.9-4.3-8.3-5.2-12.8
		c-1.3-6.5-1.2-12.9,0.8-19.2c0.5-1.5,1.2-2.9,1.9-4.3c1.6-3,4.4-4.2,7.6-4.3c2-0.1,4,0.2,5.9,0.7c7,1.8,13.4,4.9,19,9.5
		c0.4,0.3,0.8,0.6,1.2,0.9c2.3-1.5,9.8-11.1,10.8-15c-0.3-0.4-0.6-1-1.1-1.4c-1.7-1.6-3.5-3.1-5.3-4.6c-5.1-4.1-10.4-8-15.5-12.2
		c-3.9-3.2-7.8-6.5-11.2-10.2c-2.1-2.3-4.7-4.3-7.6-5.5c-1.8-0.8-2.5-2-2.7-3.8c-0.3-2.3-0.6-4.6-0.9-6.9c-0.3-2-0.6-3.9-0.8-5.9
		c-0.1-0.5-0.2-1-0.1-1.5c0.1-0.3,0.4-0.6,0.6-1c2.9,1.3,5.8,2.5,8.5,3.9c5.1,2.6,10.1,5.4,15.1,8.2c1.4,0.8,2.8,1.8,4.1,2.8
		c0.8,0.5,1.3,1.3,1.3,2.3c-0.7,1-1.7,0.7-2.7,0.6c-1.4-0.1-2.8-0.3-4.2-0.4c-0.4,0-0.8,0-1.2,0.1c-0.4,0.5-0.1,0.8,0.2,1.1
		c2.5,2,5,3.9,7.5,5.8c3.6,2.8,7.3,5.5,10.9,8.3c2.6,2,4.7,4.5,6.5,7.2c0.7,1.1,1.3,2.3,1.7,3.6c1.2,3.6,2.2,7.3,3,11.1
		c1.1,5.3,0.1,10.4-1.7,15.4c-0.8,2.3-1.9,4.4-3.3,6.4c-0.2,0.3-0.4,0.5-0.6,0.8c-1.9,3-1.9,3-0.7,6.4c1.3,3.8,2.3,7.7,2.9,11.6
		c0.7,4.5,1.2,9.1,0.7,13.7c-0.3,3-0.9,5.9-2,8.7c-0.7,1.7-1.3,3.4-2.1,5.1c-1.4,2.7-1.7,5.5-1.3,8.5c0.4,2.6,0.9,5.2,2.1,7.7
		c2.8,5.8,7.2,9.5,13.6,10.5c4.8,0.8,9.6,0.8,14.4-0.3c3.7-0.9,7.3-2.1,10.8-3.7c3.2-1.4,6.4-2.9,9.4-4.5c4.2-2.2,8.3-4.5,12-7.5
		c3.2-2.5,6.5-4.9,9.6-7.5c4.8-4.1,9.4-8.4,13.6-13.2c1.2-1.4,2.2-2.9,3.2-4.5c0.9-1.4,1.2-2.9,1-4.5c-0.6-4-1.4-8-3-11.8
		c-1.5-3.6-3.2-7.1-4.7-10.7c-1.4-3-2.8-6-4.7-8.8c-0.6-0.9-0.7-1.8-0.5-2.8c1.3-5.3,2.6-10.7,3.9-16c0.1-0.5,0.4-1.1,0.7-1.8
		c0.4,0.4,0.8,0.6,1,0.9c0.8,1.2,1.6,2.3,2.3,3.5c1.3,2.2,3.2,3.8,5.3,5.2c1.2,0.8,2.5,1.3,3.9,1.5c6.7,0.9,12.7-0.4,18-4.7
		c3.6-3,6.3-6.6,7.8-11.1c0.6-1.8,1.2-3.6,1.9-5.4c1.2-3.7,3.3-7.1,5.2-10.5c0.4-0.6,0.7-1.4,1.6-1.3c0.7,0.1,0.7,0.9,0.9,1.4
		c3.5,7.5,5.7,15.4,6.7,23.6c0.5,3.9,1,7.7,1.4,11.6c0.3,3.1,0.4,6.1,0.7,9.2c0.5,4.9,1.5,9.7,3.5,14.2c1.5,3.5,3.6,6.6,6,9.4
		c2.5,3,5.1,5.9,8,8.5c3.4,3,7.1,5.8,11,8.2c5.5,3.3,11.2,6.3,17.1,8.7c1.8,0.7,3.6,1.4,5.4,2c8.6,2.9,17.3,5.4,26.1,7.4
		c5.6,1.3,11.2,2.7,16.8,3.8c7.8,1.5,15.7,2.9,23.5,4.2c5.5,0.9,11,1.7,16.5,2.5c5.6,0.8,11.2,1.5,16.8,2.2c2.8,0.3,5.6,0.5,8.4,0.8
		c4.3,0.4,8.6,0.8,12.9,1.2c1.2,0.1,2.5,0.2,3.7,0.3c5.1,0.3,10.3,0.6,15.4,0.8c3.6,0.1,7.1-0.2,10.7-0.1c4,0.1,8-0.4,11.9-0.7
		c1.4-0.1,2.8-0.2,4-1c0.6-1.2,0.6-2.5,0.7-3.7c0.4-7.3-0.9-14.4-2.8-21.4c-0.3-1-0.5-1.9-0.8-2.9c-0.4-1-0.2-2,0.3-2.9
		c2.2-4,4.4-8,6.5-12.1c0.1-0.1,0.2-0.3,0.3-0.4c0.3-0.5,0.6-1.1,1.3-1.1c0.9,0,0.9,0.9,1.1,1.5c1.9,5.7,3.3,11.5,4,17.5
		c0.5,4.3,0.3,8.6-0.1,12.9c-0.6,5.8-2.8,10.9-5.5,15.9c-0.9,1.7-2,3.3-2.9,5c-1,1.8-2.3,3.2-3.6,4.7c-0.7,0.8-1.5,1.2-2.5,1.5
		c-3.7,1.2-7.6,1.9-11.4,2.4c-3.1,0.4-6.3,0.6-9.4,0.8c-6.1,0.4-12.1,0.2-18.2,0.2c-4,0-8-0.4-11.9-0.7c-2.6-0.2-5.1-0.4-7.7-0.6
		c-5.9-0.5-11.8-0.9-17.6-1.4c-7.6-0.6-15.2-1.8-22.7-2.9c-3.9-0.6-7.9-1-11.8-1.7c-6.5-1.2-13.1-2.4-19.6-3.8
		c-5.6-1.2-11.2-2.4-16.8-3.7c-6.8-1.6-13.4-3.9-20.1-5.9c-8.5-2.5-16.4-6.5-24-10.8c-3.1-1.8-6.2-3.6-9-5.8c-3-2.4-5.7-5-8.5-7.6
		c-1.3-1.2-2.3-2.6-3.6-3.8c-6-6.2-9.2-13.7-10.7-22.1c-0.7-4.2-1.3-8.4-1.6-12.6c-0.4-5.9-1-11.8-1.4-17.6c-0.3-4.5-1.5-8.8-3-13.1
		c-0.1-0.4-0.3-0.7-0.5-1c-0.7-0.1-0.9,0.4-1,0.7c-0.6,1.5-1.1,2.9-1.6,4.5c-0.6,1.8-1,3.7-1.5,5.5c-1.8,6-4.9,11.1-9.5,15.3
		c-3.2,2.9-7,4.4-11.3,4.6c-1,0.1-2-0.1-2.9,0.4c0.3,2.1,0.6,4.1,0.9,6.2c0.6,4.2,0.8,8.4,0.7,12.7c-0.1,4-0.5,8-1.3,11.9
		c-0.8,3.9-2.2,7.7-4.2,11.1c-3.6,6.2-8.5,11.4-13.6,16.5c-3.5,3.5-7.4,6.5-11.1,9.7c-5.6,4.8-11.8,8.7-18.4,11.8
		c-3,1.4-6,2.8-9.1,4c-3.6,1.4-7.4,2.5-11.3,2.7c-3.3,0.2-6.5,0.3-9.7-0.1c-2.5-0.3-4.9-0.9-7.2-1.8c-5.1-2.1-8.8-5.6-11.2-10.5
		c-2-4.1-3.2-8.4-3.5-12.9C114.7,171.7,114.5,169.7,114.3,167.6z M100.2,108.9c-3-2-8.2-3.6-11.6-3.4c-0.5,0-1,0-1.5,0.1
		c-1.8,0.3-3.1,1.1-3.7,2.9c-0.5,1.5-1,3-1.4,4.5c-0.2,0.6-0.1,1.3-0.1,2c0,0.7,0.5,1.1,1.1,1.1c0.9,0,1.8-0.1,2.7-0.3
		c4.9-1.3,9.4-3.6,13.8-6.2C99.8,109.4,100,109.2,100.2,108.9z"/>
	<path class="st0" d="M388.1,115.7c-0.5,0.4-0.8,0.6-1,0.8c-1.8,2.1-3.5,4.2-5.3,6.3c-0.8,0.9-1.5,1.8-2.3,2.6
		c-0.7,0.7-1.6,1.2-2.6,1.3c-1.2,0.2-2.1-0.1-2.8-1.1c-3.5-4.6-7.6-8.8-11-13.6c-1-1.5-1-1.8,0.2-3.2c1.8-2,3.6-3.9,5.4-5.9
		c1.3-1.5,2.6-3,3.9-4.5c0.4-0.5,1-0.8,1.6-1.4c1,1.2,1.8,2.4,2.7,3.5c1.4,1.8,2.8,3.5,4.2,5.2c1.1,1.4,2.2,2.7,3.3,4
		c0.7,0.8,1.4,1.7,2.2,2.4c0.7,0.7,1.4,0.7,2.2,0.2c0.4-0.3,0.8-0.7,1.1-1c2.6-2.6,5.3-5.3,7.9-8c0.6-0.6,1.2-1.4,2.2-1.7
		c0.9,0.5,1.5,1.4,2.1,2.1c0.9,0.9,1.6,1.9,2.5,2.7c3.2,3.1,6,6.5,8.7,9.9c0.6,0.7,0.9,1.5,1.4,2.4c-0.3,0.5-0.5,0.9-0.8,1.3
		c-2.7,3.4-5.7,6.5-8.9,9.4c-0.8,0.7-1.6,1.5-2.8,1.7c-1.6-1.6-2.8-3.6-4.4-5.3c-1.5-1.8-3-3.5-4.6-5.2
		C391.5,119,389.8,117.4,388.1,115.7z"/>
	<path class="st0" d="M258.2,167.8c4.2,5.3,9.5,9.6,13.2,15.4c-0.4,0.6-0.7,1.2-1.1,1.6c-3.6,3.6-7.3,7.1-11.2,10.3
		c-0.2,0.1-0.4,0.2-0.8,0.4c-3.2-5.2-7.9-9.1-11.9-13.8c-0.5,0.5-1,0.8-1.3,1.2c-2.8,3.6-6.3,6.6-9.4,9.9c-0.5,0.5-1.1,1-1.9,1.1
		c-2.4-1.5-9-8.3-14-14.7c0-0.8,0.5-1.3,1-1.9c3.2-3.4,6.4-6.8,9.5-10.2c0.4-0.5,0.8-1.1,1.8-1.1c1.9,2.6,4.1,5,6.4,7.4
		c2.3,2.3,4.4,4.7,7.1,6.7c1.2-1.2,2.3-2.3,3.4-3.5c2.3-2.5,4.7-5,7-7.4C256.5,168.8,257,168.1,258.2,167.8z"/>
	<path class="st0" d="M24.3,82.1c-1.8,0.9-3,1.9-3.9,3.1c-2.4,3.2-4.7,6.4-7.1,9.6c0,0.1-0.1,0.1-0.1,0.2c-2.7,3.5-4.9,7.3-6.8,11.3
		c-0.1,0.2-0.3,0.3-0.6,0.6c-0.4-0.3-0.8-0.6-1-0.9c-0.5-1-0.9-2-1.2-3c-1-3.2-1.9-6.4-2.9-9.5c-0.2-0.6-0.4-1.3-0.5-1.9
		C-0.2,90,0,88.4,1,86.9c4.5-6.6,9.4-12.9,14.6-18.9c0.9-1.1,2-1.9,3.2-2.8c0.5-0.4,1.2-0.7,1.8-0.8c1.2-0.3,1.9,0.1,2.3,1.2
		c2,5.4,4,10.7,5.8,16.2c0.8,2.3,1.3,4.6,1.3,7.1c0,1.6-0.4,3.1-1,4.6c-2.3,5.4-4.5,10.9-6.7,16.4c-0.2,0.4-0.3,0.8-0.5,1.2
		c-0.3,0.7-0.8,1.2-1.2,1c-0.6-0.2-1-0.7-1-1.3c-0.1-0.6-0.1-1.3,0-2c1-5.1,1.7-10.3,2.9-15.4c0.8-3.1,1.2-6.2,1.7-9.3
		C24.4,83.6,24.3,83.1,24.3,82.1z"/>
	<path class="st0" d="M199.3,38.4c-0.1-1.9,0.2-2.2,1.5-2.8c2.2-1.1,4.5-2.2,6.7-3.2c3.6-1.7,7.2-3.3,10.9-5
		c1.7-0.8,3.5-1.6,5.2-2.4c0.8-0.3,1.5-0.7,1.8-1.7c-0.7-0.9-1.7-1.2-2.7-1.3c-2-0.4-3.9-0.8-5.9-0.9c-5.1-0.3-10.3-0.5-15.4-0.7
		c-0.7,0-1.3,0-2,0.1c-1.1,0.2-2.1,0.4-2.9,1.3c-0.9,0.9-1.9,1.1-3.2,0.9c0-1.1,0.6-1.7,1.1-2.3c3.2-3.8,6.3-7.5,9.5-11.2
		c1.8-2.1,4-3,6.8-2.8c5.4,0.4,10.8,0.7,16.2,1.2c3,0.3,5.9,0.9,8.8,1.5c0.9,0.2,1.7,0.6,2.4,1.2c1.4,1,1.6,2.8,0.5,4.2
		c-1.5,1.8-3,3.5-4.6,5.2c-2.9,3-5.7,6-8.7,8.9c-1.7,1.7-3.5,3.3-5.5,4.7c-2.3,1.7-5,2.6-7.8,3.3c-2.9,0.7-5.8,1.4-8.8,1.5
		c-0.9,0-1.8,0.3-2.7,0.5C200.1,38.4,199.7,38.4,199.3,38.4z"/>
	<path class="st0" d="M311,32.7c-0.7-0.9-1.5-1.2-2.4-1.3c-1.9-0.3-3.8-0.7-5.7-0.9c-4-0.3-7.9-0.7-11.9-0.6c-1.8,0-3.7,0-5.5,0
		c-1.4,0-2.6,0.4-3.6,1.4c-0.8,0.8-1.8,1.1-3.1,0.6c0.2-0.4,0.2-0.9,0.4-1.2c0.6-0.8,1.2-1.6,1.8-2.3c2.4-2.8,4.7-5.6,7.1-8.4
		c0.6-0.7,1.2-1.4,1.8-2.1c1.6-1.8,3.7-2.4,6.1-2.2c5.4,0.4,10.8,0.7,16.2,1.2c3,0.3,6.1,0.9,9.1,1.5c0.8,0.1,1.6,0.6,2.2,1
		c1.4,0.9,1.7,3.2,0.6,4.4c-1.5,1.6-3,3.4-4.5,5c-3,3.1-6,6.3-9,9.3c-1.7,1.6-3.4,3.2-5.3,4.5c-2.3,1.7-5,2.6-7.8,3.2
		c-3.1,0.7-6.1,1.4-9.3,1.6c-0.8,0-1.6,0.3-2.4,0.5c-0.8,0.1-1.2-0.4-0.9-1.3c0.2-0.7,0.6-1.2,1.2-1.5c3.6-1.7,7.2-3.5,10.8-5.1
		c3.8-1.8,7.7-3.5,11.6-5.2c0.6-0.3,1.2-0.5,1.8-0.9C310.5,33.5,310.7,33,311,32.7z"/>
	<path class="st0" d="M307.3,105.7c-1.4-0.7-2.6-1.1-3.6-1.8c-1.4-1-3-1.8-4.5-2.6c-0.7-0.3-1.3-0.8-1.8-1.3
		c-0.7-0.6-0.9-1.3-0.7-2.2c0.3-0.9,0.5-1.8,0.8-2.6c0.9-2.1,1.8-4.1,2.7-6.1c0.6-1.2,1.1-1.3,2.2-0.7c2.3,1.3,4.2,3,5.5,5.3
		c3.1,5.3,6,10.7,7.7,16.7c0.6,2,1.3,3.9,2,5.9c0.1,0.3,0.3,0.5,0.7,1.1c0.4-1.7,0.7-3,1-4.4c0.6-2.8,1.1-5.5,1.8-8.3
		c0.6-2.9,1.7-5.7,3.2-8.3c1.1-1.9,2.3-3.9,3.5-5.8c0.8-1.2,1.8-2.1,3.1-2.8c0.9-0.5,1.7-0.5,2.6-0.1c1,0.5,1.8,1.1,2.5,2
		c1.7,2.6,2.8,5.4,3.7,8.4c0.1,0.4,0.1,0.9,0,1.2c-0.7,1.9-1.6,3.6-3.5,4.7c-0.1,0.1-0.3,0-0.6,0c-0.2-0.5-0.5-0.9-0.7-1.5
		c-0.6-1.4-1.2-2.9-1.9-4.3c-0.5-0.9-1.1-1.9-1.8-2.7c-1.1-1.2-2.1-1.2-3.2,0c-0.7,0.7-1.2,1.6-1.7,2.4c-1.5,2.6-2.1,5.6-2.8,8.5
		c-0.5,2.2-1,4.4-1.4,6.6c-0.3,1.2-0.4,2.4-0.7,3.7c-0.6,3.1-1.5,6.1-2.8,9c-0.1,0.2-0.1,0.3-0.2,0.4c-0.9,1.5-2.1,1.6-3,0
		c-0.5-0.9-0.8-2-1.2-3c-1.2-3.5-2.4-7.1-3.6-10.6C309.6,110.1,308.5,107.7,307.3,105.7z"/>
	<path class="st0" d="M446.1,66.8c-0.7-0.3-1.3-0.4-1.6-0.7c-1.4-1.5-3.1-2.7-4.7-4c-0.1-0.1-0.1-0.1-0.2-0.2
		c-3.1-3.1-3.3-3.8-1.3-7.5c0.9-1.6,1.9-3.1,3-4.6c1.2-1.6,2.9-1.7,4.2-0.1c1.1,1.4,2.2,3,2.9,4.6c1.8,4.1,3.2,8.4,3.7,12.9
		c0.4,3.3,0.6,6.6,0.6,9.9c0,0.6,0,1.3,0.1,1.9c0.6,0.3,0.7-0.1,0.8-0.4c1.4-2.8,2.8-5.5,4.1-8.3c2.3-5,5.4-9.5,9-13.7
		c0.7-0.8,1.6-1.5,2.4-2.1c0.5-0.4,1.2-0.7,1.8-0.8c2.6-0.4,3.8,0.2,5.1,2.6c1.3,2.6,1.7,5.4,1.9,8.2c0.1,0.9-0.3,1.8-0.8,2.6
		c-0.8,1.3-2.1,2.4-4,3.5c-0.1-0.4-0.3-0.7-0.4-1.1c-0.3-1.6-0.5-3.1-0.8-4.7c-0.3-1.3-0.7-2.6-1.6-3.6c-0.9-1.1-2.4-1.5-3.6-0.7
		c-0.8,0.5-1.6,1.2-2.2,2c-1.2,1.8-2.4,3.6-3.4,5.5c-2.1,4.2-4.1,8.5-6.2,12.8c-1,2.1-2.3,4-3.6,6c-0.5,0.8-1.2,1.9-2.3,1.5
		c-0.9-0.3-0.9-1.5-1-2.4c-0.2-3.3-0.3-6.6-0.6-9.9c-0.2-2.7-0.7-5.4-1.1-8.1C446.4,67.5,446.2,67.2,446.1,66.8z"/>
	<path class="st0" d="M135.3,26.7c-1.2,0-2,0.1-2.8,0c-1.7-0.1-3.5-0.2-5.2-0.4c-0.3,0-0.7,0-1,0c-3.2-0.4-4.3-1.3-4.7-4.4
		c-0.3-2.1-0.3-4.3-0.3-6.5c0-1.8,1.4-2.8,3.3-2.4c2.4,0.6,4.7,1.7,6.8,3.1c5.2,3.4,9.6,7.6,13.3,12.6c1,1.4,2,2.8,3.4,4.5
		c0-0.8,0.1-1.2,0-1.5c-0.6-3.4-1.3-6.7-1.7-10.1c-0.4-3.2-0.6-6.5-0.6-9.7c-0.1-2.1,0.2-4.1,0.4-6.2c0.1-0.7,0.4-1.4,0.5-2.2
		c0.4-1.7,1.6-2.6,3.1-3.3c0.6-0.3,1.3-0.4,1.9-0.1c0.8,0.4,1.7,0.6,2.5,1.1c2,1.2,3.6,2.9,5.1,4.7c0.9,1.1,1.4,2.5,1.1,4
		c-0.2,1.4-0.2,2.8-1.3,4.1c-0.3-0.3-0.6-0.6-0.9-0.8c-1.2-1.2-2.3-2.4-3.6-3.4c-0.8-0.7-1.8-1.2-2.8-1.6c-1.6-0.6-3,0-3.6,1.6
		c-0.3,0.7-0.5,1.4-0.5,2.2c0,2.2,0,4.3,0.3,6.5c0.7,4.9,1.7,9.8,2.5,14.7c0.3,2.2,0.4,4.5,0.6,6.7c0.1,1,0.1,2.2-1,2.6
		c-1,0.3-1.6-0.7-2.2-1.4c-2-2.4-3.9-4.9-6-7.3c-1.7-2-3.5-3.8-5.2-5.7C136.2,27.5,135.7,27.1,135.3,26.7z"/>
	<path class="st0" d="M70.3,58.5c-1.9-0.4-3.5-0.8-5.2-1.2c-0.2,0.6-0.4,1-0.5,1.5c-0.1,0.4-0.1,0.8,0,1.2c0.1,2.7-0.4,5.3-0.9,7.9
		c-1.4,7.4-3.8,14.5-6.2,21.6c-1.7,5-3.7,9.8-6,14.5c-1.8,3.7-3.5,7.3-5.2,11c-0.9,1.9-1.6,3.8-2.5,5.7c-0.2,0.4-0.5,0.8-0.6,1.2
		c-0.6-0.1-0.6-0.5-0.6-0.8c0.1-0.5,0.2-1,0.4-1.4c2.5-7.7,5.1-15.4,8.2-23c3.6-8.8,6.4-17.8,9-26.9c0.9-3,1.4-6.2,1.9-9.3
		c0.2-1,0.2-2,0.2-3C61,57,59.6,57.1,58.2,57c-1.4-0.1-2.8,0-4.2,0.1c-3,0.1-4.6-1-5.2-3.8c-0.4-1.9-0.7-3.9-0.9-5.9
		c-0.1-1.2,0.1-2.3,0.6-3.4c0.8-1.8,1.6-3.5,3-4.9c1-1,2.1-1.3,3.4-0.9c2.2,0.6,3.8,2,5.1,3.8c1.4,2,2.5,4.1,2.9,6.6
		c0.2,1.2,0.8,1.7,2,1.8c1.3,0.1,2.4,0.5,3.6,1.1c0.9,0.5,1.6,1.2,1.9,2.2c0.4,1.2,0.7,2.4,0.6,3.7C70.7,57.6,70.5,58,70.3,58.5z
		 M60.5,49.5c-0.8-1.7-1.9-2.9-3.4-3.6c-2.1-1.1-3.4-0.7-4.7,1.2c-0.3,0.4-0.6,0.8-0.8,1.3c-0.2,0.4-0.1,0.9-0.2,1.5
		c2.9,0,5.6,0,8.4,0C59.9,49.8,60.1,49.7,60.5,49.5z"/>
	<path class="st0" d="M66.7,147.5c-1.3-0.6-2.4-1.2-3.6-1.6c-1.2-0.5-2.5-0.8-3.9-0.6c-0.9,0.1-1.3,0.6-1.4,1.4
		c-0.2,1.8-0.1,3.7,0.4,5.4c0.6,2.5,1.5,4.9,2.5,7.3c2,4.8,4.3,9.4,5.5,14.4c0.3,1.2,0.4,2.3,0.2,3.4c-0.1,0.6-0.8,1-1.3,0.6
		c-1-0.8-1.9-1.6-2.8-2.5c-1.9-1.8-3.6-3.7-5.5-5.4c-2.1-1.8-4.3-3.4-6.5-5c-0.6-0.4-1.3-0.7-2-1.1c-0.2,0.8-0.4,1.4-0.5,2
		c-0.3,0.1-0.5,0.3-0.8,0.3c-2.4-0.1-4.8,0-7.2,0.5c-0.8,0.2-1.7,0.1-2.5,0.1c-1.1,0-1.9-0.6-2.2-1.6c-0.8-2.8-1.6-5.6-1.8-8.5
		c-0.1-1.2,0.4-2.1,1.7-2.4c0.8-0.2,1.6-0.5,2.4-0.5c3-0.2,5.9,0.4,8.6,1.9c4.7,2.7,9.1,5.9,12.9,9.7c0.5,0.5,1,1.3,2.1,1.5
		c-0.1-0.5-0.2-0.8-0.3-1.1c-1.7-3.6-3-7.4-3.9-11.3c-1-4.2-1.9-8.4-1.4-12.8c0.1-1.1,0.4-2.1,1.1-3c0.4-0.5,0.8-0.8,1.4-0.9
		c3-0.5,5.6,0.4,7.9,2.2c0.3,0.2,0.6,0.6,0.7,1C67,142.9,67.6,145.1,66.7,147.5z"/>
	<path class="st0" d="M153.7,105.3c2.8,1.8,5.7,2.7,8.4,3.8c2.5,1,5.1,1.9,7.7,2.9c0.4,0.1,0.8,0.3,1.1,0.5c1.9,1,2.3,1.6,2,3.7
		c-0.4,3.1-0.8,6.2-1.4,9.4c-0.2,1.5-0.7,2.9-1.1,4.3c-0.2,0.6-0.6,1.1-0.9,1.7c-4.8-2.7-9.8-4.4-14.8-6.2c-1.5-0.5-2.9-1.2-4.3-1.9
		c-0.6-0.3-0.8-0.8-0.7-1.4c0.1-0.7,0.3-1.3,0.4-1.9c0.9-4.1,1.8-8.3,2.7-12.4C153.1,107.1,153.3,106.4,153.7,105.3z"/>
	<path class="st0" d="M446.1,110.1c-1.3,2.4-2.6,4.8-4,7.2c-1.5,2.7-3.1,5.3-4.6,8c-0.7,1.2-1.4,2.5-2,3.8c-1.4,3-1.1,6,0.2,8.9
		c0.2,0.4,0.5,0.9,0.8,1.2c0.8,0.9,1.8,1.1,2.9,0.7c1.6-0.6,2.8-1.8,3.5-3.3c0.5-1.1,1-2.3,1.4-3.4c0.3-0.8,0.5-1.5,1.1-2.1
		c0.6,0.1,0.5,0.5,0.5,0.8c-0.2,1.1-0.4,2.1-0.8,3.1c-1.4,3.7-3.5,7-6,10c-0.7,0.8-1.6,1.5-2.6,1.9c-1.2,0.6-2.3,0.3-3.2-0.5
		c-0.5-0.5-1-1.1-1.4-1.8c-2-3.5-2-7.1-0.4-10.8c1.4-3.4,2.9-6.7,4.8-9.8c2.1-3.6,4.2-7.2,6.3-10.7c0.6-1.1,1.4-2.1,2.1-3.1
		c0.2-0.2,0.5-0.3,0.7-0.4C445.9,109.8,446,110,446.1,110.1z"/>
	<path class="st0" d="M387.2,51.2c-0.1,0.5-0.2,1-0.3,1.4c-1.3,3.2-2.9,6.1-4.9,8.9c-0.7,1-1.7,1.8-2.7,2.6
		c-0.2,0.2-0.5,0.4-0.8,0.5c-1.6,0.6-2.6,0.7-3.7-0.8c-1.3-1.6-2-3.4-2.5-5.4c-0.6-2.5,0-5,0.8-7.3c1.1-3.1,2.5-6.2,3.9-9.2
		c2.4-5.1,4.9-10.1,7.8-15c0.2-0.4,0.5-0.8,1.1-1.6c0,0.8,0,1.1-0.1,1.4c-0.4,1-0.9,2-1.4,2.9c-1.9,3.8-3.8,7.5-5.7,11.3
		c-1.2,2.5-2.1,5-2.6,7.7c-0.6,3.1,0.3,5.8,1.9,8.3c0.7,1.2,1.7,1.4,3,0.9c1.4-0.5,2.4-1.4,3.2-2.6c0.8-1.4,1.7-2.8,2.6-4.2
		C386.9,51.1,387,51.1,387.2,51.2z"/>
	<path class="st0" d="M181.6,66.9c0,0.7,0,1.3-0.1,1.9c-0.9,2.9-1.7,5.7-2.8,8.5c-0.5,1.3-1.4,2.4-2.2,3.6c-0.2,0.3-0.6,0.6-0.9,0.9
		c-1.4,1.1-2.5,1.2-3.8,0c-2.4-2.2-4.1-4.8-4.2-8.2c-0.1-2.5,0-5,0.6-7.4c1.2-4.7,2.4-9.5,3.7-14.2c0.8-2.9,1.8-5.7,2.7-8.5
		c0.1-0.4,0.1-0.8,0.8-0.9c0,0.4,0.1,0.8,0,1.1c-0.7,2.4-1.3,4.8-2,7.2c-1.1,3.9-2.3,7.8-2.9,11.8c-0.2,1.6-0.3,3.3-0.2,5
		c0.2,2.7,1.5,4.9,3.3,6.8c1,1,1.9,1.1,3.1,0.4c1.2-0.7,2.2-1.8,2.7-3.2c0.4-1.2,0.9-2.5,1.4-3.7C180.8,67.5,180.9,67,181.6,66.9z"
		/>
	<path class="st0" d="M60.5,49.5c-0.4,0.2-0.6,0.3-0.7,0.3c-2.7,0-5.4,0-8.4,0c0.1-0.6,0.1-1.1,0.2-1.5c0.2-0.5,0.5-0.9,0.8-1.3
		c1.3-1.9,2.6-2.2,4.7-1.2C58.6,46.7,59.7,47.8,60.5,49.5z"/>
	<path class="st0" d="M302.6,248.6c0,0.1,0.1,0.3,0.1,0.4c-0.2,0.9-0.5,1.7-0.8,2.6c-3.2,1.7-6.4,3.3-9.5,5
		c-5.1,2.8-10.1,5.6-14.9,8.9c-2.9,2-5.9,4-8.8,6.2c-1.5,1.1-3.1,2.3-4.4,3.9c0.3,0.2,0.6,0.5,0.9,0.7c2.8,1.6,5.6,3.2,8.2,5.2
		c2.5,1.9,5,3.9,7.2,6.2c1.1,1.1,2.2,2.1,3.3,3.1c0.8,0.7,1.8,1.3,3,1.1c1.4-0.2,2.9-1.6,2.9-3c0-0.9,0-1.8-0.2-2.7
		c-0.5-2.8-1.2-5.5-1.7-8.3c-0.4-2.3-0.7-4.6-1-6.9c-0.1-0.7-0.1-1.4-0.5-2c-0.5-0.6-0.5-1.3-0.3-2c0.3-1.1,0.5-2.3,1.5-3.4
		c0.3,1.9,1,3.3,2.3,4.1c0.2,1-0.2,1.7-0.6,2.4c-0.6,1-0.7,2-0.4,3.2c0.7,2.9,1.3,5.8,1.9,8.7c0.2,0.9,0.4,1.9,0.5,2.8
		c0.5,3.1-0.2,6-1.9,8.7c-0.3,0.5-0.7,1-1.2,1.4c-1,0.9-2.2,1.1-3.4,0.5c-1-0.5-1.9-1.1-2.7-1.9c-3-2.6-5.9-5.2-8.8-7.9
		c-0.5-0.4-1.1-0.8-1.9-1.4c0.3,1,0.4,1.8,0.7,2.6c1.1,3-0.8,7-3.8,8.3c-0.1,0-0.1,0.1-0.2,0.1c-1.9,0.4-2.5,1.8-3,3.5
		c-1.2,3.4-3.3,6.2-6.1,8.4c-1.3,1-2.7,1.4-4.2,1.2c-1.5-0.2-3-0.5-4.5-0.8c-0.6-0.1-1.2-0.4-1.4-1c0.1-0.5,0.5-0.4,0.7-0.4
		c3.1,0.5,5.9-0.4,8.4-2.1c2.5-1.6,4.6-3.7,6.1-6.4c0.1-0.2,0.2-0.4,0.2-0.6c0-0.1,0-0.1,0-0.2c-0.7,0.1-1.5,0.2-2.2,0.2
		c-0.5,0-1.1,0-1.7,0c-2.5-0.3-3.2-1.2-2.9-3.7c0.2-1.8,0.9-3.3,1.7-4.8c0.3-0.6,0.9-1,1.4-1.4c0.8-0.6,1.3-0.5,2,0.2
		c1.2,1.3,2.4,2.7,3.2,4.3c0.1,0.2,0.3,0.5,0.5,0.8c0.8,0.1,1.4-0.4,2.1-0.7c0.7-0.4,1.5-0.8,2.2-1.2c0.7-0.4,0.8-0.9,0.5-1.6
		c-0.5-1.2-1.3-2.3-2.2-3.2c-1.3-1.3-2.7-2.5-4.1-3.8c-0.1-0.1-0.2-0.2-0.3-0.3c-2.1-1.5-2.5-3.7-2.1-6.1c0.2-0.9,0.4-1.7,1.1-2.4
		c1-1,1.9-2,2.9-2.9c3-2.4,6.1-4.8,9.4-6.8c2.9-1.8,5.8-3.7,8.7-5.5c5.7-3.5,11.7-6.5,17.6-9.5C302.3,248.5,302.4,248.6,302.6,248.6
		z M261,293.4c-0.3-1.1,0.5-1.8,0.1-2.8c-0.9,0.6-1.5,1.2-1.7,2.4C259.8,293.1,260.2,293.2,261,293.4z"/>
	<path class="st0" d="M426.8,261.7c-0.3,1.2-0.4,2-0.6,2.8c-0.1,0.2-0.3,0.5-0.5,0.7c-0.1,0.2-0.3,0.2-0.5,0.4
		c-2.1,1.8-3,4.1-3.1,6.7c-0.1,2.5,0.1,5,0.6,7.4c0.5,2.6,1.1,5.3,1.6,7.9c0.4,2,1.1,4,1.9,5.9c0.5,1.1,1.1,2.2,2.4,2.8
		c0.3-0.6,0.5-1.1,0.7-1.6c0.5-1.5,1.5-2.6,2.6-3.7c1.1-1.1,2.5-1.8,4.1-1.5c1.4,0.2,2.7,0.5,4,0.8c1.9,0.5,3.8,1.3,5.8,1.6
		c1.8,0.3,3.6,0.7,5.5,0.8c0.9,0,1.8,0.2,2.7,0.3c-0.1,1.2-0.9,2-1.4,2.9c-0.1,0.2-0.6,0.3-0.9,0.3c-0.5,0-1.1,0-1.6-0.1
		c-1.5-0.3-2.9,0-4.4,0.5c0.1,0.4,0.2,0.9,0.4,1.2c0.7,1,1.8,1.4,3,1.5c2.7,0.2,5-0.7,7-2.6c0.6-0.6,1.2-1.1,1.9-1.8
		c0.3,0.4,0.5,0.7,0.7,1.1c0.6,1,1.4,1.7,2.4,2.3c0.6,0.3,1,0.2,1.5-0.2c0.6-0.6,1.1-1.2,1.8-1.7c2-1.7,3.9-3.5,5.9-5.2
		c0.9-0.7,1.9-1.3,2.9-2c0.3-0.2,0.6-0.3,1-0.3c1.6,0,3.2,0.2,4.6,0.9c1.8,0.8,2.2,2,1.6,3.9c-0.5,1.4-1.3,2.5-2.6,3.4
		c-2.4,1.6-4.9,2.8-7.6,3.6c-1.3,0.4-2.6,0.8-4,1.1c-1.4,0.4-2.8,0.6-4.3,0.4c-0.9-0.1-1.6,0.2-2.2,0.9c-0.3,0.4-0.7,0.8-1.1,1.2
		c-0.5-0.3-0.3-0.6-0.2-0.9c0.3-0.6,0.5-1.1,0.9-1.8c-0.4-0.4-0.8-0.8-1.2-1.3c-0.4-0.5-0.7-1-1-1.4c-0.8,0.1-1.1,0.7-1.5,1.1
		c-1.6,1.7-3.5,2.6-5.8,3c-1.3,0.2-2.5,0-3.6-0.6c-1.2-0.6-1.9-1.6-1.7-3c0.1-0.7,0.3-1.3-0.1-2.1c-1.6,0.2-3,1-4.4,1.6
		c-2.3,1-4.6,1.8-7.1,2.3c-2.2,0.5-4.2-0.1-5.9-1.7c-0.7-0.7-1.2-1.5-1.6-2.4c-0.9-2.2-1.6-4.4-2-6.7c-0.5-2.4-1-4.9-1.5-7.3
		c-0.9-4.4-0.9-8.8-0.1-13.2c0.6-2.9,1.7-5.5,4-7.5C426.1,262.1,426.2,262,426.8,261.7z M442.4,294.6c-2.7-0.7-4.8-1.5-7-1.9
		c-2.9-0.6-5.2,1-6.1,4c1.5,0.8,2.8,1.1,4.3,0.9c2.5-0.4,4.8-1,7.1-2.1C441.1,295.3,441.5,295,442.4,294.6z M478,293.6
		c-1.6-1-1.8-1-3.8-1.4c-1.1-0.2-2,0-2.9,0.5c-2.4,1.3-4.5,3.2-6.5,4.9c-0.1,0.1-0.2,0.3-0.3,0.5c2,0.1,4.2-0.3,8.2-1.8
		C474.4,295.7,476.3,295,478,293.6z"/>
	<path class="st0" d="M226.9,272.2c0.4,0.7,1.1,1.2,1.7,1.7c1.8,1.4,3.3,3.1,4.6,5c0.3,0.4,0.5,0.8,0.9,1.2c1.9,2.2,2.9,4.8,3.8,7.5
		c0.5,1.5,0.5,3,0.3,4.5c-0.3,2.2-1.4,3.3-3.7,3.5c-2,0.2-4-0.1-5.6-1.3c-0.2,0-0.4,0-0.5,0.1c-2.2,2.2-4.9,3.3-7.8,4
		c-2.3,0.6-4.7,1.1-7.1,1.4c-2.3,0.3-4.7,0.3-7-0.2c-1.3-0.3-2.7-0.7-3.8-1.5c-1.9-1.2-3-2.8-2.7-5.2c0.2-1.5,0.5-2.9,1-4.2
		c0.1-0.2,0.3-0.4,0.6-0.8c0.3,1.1,0.1,1.8-0.1,2.6c-0.4,1.9-0.2,2.4,1.4,3.5c1.4,0.9,2.9,1.6,4.6,1.9c2.8,0.5,5.6,0.6,8.4,0
		c2.7-0.6,5.4-1,8-2.1c1.1-0.5,2.2-1.1,3.3-1.7c1-0.6,1.6-1.4,1.8-2.6c0.1-0.6,0.3-1.2,0.6-2c0.6,1.2,0,2.1,0.3,3.2
		c0.3,0.2,0.8,0.5,1.3,0.7c1.5,0.5,3,0.6,4.5,0.4c1.1-0.1,1.4-0.5,1.2-1.5c-0.3-1.5-0.7-3-1.5-4.3c-1.6-2.5-3.2-5-5.3-7.1
		c-0.5-0.5-1-0.9-1.8-0.9c-1-0.1-2.1-0.2-3.1-0.4c-1-0.1-1.4-0.5-1.5-1.4c-0.3-1.7-0.3-3.5,0.2-5.1c0.4-1.5,1.6-2.6,2.8-3.5
		c1.6-1.2,3.3-2.3,4.9-3.4c1.3-0.8,2.6-1.6,3.8-2.5c3-2.2,6.2-3.8,9.4-5.6c0.9-0.5,1.7-1.1,2.6-1.6c1.6-1,3.2-1.9,4.8-2.8
		c2.4-1.3,4.8-2.6,7.3-3.9c0.5-0.3,1-0.4,1.5-0.7c1,2,0.6,3.2-1.1,4.1c-0.9,0.5-1.8,1-2.7,1.5c-1.1,0.6-2.1,1.3-3.2,1.8
		c-2.8,1.3-5.5,2.9-8.1,4.6c-1.1,0.7-2.2,1.3-3.4,2c-2.6,1.4-5.1,3.1-7.5,4.7c-2.2,1.5-4.3,3-6.4,4.5
		C227.8,270.8,227,271.3,226.9,272.2z"/>
	<path class="st0" d="M341.5,296.9c-0.9-0.2-1.8,0-2.7,0.1c-1.1,0.2-2.2,0-3.3-0.3c-1.4-0.3-2-1.3-1.8-2.8c0.1-0.6,0.3-1.2,0.5-1.8
		c0.7-2,1.9-3.7,3-5.3c2.5,0.7,3.5,1.6,6.4,5.8c0.4-0.1,0.9-0.1,1.3-0.3c1.6-0.7,3.1-1.4,4.7-2.1c0.7-0.4,1.4-0.8,2.4-0.7
		c0.6,0.5,1.2,1.2,2,1.7c1.1,0.8,1.6,0.7,2.6-0.1c2.2-1.8,4.3-3.7,6.5-5.5c1.1-0.9,2.1-1.8,3.2-2.6c0.9-0.7,1.8-0.9,2.9-0.7
		c0.9,0.2,1.8,0.3,2.6,0.6c1.6,0.5,2.3,1.6,2.2,3.3c-0.2,2-1.1,3.7-2.8,4.8c-2.9,1.8-6.1,3.2-9.5,3.9c-1.8,0.4-3.7,0.6-5.5,0.8
		c-0.7,0.1-1.3,0.3-1.8,0.8c-0.5,0.5-1,1.1-1.6,1.7c-0.3,0.3-0.7,0.7-1.1,1.1c-0.2-1.8,1.3-2.5,1.6-4c-0.7-0.6-1.4-1.2-2.1-1.8
		c-0.5-0.4-1-0.5-1.6-0.2c-0.6,0.2-1.1,0.5-1.7,0.7c-1,0.5-2,1-3,1.4c-1.1,0.4-1.5,1.1-1.8,2.1c-0.7,2.3-1.7,4.4-2.9,6.4
		c-1.2,2.1-2.9,3.8-5,5.1c-1.1,0.7-2.2,1-3.5,1.1c-1.9,0.1-3.9-0.1-5.7-0.6c-0.4-0.1-0.9-0.3-1.3-0.5c0-0.5,0.3-0.5,0.6-0.5
		c0.3,0,0.7,0,1,0c1.9,0.3,3.7-0.2,5.4-1c3-1.4,5.8-3.2,7.8-6C340.4,300.3,341.2,298.5,341.5,296.9z M371.8,287.7
		c-0.5-0.4-0.8-0.6-1.1-0.8c-2.2-0.9-4.3-0.9-6.2,0.6c-1.8,1.4-3.6,2.8-5.4,4.2c-0.1,0.1-0.1,0.3-0.2,0.6
		C363.4,291.7,367.8,290.6,371.8,287.7z M337.9,291.4c-0.5-0.4-1-0.5-1.4-0.1c-0.3,0.3-0.7,0.7-0.5,1.2c0.2,0.5,0.6,0.7,1.3,0.4
		C337.5,292.5,337.7,291.9,337.9,291.4z"/>
	<path class="st0" d="M402.6,284.9c0.9,0.7,1.1,1.6,1.2,2.4c0.2,0.9,0.2,1.9,0.1,2.9c-0.1,0.9-0.3,1.8-0.6,2.6
		c-0.3,0.8-0.7,1.6-1.1,2.4c1.9,0.1,4-0.3,7.8-1.9c2-0.8,4-1.5,5.4-3.1c0.1-0.8-0.3-1.4-0.6-2c-0.6-1-1.3-2-2.1-2.8
		c-0.6-0.6-0.8-1.2-0.7-2.1c0.1-0.7,0-1.4,0.4-2.1c0.3,0.2,0.6,0.3,0.7,0.5c0.9,1.2,1.8,2.3,2.5,3.5c1.1,1.8,1.3,3.8,0.9,5.8
		c-0.4,2.1-1.8,3.3-3.6,4.3c-2.2,1.2-4.5,2.1-6.9,2.8c-0.5,0.2-1,0.3-1.7,0.5c0.1,0.3,0.1,0.6,0.2,0.8c0.8,2,0.1,3.8-0.6,5.6
		c-0.2,0.5-0.6,0.9-1,1.3c-0.7,0.7-1.5,0.9-2.4,0.7c-1.6-0.4-2.7-1.4-3.4-2.8c-0.4-0.9-0.7-1.8-1-2.7c-0.2-0.4-0.3-0.9-0.5-1.4
		c-0.7,0.3-1.3,0.6-2,0.8c-0.6-0.3,0-1-0.6-1.5c-0.5-0.1-1.2-0.2-1.9-0.3c-1-0.1-1.8-0.6-2.5-1.3c-2-1.9-3-4.3-3.5-6.9
		c-1.2-5.7-2-11.4-2.4-17.2c-0.2-3.1,0.2-6.1,1.5-8.9c0.7-1.6,1.5-2.4,2.9-3.3c0.4,0.9,0.4,1.3,0.2,2.3c-0.1,0.5-0.3,1-0.8,1.4
		c-2.2,1.7-2.9,4.1-2.7,6.8c0.5,5.7,1.3,11.4,2.9,16.9c0.6,2,1.5,3.8,3,5.4c0.5,0.6,1.2,1,2,1c0.8,0,1.5,0.1,2.3,0.1
		c1.7,0.1,2.7-0.7,3.2-2.4C398.4,290,400.5,287.5,402.6,284.9z M398.1,299.9c0.5,2.1,1.9,3.4,3.6,3.6c0.8,0.1,1.4-0.2,1.8-1
		C402.2,300.5,400.4,300,398.1,299.9z M398.5,294.5c1.5-0.5,2.5-1.3,3.4-2.3c1-1.2,1-1.6,0-3.2C400.3,290.3,398.9,292.5,398.5,294.5
		z"/>
	<path class="st0" d="M497.2,260.8c1,1.2,2,2.2,3,3.4c-0.2,1.6-0.9,3-2.3,4.1c-0.1,2.4-0.2,4.7-0.3,7.1c-0.1,3.1-0.5,6.2-1.2,9.2
		c-0.4,1.5-0.5,3,0,4.5c0.4,1.5,0.4,3,0.3,4.5c0,1.1-0.6,1.8-1.6,2.2c-0.3,0.1-0.6,0.3-1,0.4c-2.1,0.5-4.3,1-6.5,1.5
		c-0.2-0.4-0.4-0.7-0.4-1c0-1-0.1-1.9,0.5-2.8c3.6-0.7,2.9-0.4,4.5-3.2c0.5-0.8,0.9-1.7,1.3-2.6c0.4-0.7,0.3-1.3,0-2
		c-1.5-3.3-3.6-6.3-6-9.1c-0.5-0.6-1.1-1.2-1.6-1.9c-1.4-1.9-3.5-2.8-5.7-3.4c-0.7-0.2-1.3-0.3-2-0.5c-1-0.2-1.5-0.9-1.6-1.9
		c-0.1-1.9,0-3.7,0.9-5.5c0.5,0.2,1,0.2,1.3,0.5c0.8,0.6,1.5,1.2,2.2,1.8c5.3,5,9.9,10.5,13.4,17c0.1,0.2,0.3,0.3,0.5,0.6
		c0.2-0.4,0.4-0.7,0.5-1.1c0.4-2.5,0.9-5,1.2-7.5c0.3-2.7,0.3-5.4,0.5-8c0-0.6,0.1-1.2-0.3-1.8c-0.7-0.9-0.7-1.9-0.2-2.9
		C496.7,261.8,497,261.3,497.2,260.8z M494.8,290.7c-0.7,0.1-0.9,0.6-1,1.2c0,0.1,0.1,0.2,0.2,0.4c0.3-0.1,0.7-0.3,1-0.4
		c0-0.3,0-0.5,0-0.7C495,291,494.9,290.9,494.8,290.7z"/>
	<path class="st0" d="M465.8,257.9c0.5,0.9,0.3,1.7,0,2.4c-0.3,0.7-0.9,1.2-1.7,1.4c-2.3,0.4-4.2,1.7-6.2,2.7
		c-2.3,1.1-4.6,2.1-6.9,3.3c-3.3,1.7-6.7,3.3-9.9,5.1c-3.5,1.9-6.8,4.1-10.3,6.1c-0.6,0.4-1.3,0.7-2,1c-0.2,0.1-0.5,0-0.6-0.1
		c-0.1-0.2-0.2-0.5-0.2-0.7c0.2-0.9,0.8-1.6,1.6-2.1c1.6-1.1,3.2-2.2,4.8-3.2c7.4-4.3,14.8-8.4,22.6-11.9c2.5-1.1,5-2.4,7.5-3.5
		C464.9,258.2,465.4,258,465.8,257.9z"/>
	<path class="st0" d="M416.8,257.8c-0.3,2-1.4,3.2-2.9,4.1c-3.4,2.2-6.9,4.3-10.2,6.6c-4.3,2.9-8.7,5.8-12.5,9.5
		c-0.1,0.1-0.2,0.1-0.5,0.3c0-0.4,0-0.7,0.1-1c0.4-1.3,1.1-2.3,2.2-3.2c2-1.7,4-3.3,6.2-4.8c3.2-2.1,6.3-4.2,9.4-6.3
		c1.4-0.9,2.9-1.8,4.4-2.7C414.2,259.5,415.4,258.7,416.8,257.8z"/>
	<path class="st0" d="M317.7,288.7c2.4,2.6,4.3,5.2,3.7,9c-0.3,2-0.5,3.9-1.5,5.8c-1.4,2.7-3.6,4.5-6.2,5.8
		c-0.5,0.3-1.2,0.4-1.8,0.4c-2.8,0.1-5.5-0.2-8.2-0.7c-0.2,0-0.3-0.2-0.6-0.5c0.7,0,1.2,0,1.6,0.1c3.4,0.3,6.5-0.6,9.4-2.5
		c1.5-1.1,3-2.3,4.2-3.7c0.8-0.9,1.5-2,2-3.1c0.5-1.1,0.4-2.2-0.2-3.2c-0.3-0.5-0.7-1-1-1.5c-0.4-0.6-0.8-1.1-1.2-1.7
		C316.9,291.6,316.9,290.6,317.7,288.7z"/>
	<path class="st0" d="M368.7,258.7c0.6,0.4,1.2,0.8,1.7,1.2c0,0.8-0.2,1.3-0.8,1.7c-0.5-0.1-1-0.3-1.5-0.4c-1.1,1.5-2,3-3.2,4.3
		c-1.2,1.4-2.6,2.6-4,3.9c-1.3,1.1-2.5,2.5-4.3,3.1c-0.2-0.7,0-1,0.4-1.3c2.9-2.2,5.3-4.8,7.8-7.3c0.7-0.7,1.3-1.6,1.9-2.4
		c0.2-0.2,0.2-0.5,0.3-0.9c-0.8-0.5-1.6-0.9-2.3-1.4c-1.2-0.8-1.5-1.5-1-2.8c0.8-2,0.7-2.1,2.7-2.8
		C368.5,254.5,369.1,255.7,368.7,258.7z M364.8,256.2c1.4,1.3,1.6,1.4,2.8,1.5C366.9,255.9,366.4,255.6,364.8,256.2z"/>
	<path class="st0" d="M308.8,261.2c0,0-0.2,0-0.4,0c-1-0.3-1.9-0.2-2.8,0.2c-0.1,0.1-0.3,0.1-0.4,0.1c-0.2,0-0.4-0.1-0.5-0.2
		c-0.1-0.1-0.2-0.4-0.1-0.6c0.6-1.1,1.6-1.8,2.8-2.4c0.3-0.1,0.7-0.1,1,0c1.2,0.4,2.1-0.1,2.9-1c0.6-0.7,1.1-1.4,1.7-2.1
		c0.6-0.7,1.3-1.2,2.1-1.6c0.9-0.4,1.6-0.2,2.1,0.7c0.6,1,0.6,2.1,0,3.1c-0.7,1.1-1.6,1.9-2.7,2.5
		C313.3,260.5,310.2,261.2,308.8,261.2z M313.1,257.8c1,0.3,1.6-0.2,2.2-0.7c0.1-0.1,0.1-0.4,0.1-0.5c-0.1-0.1-0.4-0.2-0.5-0.2
		C314.1,256.6,313.6,257.1,313.1,257.8z"/>
	<path class="st0" d="M317.4,273.1c0.1-0.7,0-1.1,0.1-1.3c0.3-0.4,0.8-0.8,1.2-1.1c2.2-1.7,4.2-3.6,6-5.6c0.5-0.5,1.1-1,1.2-1.9
		c-0.6-0.4-1.2-0.7-1.7-1.1c-0.3-0.2-0.5-0.6-0.6-1c-0.4-1.7,0.4-3.4,1.7-4.3c1-0.7,2-0.4,2.6,0.7c0.4,0.8,0.6,1.7,0.4,2.6
		c-0.1,0.5-0.2,0.9-0.2,1.4c0.4,0.4,0.8,0.8,1.2,1.1c0.5,0.4,0.4,1,0.2,1.5c-0.2,0.4-0.5,0.6-1,0.4c-0.4-0.1-0.7-0.3-1.2-0.5
		C324.7,267.6,321.5,270.5,317.4,273.1z M326.9,260.7c0.2-0.9,0-1.5-0.7-1.9c-0.4-0.3-0.9-0.3-1.3,0.1c-0.1,0.1-0.2,0.6-0.1,0.7
		C325.3,260.2,325.9,260.6,326.9,260.7z"/>
	<path class="st0" d="M215.2,261.1c-2-1.1-3.5-0.8-4.9,0.5c0.1-1.5,0.6-3,1.3-3.7c0.9-0.9,1.9-1.3,3.2-1.1c0.1,0,0.3,0.1,0.4,0.1
		c1.2,0.5,2.4,0.5,3.4-0.1c0.6,0.3,0.7,0.7,0.6,1.1c-0.2,0.7-0.3,1.4-0.7,1.9c-1.9,2.9-4.3,4.9-7.8,5.5c-0.3,0.1-0.7,0-0.9,0
		c-0.2-0.6,0.1-0.9,0.4-1.1c1.1-0.6,2.2-1.2,3.2-1.8C214,262.1,214.5,261.6,215.2,261.1z"/>
	<path class="st0" d="M335,271.6c-0.2-1.1,0.4-1.5,1-2c2.1-1.5,4.3-2.9,6.5-4.4c1.9-1.3,3.7-2.6,5.5-3.9c1.1-0.9,2.2-1.9,3.2-2.8
		c-0.1,1.3-0.5,2.3-1.3,3.3c-1.2,1.5-2.7,2.8-4.3,3.8c-2.8,1.9-5.7,3.6-8.5,5.4C336.5,271.3,335.9,271.7,335,271.6z"/>
	<path class="st0" d="M462.1,280c-0.6-1.5,0.7-2.1,1.1-3.2c-1.4-1-2.6-0.3-3.8,0.7c0.3-2.1,1.3-3.7,2.9-4.3c0.4-0.2,0.9-0.2,1.4-0.2
		c0.7,0.1,1.5,0.3,2.2,0.4c0.7,0.1,1.5,0.1,2.2,0.1c0.1,0.3,0.2,0.5,0.1,0.6c-0.4,1.8-1.2,3.4-2.9,4.3
		C464.5,279.1,463.5,279.8,462.1,280z"/>
	<path class="st0" d="M300.1,265.4c0.1,0.1,0.1,0.2,0.1,0.2c0.2,3.7,1.2,7.3,2,10.9c0.5,2.3,1,4.6,1.5,6.9c0.4,1.6,0.5,3.3,0.3,4.9
		c-0.2,1.4-0.3,2.7-0.5,4.1c-0.1,0.5-0.3,0.9-0.4,1.4c-0.5-0.2-0.3-0.6-0.3-0.9c0-0.3,0-0.7,0.1-1c0.4-2.1,0.2-4.3-0.2-6.4
		c-0.5-2.3-1.1-4.6-1.6-6.8c-0.6-2.5-1.2-5-1.6-7.5c-0.3-1.8-0.2-3.6,0.3-5.3C299.8,265.7,300,265.6,300.1,265.4z"/>
	<path class="st0" d="M244.2,265.4c0.1,0.1,0.1,0.2,0.1,0.2c0.2,3.7,1.2,7.3,2,10.9c0.5,2.3,1,4.6,1.5,6.9c0.4,1.6,0.5,3.3,0.3,4.9
		c-0.2,1.4-0.3,2.7-0.5,4.1c-0.1,0.5-0.3,0.9-0.4,1.4c-0.5-0.2-0.3-0.6-0.3-0.9c0-0.3,0-0.7,0.1-1c0.4-2.1,0.2-4.3-0.2-6.4
		c-0.5-2.3-1.1-4.6-1.6-6.8c-0.6-2.5-1.2-5-1.6-7.5c-0.3-1.8-0.2-3.6,0.3-5.3C243.9,265.7,244,265.6,244.2,265.4z"/>
	<path class="st0" d="M217.2,315c0.1-0.7,0.6-0.8,1-1c2.3-1.2,4.5-2.3,6.8-3.5c2.3-1.1,4.6-2.8,6.2-4.6c-0.3,2.2-1.3,3.8-2.9,5.1
		c-1.5,1.2-3,2.1-4.9,2.6c-1.8,0.4-3.6,1-5.4,1.4C217.9,315.1,217.5,315,217.2,315z"/>
	<path class="st0" d="M264.7,260.5c-0.3,1.4-0.6,2.6-1.4,3.5c-1.1,1.2-2.1,2.5-3.5,3.5c-1.6,1.1-3.1,2.3-4.7,3.3
		c-0.6,0.4-1.2,0.9-2.1,0.8c-0.2-0.8,0.1-1.5,0.7-2c1.5-1.3,3.1-2.6,4.7-3.8c2-1.5,4.1-3,5.7-5C264.2,260.7,264.4,260.7,264.7,260.5
		z"/>
	<path class="st0" d="M486.1,264.4c-0.4-1.1,0.5-1.8,0.8-2.6c-0.3-0.3-0.7-0.7-1.1-1.1c-0.7-0.6-0.8-1.4-0.5-2.2
		c0.4-1.4,1.2-2.4,2.7-2.8c1.2,0.9,1.2,0.9,0.5,2.7c-0.1,0-0.3,0.1-0.4,0c-0.4-0.2-0.9-0.6-1.2,0c-0.2,0.4,0.3,0.7,0.6,0.9
		c0.9,0.7,1.9,0.7,2.9,0.2c0.5-0.2,1-0.4,1.5-0.7c0.5,1.2,0.4,2.1-0.5,2.7c-0.3,0.2-0.7,0.4-1.1,0.5c-1.3,0.2-2.3,0.9-3.2,1.8
		C486.8,264,486.5,264.2,486.1,264.4z"/>
	<path class="st0" d="M445.2,276.4c0.3,1.8,1.2,2.3,2.6,2.4c1.4,0.1,2.4-0.4,3.3-1.9c-0.1,1.9-0.5,3.3-1.4,4.4
		c-0.6,0.8-1.6,1.1-2.6,1c-0.8,0-1.6-0.3-2.3-0.7c-1-0.5-1.2-1.4-0.9-2.5c0.2-0.7,0.5-1.4,0.7-2.1
		C444.6,277,444.8,276.9,445.2,276.4z"/>
	<path class="st0" d="M483.8,249.4c0.1,1.2-0.3,2.3-1.2,3.1c-0.8,0.7-1.7,1.5-2.6,2.1c-1.7,1.1-3.4,2-5.2,3c-0.2,0.1-0.5,0-0.7-0.2
		c-0.1-0.1-0.1-0.4-0.1-0.6c0.2-0.8,0.8-1.5,1.5-1.9c2.8-1.6,5.4-3.5,8-5.5C483.5,249.4,483.6,249.4,483.8,249.4z"/>
	<path class="st0" d="M208,276.8c0.2,0.3,0.3,0.3,0.3,0.4c0.2,1.1,0.4,1.4,1.3,1.5c0.8,0.1,1.6,0,2.4-0.1c0.8-0.2,1.4-0.7,1.9-1.5
		c0.4,0.4,0.1,0.7,0,0.9c-0.4,0.8-0.7,1.6-1.2,2.4c-1,1.5-3.3,2.1-5,1.5c-0.8-0.3-1.3-1-1.1-1.7C206.8,279,207.3,277.9,208,276.8z"
		/>
	<path class="st0" d="M394.8,254c2.5,1.9,3.9,4.1,4.3,6.9c0.1,0.9,0.2,1.8,0.3,2.7c0,0.7,0,1.4-0.2,2.1c-0.1-0.3-0.2-0.7-0.3-1
		c-0.3-2.6-1.5-4.7-3.3-6.4C394.3,257,394.4,255.7,394.8,254z"/>
	<path class="st0" d="M438.8,266.7c-0.1-0.7-0.3-1.5-0.4-2.2c-0.2-1.9-0.9-3.5-2.2-4.8c-1.4-1.4-1.4-2.9-0.8-4.5
		c1.6,1,2.8,2.7,3.3,4.6C439.3,262.1,439.3,264.4,438.8,266.7z"/>
	<path class="st0" d="M418.3,304.2c-1.5-0.8-3.1-1.3-4.2-2.4c0.1-1.2,0.5-2.2,1.2-3.2c1.3,0.6,2.4,1.3,3.6,1.9
		c0.5,0.3,0.5,0.7,0.4,1.3C419.1,302.6,418.8,303.4,418.3,304.2z"/>
	<path class="st0" d="M211,310.5c-1.4-1-2.6-1.8-3.7-2.5c0.2-1.8,0.2-1.9,1.2-3.2c0.7,0.2,1.3,0.7,1.9,1.1c0.6,0.4,1.1,0.8,1.8,1.2
		C211.7,308.2,211.4,309.2,211,310.5z"/>
	<path class="st0" d="M494.8,290.7c0.1,0.2,0.2,0.4,0.2,0.5c0,0.2,0,0.4,0,0.7c-0.3,0.1-0.7,0.3-1,0.4c-0.1-0.2-0.2-0.3-0.2-0.4
		C493.9,291.3,494.1,290.8,494.8,290.7z"/>
	<path class="st0" d="M364.8,256.2c1.6-0.6,2.1-0.4,2.8,1.5C366.4,257.6,366.2,257.5,364.8,256.2z"/>
	<path class="st0" d="M313.1,257.8c0.5-0.7,1-1.2,1.8-1.4c0.2,0,0.4,0.1,0.5,0.2c0.1,0.1,0.1,0.4-0.1,0.5
		C314.7,257.6,314.1,258.2,313.1,257.8z"/>
	<path class="st0" d="M326.9,260.7c-1-0.2-1.7-0.5-2.1-1.1c-0.1-0.1,0-0.6,0.1-0.7c0.4-0.4,0.9-0.4,1.3-0.1
		C326.9,259.3,327.2,259.8,326.9,260.7z"/>
	<path class="st0" d="M32.6,295.4c0.6,1.3,1.6,1.9,2.8,2.3c0.9,0.3,1.9,0.5,2.8,0.7c0.7,0.2,1.5,0.4,2.2,0.7c0.9,0.4,1.3,1.2,1,2.2
		c-0.3,1-0.6,2-1,2.9c-0.3,0.7-0.9,1.2-1.4,1.7c-0.8,0.7-1.6,1.3-2.6,1.7c-3.3,1.7-6.6,3.3-10.3,4.3c-2.2,0.5-4.4,0.6-6.6,0.2
		c-4.7-0.8-6.7-4.1-6.4-8.7c0.2-3.1,1.6-5.8,3.2-8.4c0.2-0.3,0.5-0.5,0.7-0.7c0.5,0.3,0.2,0.5,0.1,0.7c-0.7,1.5-1.4,3-2.2,4.5
		c-0.9,1.8-0.6,3.6,0.1,5.4c0.6,1.4,3,3.1,4.7,3.5c2.7,0.5,5.3,0.5,8-0.3c3.7-1.1,7.3-2.6,10.6-4.6c0.3-0.2,0.5-0.4,0.8-0.7
		c-0.7-0.8-1.5-0.8-2.3-1c-1-0.3-2-0.5-3-0.8c-1-0.3-1.7-0.9-2.3-1.7c-0.6-0.8-0.9-1.7-0.5-2.7c1.1-3.5,3.2-6.2,6.3-8.1
		c0.7-0.4,1.5-0.6,2.3-0.8c0.9-0.2,1.6,0.3,1.9,1.2c0.1,0.4,0.2,0.8,0.3,1.2c0.6,2.7,2.4,4.3,4.7,5.4c1.2,0.6,2.5,0.9,3.8,1
		c2.7,0.4,5.5,0.5,8.2,0c2.6-0.5,5.1-1,7.7-1.7c1.9-0.6,3.6-1.3,5.4-2.1c1.2-0.5,2.1-1.3,2.5-2.6c0.1-0.4,0.4-0.7,0.7-1.2
		c0.5,0.9-0.1,1.6,0.1,2.3c1.2,1.4,2.9,1.9,4.7,2.1c0.9,0.1,1.8-0.2,2.3-1.1c0.4-0.6,0.7-1.2,1.1-1.7c0.3-0.5,0.5-0.9,0.8-1.4
		c0.4,0,0.6,0.1,1,0.1c0.1-0.1,0.3-0.2,0.4-0.4c0.5-1,1.1-1.9,2-2.6c0.3-0.2,0.7-0.5,1-0.7c1.2-0.6,1.7-0.5,2.2,0.8
		c0.6,1.5,1.1,3.1,1.6,4.7c0.3,0.8,0.2,1.5-0.3,2.2c0,0.1-0.1,0.1-0.1,0.2c-1.1,2.4-1.3,2.4-3.8,1.5c-1.7-0.6-3.3-1.5-4.9-2.2
		c-0.7,0.2-0.8,0.8-1.1,1.4c-1.5,2.7-3.3,2.8-6.4,1.9c-0.4-0.1-0.8-0.5-1.2-0.7c-0.3-0.2-0.7-0.5-1.1-0.8c-0.4,0.2-0.7,0.4-1,0.6
		c-1.7,1.3-3.6,2-5.5,2.7c-2.7,0.9-5.4,1.8-8.1,2.3c-3.6,0.7-7.3,0.7-10.9-0.1c-2.8-0.6-5.1-2.1-6.6-4.6c-0.6-0.9-0.9-1.9-1.1-2.9
		c-0.2-1.2-0.7-1.5-1.9-1.3c-0.3,0.1-0.7,0.1-1,0.3C35.3,292.5,33.7,293.6,32.6,295.4z M88.9,291.5c0.1-0.4,0.2-0.4,0.2-0.5
		c-0.1-0.3-0.2-0.7-0.3-1c-0.7-1.8-1.1-1.9-2.7-1c-0.2,0.1-0.3,0.3-0.6,0.6C86.6,290.4,87.7,290.9,88.9,291.5z"/>
	<path class="st0" d="M186.6,287.6c0,0.6,0.1,1.2,0.1,1.9c1.3,0.6,2.5,1,4,0.6c-0.4-1.7-0.1-3.2,0.8-4.6c0.7,1,1,1.9,0.8,2.9
		c-0.3,1.3-0.6,2.7-1.1,4c-0.4,1-1.3,1.5-2.3,1.4c-0.8,0-1.6-0.2-2.5-0.4c-0.4-0.1-0.8-0.1-1.3-0.2c-0.2,0.5-0.4,0.9-0.6,1.4
		c-0.7,2-2.2,3.1-4.2,3.6c-1.4,0.3-2.9,0.4-4.3,0.4c-0.8,0-1.6,0.1-2.4,0.5c-1.5,0.9-3.2,1.2-5,0.8c-1-0.2-1.8-0.6-2.6-1.2
		c-0.5-0.4-1-0.9-1.5-1.3c-0.9-0.1-1.4,0.5-2.1,0.8c-1,0.5-1.9,1.1-2.9,1.5c-3,1.3-6.2,1.4-9.3,0.8c-2.1-0.3-3.7-1.5-5.4-3.7
		c-0.3,0.3-0.7,0.6-1,0.9c-0.6,0.6-1.2,1.3-1.9,1.9c-1.8,1.4-4.4,1.3-6,0.1c-1.2-0.9-2.2-1.8-2.7-3.3c-0.3-0.8-0.7-1.7-1-2.5
		c-0.1-0.3-0.3-0.6-0.5-0.8c-0.8,0.4-1,1.1-1.1,1.8c-0.6,2.4-2.2,3.6-4.3,4.3c-1.1,0.4-2.3,0.6-3.4,0.8c-0.9,0.2-1.8-0.1-2.6-0.6
		c-1-0.5-1.6-1.3-1.5-2.5c0-1.1,0-2.2,0.7-3.4c0.2,1.1,0.6,2,1.6,2.5c1,0.5,2,0.5,3,0.4c0.2,0,0.4,0,0.6-0.1
		c1.2-0.4,2.4-0.8,3.5-1.3c2.1-0.9,2.8-2.8,2.1-4.7c-0.9-2.5-1.6-5.1-2.5-7.6c-0.5-1.4-0.6-2.8-0.1-4.4c0.3,0.4,0.6,0.7,0.7,1
		c2,4.5,4,8.9,5.6,13.6c0.5,1.4,1.4,2.5,2.7,3.3c1.9,1.2,3.9,1.2,5.8,0c0.7-0.4,1.3-1.1,1.8-1.7c0.5-0.5,0.9-1.2,1.6-1.5
		c0.1,0,0.1,0.1,0.2,0.1c0.7,2.1,2.4,2.9,4.3,3.5c2.2,0.7,4.5,0.6,6.8,0.2c1.3-0.3,2.7-0.7,4-1.2c0.5-0.2,0.9-0.5,1.4-0.8
		c-1-1.5-1.4-1.7-4.8-1.8c0-1.3,0.6-2.4,1.2-3.4c0.2-0.3,0.5-0.4,0.8-0.6c1.6-0.6,3.3-0.6,4.9-0.3c1.4,0.3,2.4,1.3,3.3,2.4
		c0.4,0.5,0.4,1.2,0.2,1.8c-0.2,0.7-0.5,1.3-0.8,2c0.3,0.3,0.6,0.6,0.9,0.8c2.5,1.1,4.8,0.7,7.1-0.7c0.7-0.4,1-1.1,1.2-1.9
		c0.1-0.4,0.3-0.9,1.1-1c-0.1,0.8-0.2,1.6-0.3,2.6c0.4,0.1,0.7,0.2,1.1,0.2c1-0.1,2.1-0.2,3.1-0.4c0.6-0.1,1.2-0.4,1.7-0.7
		c0.8-0.5,1.3-1.2,1.5-2.1c0.2-1,0.5-2,0.8-3C185.6,288.2,185.9,287.7,186.6,287.6z"/>
	<path class="st0" d="M159.3,280.6c0-1.3,0.4-2.4,1.5-3.2c0.6-0.5,1.2-0.9,1.9-1.3c3.2-1.8,6.3-3.7,9.6-5.3
		c3.4-1.7,6.7-3.5,10.1-5.3c1.1-0.6,2.2-1.4,3.3-2.1c-0.2,1.5-0.6,2.5-1.7,3.3c-1.3,0.9-2.6,1.8-4,2.5c-4.2,2.3-8.5,4.5-12.7,6.9
		c-2.5,1.4-4.9,3-7.4,4.6C159.7,280.7,159.5,280.6,159.3,280.6z"/>
	<path class="st0" d="M45,276.3c-0.2-1.1,0.2-1.5,0.7-1.9c1.2-0.9,2.3-1.8,3.5-2.5c6.1-3.3,12.2-6.6,18.4-9.9
		c1.3-0.7,2.5-1.4,3.8-2.1c0.3-0.2,0.6-0.3,1-0.4c-0.5,2.2-0.8,2.7-2.3,3.5c-4,2.2-8,4.4-12,6.5c-2.7,1.4-5.4,2.8-8.1,4.1
		c-1.1,0.6-2.2,1.2-3.3,1.8C46.3,275.7,45.7,275.9,45,276.3z"/>
	<path class="st0" d="M131.7,258.1c2.4,1.6,1.7,3.8,1.6,5.9c0.6,0.4,1.1,0.8,1.6,1.2c0.2,0.8,0,1.3-0.7,1.9
		c-0.6-0.3-1.2-0.5-1.9-0.8c-1.1,1.1-2.1,2.3-3.3,3.4c-1.2,1.1-2.4,2.1-3.6,3.1c-1.2,1-2.4,2-3.6,3c-0.5-0.2-0.4-0.6-0.3-0.9
		c0.3-0.4,0.6-0.7,1-1.1c1.8-1.7,3.7-3.3,5.5-5c1.1-1,2.1-1.9,3.1-3.2c-0.3-0.3-0.6-0.6-0.9-0.8c-0.2-0.2-0.5-0.3-0.7-0.5
		c-1.8-1.6-1.6-4.3,0.6-5.5C130.5,258.5,131.1,258.3,131.7,258.1z M132.2,263.2c0.4-0.8,0-1.4-0.2-2c-0.3-0.7-0.9-0.9-1.7-0.7
		c-0.6,0.2-0.9,0.8-0.4,1.2C130.5,262.4,131.3,263,132.2,263.2z"/>
	<path class="st0" d="M87,268.8c-1.3,2-3,3.7-4.8,5.3c-1.5,1.2-3.1,2.3-4.6,3.5c-0.3,0.2-0.6,0.4-0.9,0.5c-0.1,0-0.3-0.1-0.5-0.3
		c-0.1-0.1,0-0.3,0-0.4c0.2-0.3,0.5-0.5,0.7-0.7c2.9-1.9,5.4-4.3,7.8-6.7c0.6-0.6,1.1-1.2,1.5-2.1c-0.6-0.5-1.2-0.9-1.8-1.4
		c-0.9-0.7-1.2-1.5-0.8-2.7c0.4-1.2,0.9-2.3,2.2-2.8c0.7-0.3,1.2-0.2,1.6,0.4c0.7,1,0.9,2.1,0.8,3.3c-0.1,0.5-0.1,1.1-0.2,1.6
		c0.6,0.4,1.1,0.7,1.6,1.1C89.4,269.2,89.2,269.3,87,268.8z M87.1,265.5c-0.3-0.9-0.4-1.4-0.6-1.8c-0.2-0.3-0.6-0.6-1-0.6
		c-0.4-0.1-0.8,0.1-0.9,0.7C85.2,264.4,85.8,265,87.1,265.5z"/>
	<path class="st0" d="M146.4,267.8c0.5-1,0.7-1.6,1-2.1c1.1-2.1,3.3-2.3,5-1.6c1.6,0.7,1.6,0.6,3.1,0.5c-0.6,1.9-1.4,3.7-3.2,4.8
		c-0.4,0.2-0.7,0.4-1,0.7c-1.6,1.4-3.6,1.7-5.6,1.6c-0.2,0-0.4-0.1-0.5-0.2c-0.2-0.6,0.2-0.9,0.6-1c1.8-0.4,3.3-1.4,4.8-2.2
		c0.2-0.1,0.4-0.3,0.7-0.6C149.7,266.4,148.2,266.8,146.4,267.8z"/>
	<path class="st0" d="M148.5,307.3c-0.1,0.3-0.1,0.6-0.3,0.8c-0.3,0.7-0.7,1.3-1.1,2.1c-0.4-0.1-0.8-0.2-1.2-0.4
		c-0.7-0.3-1.2-0.9-2.1-0.9c-0.3,0.3-0.6,0.6-1,0.9c-0.4,0.4-0.8,0.8-1.2,1.1c-0.5,0.4-1.1,0.5-1.7,0.1c-0.9-0.6-1.8-1.2-2.5-2.2
		c0.4-1,0.7-2,1.5-2.9c0.9,0.6,1.6,1.2,2.4,1.6c1,0.6,1.6,0.4,2.3-0.5c0.3-0.3,0.5-0.7,0.7-1c0.2-0.3,0.4-0.5,0.6-0.8
		C146.5,305.7,147.5,306.5,148.5,307.3z"/>
	<path class="st0" d="M64.3,280.2c0.5,0.2,0.7,0.2,0.8,0.3c0.9,0.6,1.9,1.1,2.9,1.7c-0.1,1.3-1,2.1-1.7,3c-1.3-0.1-2-1.2-3.3-1.5
		c-0.3,0.5-0.6,1-1,1.5c-1.1,1.6-1.8,1.7-3.4,0.7c-0.5-0.3-0.9-0.6-1.3-1c-0.2-0.1-0.3-0.3-0.4-0.5c0.4-1,0.7-2,1.6-2.9
		c0.5,0.3,0.9,0.6,1.4,0.8c0.5,0.3,0.9,0.6,1.4,0.8c0.7,0.3,1.4,0.1,1.8-0.6C63.5,281.8,63.8,281.1,64.3,280.2z"/>
	<path class="st0" d="M39.5,265.3c0.3,1.7-0.3,3.1-1,4.5c-0.3,0.7-1.1,1-1.9,0.9c-0.3-0.1-0.6-0.2-1-0.3c-0.3,0.3-0.5,0.6-0.8,0.9
		c-0.7,0.7-1.6,0.8-2.5,0.7c-0.8-0.1-1.2-0.7-1.1-1.5c0.2-1.2,0.6-2.2,1.1-3.4c0.5,1.1,0.7,1.4,1.2,1.4c0.9,0.1,1.8-0.1,2.3-1
		c0.2-0.4,0.4-0.8,0.6-1.3c0.6-0.1,0.4,0.4,0.6,0.6c0.7,0.6,1.5,0.4,1.8-0.3C39.2,266.1,39.3,265.7,39.5,265.3z"/>
	<path class="st0" d="M144.6,277.8c-0.3,0.4-0.7,0.8-1,1.2c-0.5,0.7-0.4,1.3,0.4,1.7c0.6,0.3,1.2,0.6,1.9,0.8
		c0.8,0.2,1.6,0.1,2.2-0.7c0.3-0.4,0.7-0.7,1.3-1.2c-0.1,0.5,0,0.7-0.1,0.8c-0.8,1-1.7,2-2.6,2.9c-1.3,1.2-3.8,1.1-5.3-0.1
		c-0.3-0.2-0.5-0.7-0.5-1c0-0.5,0.1-1,0.4-1.4C142,279.5,143,278.4,144.6,277.8z"/>
	<path class="st0" d="M62.3,278.9c-1.4-0.9-2.7-1.7-4-2.6c0.2-1.5,0.3-1.7,1.4-3.1c1.4,0.4,2.5,1.2,3.6,2.2c0.4,0.4,0.4,0.8,0.2,1.3
		c-0.1,0.3-0.3,0.6-0.4,0.9C62.8,278,62.6,278.4,62.3,278.9z"/>
	<path class="st0" d="M31.2,277.7c1.2,0.6,2.3,1.5,3.4,2.3c0.1,1.1-0.6,1.8-1.1,2.6c-0.2,0.4-0.8,0.4-1.1,0.2
		c-0.9-0.6-1.8-1.2-2.8-1.9C29.9,279.6,30.2,278.5,31.2,277.7z"/>
	<path class="st0" d="M21.8,291.7c3.3,2.7,4.5,7.9,2.6,11.6c0-0.5-0.1-0.8-0.1-1.1c0.6-3.1-0.4-5.7-2.4-7.9
		C21,293.4,21,293.2,21.8,291.7z"/>
	<path class="st0" d="M132.2,263.2c-1-0.2-1.7-0.8-2.3-1.5c-0.4-0.4-0.2-1.1,0.4-1.2c0.8-0.2,1.4,0,1.7,0.7
		C132.3,261.8,132.7,262.4,132.2,263.2z"/>
	<path class="st0" d="M87.1,265.5c-1.3-0.5-1.9-1.1-2.4-1.7c0.1-0.6,0.5-0.8,0.9-0.7c0.4,0.1,0.8,0.3,1,0.6
		C86.8,264.1,86.8,264.6,87.1,265.5z"/>
	<path class="st0" d="M110.5,293.3c-0.4-1-0.6-2-0.6-3.1c-0.2-0.5-0.3-0.9-0.4-1.4c0,0,0,0,0,0c-0.3-0.3-0.6-0.7-0.8-1
		c-1-1.3-2.2-2.2-3.6-3c-0.5-0.3-0.9-0.4-1.5-0.5c-0.5-0.1-0.9,0.1-1.1,0.4c-0.2,0.3-0.4,0.6-0.6,0.9c-0.3,0.6-0.5,1.2-0.8,1.7
		c-0.3,0.6-0.4,1.2-0.4,1.9c0,0.6,0,1.1,0,1.7c0,0.5,0,1,0,1.6c0,0.2,0,0.3,0.1,0.5c0.3,0.6,0.6,1.1,1.2,1.4
		c0.7,0.4,1.4,0.6,2.2,0.6c1.6,0.1,3.1-0.3,4.5-1c0.2-0.1,0.3-0.2,0.6-0.2c0.4,0.5,0.5,1,0.2,1.6c-0.1,0.2-0.2,0.4-0.3,0.7
		c-0.5,0.9-0.9,1.8-1.6,2.7c-0.4,0.5-0.8,1-1.1,1.5c-0.6,0.8-1.2,1.5-2,2.1c-0.6,0.5-1.2,1-1.8,1.4c-2.3,1.5-4.8,2.1-7.5,2.1
		c0,0-0.1,0-0.1,0c-0.9-0.1-1.9-0.1-2.8-0.3c-0.2,0-0.4,0-0.6,0c-0.1,0-0.2,0.1-0.2,0.2c0,0.1,0.1,0.3,0.1,0.3
		c0.3,0.2,0.7,0.3,1,0.4c0.5,0.2,0.9,0.5,1.4,0.6c1.1,0.4,2.2,0.7,3.3,1c1.4,0.4,2.9,0.6,4.4,0.5c1-0.1,1.9-0.4,2.7-1.1
		c0.2-0.2,0.4-0.4,0.6-0.6c0.5-0.4,0.9-0.9,1.3-1.4c0.7-0.8,1.4-1.7,2-2.7c0.5-0.7,0.9-1.5,1.2-2.3c0.5-1.1,0.6-2.2,0.8-3.4
		c0-0.2,0-0.3,0-0.5C110.2,295.5,110.4,294.4,110.5,293.3z M106.3,290.4c-0.5,0.2-1.7,0.4-2.2,0.4c-0.7,0-1.4-0.2-2.1-0.5
		c-0.2-0.1-0.3-0.4-0.2-0.5c0.1-0.2,0.2-0.4,0.3-0.7c0.4-0.7,0.6-0.8,1.5-0.6c0.3,0.1,0.6,0.2,0.9,0.3c0.7,0.3,1.3,0.7,1.9,1.3
		C106.5,290.1,106.4,290.3,106.3,290.4z"/>
</g>
</svg>
