<svg id="Layer_1" xmlns="http://www.w3.org/2000/svg" viewBox="0 0 500.2 315"><style>.st0{fill:#00f}</style><path class="st0" d="M114.3 167.6c-.7 0-.8.5-1 .8-.8 1.4-1.6 2.7-2.4 4.1-3.7 6.1-7.5 12.2-12.1 17.7-5.8 7-11.9 13.6-19.4 18.9-7 4.9-14.6 8.1-23 9.7-7.1 1.3-13.9.5-20.5-2.3-4.9-2-8.8-5.4-11.6-9.8-3.7-5.8-6.4-12-7.8-18.8-1.8-8.5-2-17.1-1.2-25.8.4-4.3.7-8.6 1.3-12.9.4-2.8.7-5.6 1.6-8.3.2-.4.4-.9.6-1.2.8-.1 1 .4 1.2.8.7 1.5.9 3 .8 4.6-.3 4.9-.7 9.8-1.1 14.7-.5 6.5-.5 13 1.3 19.3.9 3.2 2.2 6.3 3.8 9.2 3.4 5.9 8.4 9.5 14.8 11.4 8.9 2.6 17.5 1.5 25.7-2.5 3.3-1.6 6.3-3.7 9.2-6 6.5-5 12.2-10.7 17.7-16.8 2.4-2.7 4.4-5.6 6.6-8.4 4.1-5.3 7.6-11.1 11-16.9 2.7-4.7 5.2-9.5 7.2-14.5.7-1.8 1.3-3.6 1.9-5.4.5-1.5.4-2.9-.5-4.3-1.3-2-2.5-4.1-4.3-5.8-.9.3-1.5 1-2.2 1.6-2.8 2.3-5.5 4.8-8.4 7.1-2.4 2-5 3.6-7.9 4.7-3.1 1.2-6.3 1.6-9.5.8-2.9-.6-5.1-2.3-6.8-4.6-2.8-3.9-4.3-8.3-5.2-12.8-1.3-6.5-1.2-12.9.8-19.2.5-1.5 1.2-2.9 1.9-4.3 1.6-3 4.4-4.2 7.6-4.3 2-.1 4 .2 5.9.7 7 1.8 13.4 4.9 19 9.5l1.2.9c2.3-1.5 9.8-11.1 10.8-15-.3-.4-.6-1-1.1-1.4-1.7-1.6-3.5-3.1-5.3-4.6-5.1-4.1-10.4-8-15.5-12.2-3.9-3.2-7.8-6.5-11.2-10.2-2.1-2.3-4.7-4.3-7.6-5.5-1.8-.8-2.5-2-2.7-3.8l-.9-6.9c-.3-2-.6-3.9-.8-5.9-.1-.5-.2-1-.1-1.5.1-.3.4-.6.6-1 2.9 1.3 5.8 2.5 8.5 3.9 5.1 2.6 10.1 5.4 15.1 8.2 1.4.8 2.8 1.8 4.1 2.8.8.5 1.3 1.3 1.3 2.3-.7 1-1.7.7-2.7.6-1.4-.1-2.8-.3-4.2-.4-.4 0-.8 0-1.2.1-.4.5-.1.8.2 1.1 2.5 2 5 3.9 7.5 5.8 3.6 2.8 7.3 5.5 10.9 8.3 2.6 2 4.7 4.5 6.5 7.2.7 1.1 1.3 2.3 1.7 3.6 1.2 3.6 2.2 7.3 3 11.1 1.1 5.3.1 10.4-1.7 15.4-.8 2.3-1.9 4.4-3.3 6.4-.2.3-.4.5-.6.8-1.9 3-1.9 3-.7 6.4 1.3 3.8 2.3 7.7 2.9 11.6.7 4.5 1.2 9.1.7 13.7-.3 3-.9 5.9-2 8.7-.7 1.7-1.3 3.4-2.1 5.1-1.4 2.7-1.7 5.5-1.3 8.5.4 2.6.9 5.2 2.1 7.7 2.8 5.8 7.2 9.5 13.6 10.5 4.8.8 9.6.8 14.4-.3 3.7-.9 7.3-2.1 10.8-3.7 3.2-1.4 6.4-2.9 9.4-4.5 4.2-2.2 8.3-4.5 12-7.5 3.2-2.5 6.5-4.9 9.6-7.5 4.8-4.1 9.4-8.4 13.6-13.2 1.2-1.4 2.2-2.9 3.2-4.5.9-1.4 1.2-2.9 1-4.5-.6-4-1.4-8-3-11.8-1.5-3.6-3.2-7.1-4.7-10.7-1.4-3-2.8-6-4.7-8.8-.6-.9-.7-1.8-.5-2.8 1.3-5.3 2.6-10.7 3.9-16 .1-.5.4-1.1.7-1.8.4.4.8.6 1 .9.8 1.2 1.6 2.3 2.3 3.5 1.3 2.2 3.2 3.8 5.3 5.2 1.2.8 2.5 1.3 3.9 1.5 6.7.9 12.7-.4 18-4.7 3.6-3 6.3-6.6 7.8-11.1.6-1.8 1.2-3.6 1.9-5.4 1.2-3.7 3.3-7.1 5.2-10.5.4-.6.7-1.4 1.6-1.3.7.1.7.9.9 1.4 3.5 7.5 5.7 15.4 6.7 23.6.5 3.9 1 7.7 1.4 11.6.3 3.1.4 6.1.7 9.2.5 4.9 1.5 9.7 3.5 14.2 1.5 3.5 3.6 6.6 6 9.4 2.5 3 5.1 5.9 8 8.5 3.4 3 7.1 5.8 11 8.2 5.5 3.3 11.2 6.3 17.1 8.7 1.8.7 3.6 1.4 5.4 2 8.6 2.9 17.3 5.4 26.1 7.4 5.6 1.3 11.2 2.7 16.8 3.8 7.8 1.5 15.7 2.9 23.5 4.2 5.5.9 11 1.7 16.5 2.5 5.6.8 11.2 1.5 16.8 2.2 2.8.3 5.6.5 8.4.8l12.9 1.2c1.2.1 2.5.2 3.7.3 5.1.3 10.3.6 15.4.8 3.6.1 7.1-.2 10.7-.1 4 .1 8-.4 11.9-.7 1.4-.1 2.8-.2 4-1 .6-1.2.6-2.5.7-3.7.4-7.3-.9-14.4-2.8-21.4-.3-1-.5-1.9-.8-2.9-.4-1-.2-2 .3-2.9 2.2-4 4.4-8 6.5-12.1.1-.1.2-.3.3-.4.3-.5.6-1.1 1.3-1.1.9 0 .9.9 1.1 1.5 1.9 5.7 3.3 11.5 4 17.5.5 4.3.3 8.6-.1 12.9-.6 5.8-2.8 10.9-5.5 15.9-.9 1.7-2 3.3-2.9 5-1 1.8-2.3 3.2-3.6 4.7-.7.8-1.5 1.2-2.5 1.5-3.7 1.2-7.6 1.9-11.4 2.4-3.1.4-6.3.6-9.4.8-6.1.4-12.1.2-18.2.2-4 0-8-.4-11.9-.7-2.6-.2-5.1-.4-7.7-.6-5.9-.5-11.8-.9-17.6-1.4-7.6-.6-15.2-1.8-22.7-2.9-3.9-.6-7.9-1-11.8-1.7-6.5-1.2-13.1-2.4-19.6-3.8-5.6-1.2-11.2-2.4-16.8-3.7-6.8-1.6-13.4-3.9-20.1-5.9-8.5-2.5-16.4-6.5-24-10.8-3.1-1.8-6.2-3.6-9-5.8-3-2.4-5.7-5-8.5-7.6-1.3-1.2-2.3-2.6-3.6-3.8-6-6.2-9.2-13.7-10.7-22.1-.7-4.2-1.3-8.4-1.6-12.6-.4-5.9-1-11.8-1.4-17.6-.3-4.5-1.5-8.8-3-13.1-.1-.4-.3-.7-.5-1-.7-.1-.9.4-1 .7-.6 1.5-1.1 2.9-1.6 4.5-.6 1.8-1 3.7-1.5 5.5-1.8 6-4.9 11.1-9.5 15.3-3.2 2.9-7 4.4-11.3 4.6-1 .1-2-.1-2.9.4.3 2.1.6 4.1.9 6.2.6 4.2.8 8.4.7 12.7-.1 4-.5 8-1.3 11.9-.8 3.9-2.2 7.7-4.2 11.1-3.6 6.2-8.5 11.4-13.6 16.5-3.5 3.5-7.4 6.5-11.1 9.7-5.6 4.8-11.8 8.7-18.4 11.8-3 1.4-6 2.8-9.1 4-3.6 1.4-7.4 2.5-11.3 2.7-3.3.2-6.5.3-9.7-.1-2.5-.3-4.9-.9-7.2-1.8-5.1-2.1-8.8-5.6-11.2-10.5-2-4.1-3.2-8.4-3.5-12.9-.1-2.7-.3-4.7-.5-6.8zm-14.1-58.7c-3-2-8.2-3.6-11.6-3.4-.5 0-1 0-1.5.1-1.8.3-3.1 1.1-3.7 2.9-.5 1.5-1 3-1.4 4.5-.2.6-.1 1.3-.1 2s.5 1.1 1.1 1.1c.9 0 1.8-.1 2.7-.3 4.9-1.3 9.4-3.6 13.8-6.2.3-.2.5-.4.7-.7z"/><path class="st0" d="M388.1 115.7c-.5.4-.8.6-1 .8-1.8 2.1-3.5 4.2-5.3 6.3-.8.9-1.5 1.8-2.3 2.6-.7.7-1.6 1.2-2.6 1.3-1.2.2-2.1-.1-2.8-1.1-3.5-4.6-7.6-8.8-11-13.6-1-1.5-1-1.8.2-3.2 1.8-2 3.6-3.9 5.4-5.9l3.9-4.5c.4-.5 1-.8 1.6-1.4 1 1.2 1.8 2.4 2.7 3.5 1.4 1.8 2.8 3.5 4.2 5.2 1.1 1.4 2.2 2.7 3.3 4 .7.8 1.4 1.7 2.2 2.4.7.7 1.4.7 2.2.2.4-.3.8-.7 1.1-1 2.6-2.6 5.3-5.3 7.9-8 .6-.6 1.2-1.4 2.2-1.7.9.5 1.5 1.4 2.1 2.1.9.9 1.6 1.9 2.5 2.7 3.2 3.1 6 6.5 8.7 9.9.6.7.9 1.5 1.4 2.4-.3.5-.5.9-.8 1.3-2.7 3.4-5.7 6.5-8.9 9.4-.8.7-1.6 1.5-2.8 1.7-1.6-1.6-2.8-3.6-4.4-5.3-1.5-1.8-3-3.5-4.6-5.2-1.7-1.6-3.4-3.2-5.1-4.9zm-129.9 52.1c4.2 5.3 9.5 9.6 13.2 15.4-.4.6-.7 1.2-1.1 1.6-3.6 3.6-7.3 7.1-11.2 10.3l-.8.4c-3.2-5.2-7.9-9.1-11.9-13.8-.5.5-1 .8-1.3 1.2-2.8 3.6-6.3 6.6-9.4 9.9-.5.5-1.1 1-1.9 1.1-2.4-1.5-9-8.3-14-14.7 0-.8.5-1.3 1-1.9 3.2-3.4 6.4-6.8 9.5-10.2.4-.5.8-1.1 1.8-1.1 1.9 2.6 4.1 5 6.4 7.4 2.3 2.3 4.4 4.7 7.1 6.7 1.2-1.2 2.3-2.3 3.4-3.5 2.3-2.5 4.7-5 7-7.4.5-.4 1-1.1 2.2-1.4zM24.3 82.1c-1.8.9-3 1.9-3.9 3.1-2.4 3.2-4.7 6.4-7.1 9.6 0 .1-.1.1-.1.2-2.7 3.5-4.9 7.3-6.8 11.3-.1.2-.3.3-.6.6-.4-.3-.8-.6-1-.9-.5-1-.9-2-1.2-3-1-3.2-1.9-6.4-2.9-9.5-.2-.6-.4-1.3-.5-1.9-.4-1.6-.2-3.2.8-4.7C5.5 80.3 10.4 74 15.6 68c.9-1.1 2-1.9 3.2-2.8.5-.4 1.2-.7 1.8-.8 1.2-.3 1.9.1 2.3 1.2 2 5.4 4 10.7 5.8 16.2.8 2.3 1.3 4.6 1.3 7.1 0 1.6-.4 3.1-1 4.6-2.3 5.4-4.5 10.9-6.7 16.4-.2.4-.3.8-.5 1.2-.3.7-.8 1.2-1.2 1-.6-.2-1-.7-1-1.3-.1-.6-.1-1.3 0-2 1-5.1 1.7-10.3 2.9-15.4.8-3.1 1.2-6.2 1.7-9.3.2-.5.1-1 .1-2zm175-43.7c-.1-1.9.2-2.2 1.5-2.8 2.2-1.1 4.5-2.2 6.7-3.2 3.6-1.7 7.2-3.3 10.9-5 1.7-.8 3.5-1.6 5.2-2.4.8-.3 1.5-.7 1.8-1.7-.7-.9-1.7-1.2-2.7-1.3-2-.4-3.9-.8-5.9-.9-5.1-.3-10.3-.5-15.4-.7-.7 0-1.3 0-2 .1-1.1.2-2.1.4-2.9 1.3-.9.9-1.9 1.1-3.2.9 0-1.1.6-1.7 1.1-2.3 3.2-3.8 6.3-7.5 9.5-11.2 1.8-2.1 4-3 6.8-2.8 5.4.4 10.8.7 16.2 1.2 3 .3 5.9.9 8.8 1.5.9.2 1.7.6 2.4 1.2 1.4 1 1.6 2.8.5 4.2-1.5 1.8-3 3.5-4.6 5.2-2.9 3-5.7 6-8.7 8.9-1.7 1.7-3.5 3.3-5.5 4.7-2.3 1.7-5 2.6-7.8 3.3-2.9.7-5.8 1.4-8.8 1.5-.9 0-1.8.3-2.7.5-.4-.2-.8-.2-1.2-.2zM311 32.7c-.7-.9-1.5-1.2-2.4-1.3-1.9-.3-3.8-.7-5.7-.9-4-.3-7.9-.7-11.9-.6h-5.5c-1.4 0-2.6.4-3.6 1.4-.8.8-1.8 1.1-3.1.6.2-.4.2-.9.4-1.2.6-.8 1.2-1.6 1.8-2.3 2.4-2.8 4.7-5.6 7.1-8.4l1.8-2.1c1.6-1.8 3.7-2.4 6.1-2.2 5.4.4 10.8.7 16.2 1.2 3 .3 6.1.9 9.1 1.5.8.1 1.6.6 2.2 1 1.4.9 1.7 3.2.6 4.4-1.5 1.6-3 3.4-4.5 5-3 3.1-6 6.3-9 9.3-1.7 1.6-3.4 3.2-5.3 4.5-2.3 1.7-5 2.6-7.8 3.2-3.1.7-6.1 1.4-9.3 1.6-.8 0-1.6.3-2.4.5-.8.1-1.2-.4-.9-1.3.2-.7.6-1.2 1.2-1.5 3.6-1.7 7.2-3.5 10.8-5.1 3.8-1.8 7.7-3.5 11.6-5.2.6-.3 1.2-.5 1.8-.9.2-.4.4-.9.7-1.2zm-3.7 73c-1.4-.7-2.6-1.1-3.6-1.8-1.4-1-3-1.8-4.5-2.6-.7-.3-1.3-.8-1.8-1.3-.7-.6-.9-1.3-.7-2.2.3-.9.5-1.8.8-2.6.9-2.1 1.8-4.1 2.7-6.1.6-1.2 1.1-1.3 2.2-.7 2.3 1.3 4.2 3 5.5 5.3 3.1 5.3 6 10.7 7.7 16.7.6 2 1.3 3.9 2 5.9.1.3.3.5.7 1.1.4-1.7.7-3 1-4.4.6-2.8 1.1-5.5 1.8-8.3.6-2.9 1.7-5.7 3.2-8.3 1.1-1.9 2.3-3.9 3.5-5.8.8-1.2 1.8-2.1 3.1-2.8.9-.5 1.7-.5 2.6-.1 1 .5 1.8 1.1 2.5 2 1.7 2.6 2.8 5.4 3.7 8.4.1.4.1.9 0 1.2-.7 1.9-1.6 3.6-3.5 4.7-.1.1-.3 0-.6 0-.2-.5-.5-.9-.7-1.5-.6-1.4-1.2-2.9-1.9-4.3-.5-.9-1.1-1.9-1.8-2.7-1.1-1.2-2.1-1.2-3.2 0-.7.7-1.2 1.6-1.7 2.4-1.5 2.6-2.1 5.6-2.8 8.5-.5 2.2-1 4.4-1.4 6.6-.3 1.2-.4 2.4-.7 3.7-.6 3.1-1.5 6.1-2.8 9-.1.2-.1.3-.2.4-.9 1.5-2.1 1.6-3 0-.5-.9-.8-2-1.2-3-1.2-3.5-2.4-7.1-3.6-10.6-1-2.4-2.1-4.8-3.3-6.8zm138.8-38.9c-.7-.3-1.3-.4-1.6-.7-1.4-1.5-3.1-2.7-4.7-4l-.2-.2c-3.1-3.1-3.3-3.8-1.3-7.5.9-1.6 1.9-3.1 3-4.6 1.2-1.6 2.9-1.7 4.2-.1 1.1 1.4 2.2 3 2.9 4.6 1.8 4.1 3.2 8.4 3.7 12.9.4 3.3.6 6.6.6 9.9 0 .6 0 1.3.1 1.9.6.3.7-.1.8-.4 1.4-2.8 2.8-5.5 4.1-8.3 2.3-5 5.4-9.5 9-13.7.7-.8 1.6-1.5 2.4-2.1.5-.4 1.2-.7 1.8-.8 2.6-.4 3.8.2 5.1 2.6 1.3 2.6 1.7 5.4 1.9 8.2.1.9-.3 1.8-.8 2.6-.8 1.3-2.1 2.4-4 3.5-.1-.4-.3-.7-.4-1.1-.3-1.6-.5-3.1-.8-4.7-.3-1.3-.7-2.6-1.6-3.6-.9-1.1-2.4-1.5-3.6-.7-.8.5-1.6 1.2-2.2 2-1.2 1.8-2.4 3.6-3.4 5.5-2.1 4.2-4.1 8.5-6.2 12.8-1 2.1-2.3 4-3.6 6-.5.8-1.2 1.9-2.3 1.5-.9-.3-.9-1.5-1-2.4-.2-3.3-.3-6.6-.6-9.9-.2-2.7-.7-5.4-1.1-8.1.1-.4-.1-.7-.2-1.1zM135.3 26.7c-1.2 0-2 .1-2.8 0-1.7-.1-3.5-.2-5.2-.4h-1c-3.2-.4-4.3-1.3-4.7-4.4-.3-2.1-.3-4.3-.3-6.5 0-1.8 1.4-2.8 3.3-2.4 2.4.6 4.7 1.7 6.8 3.1 5.2 3.4 9.6 7.6 13.3 12.6 1 1.4 2 2.8 3.4 4.5 0-.8.1-1.2 0-1.5-.6-3.4-1.3-6.7-1.7-10.1-.4-3.2-.6-6.5-.6-9.7-.1-2.1.2-4.1.4-6.2.1-.7.4-1.4.5-2.2.4-1.7 1.6-2.6 3.1-3.3.6-.3 1.3-.4 1.9-.1.8.4 1.7.6 2.5 1.1 2 1.2 3.6 2.9 5.1 4.7.9 1.1 1.4 2.5 1.1 4-.2 1.4-.2 2.8-1.3 4.1-.3-.3-.6-.6-.9-.8-1.2-1.2-2.3-2.4-3.6-3.4-.8-.7-1.8-1.2-2.8-1.6-1.6-.6-3 0-3.6 1.6-.3.7-.5 1.4-.5 2.2 0 2.2 0 4.3.3 6.5.7 4.9 1.7 9.8 2.5 14.7.3 2.2.4 4.5.6 6.7.1 1 .1 2.2-1 2.6-1 .3-1.6-.7-2.2-1.4-2-2.4-3.9-4.9-6-7.3-1.7-2-3.5-3.8-5.2-5.7-.5-.6-1-1-1.4-1.4zm-65 31.8c-1.9-.4-3.5-.8-5.2-1.2-.2.6-.4 1-.5 1.5-.1.4-.1.8 0 1.2.1 2.7-.4 5.3-.9 7.9-1.4 7.4-3.8 14.5-6.2 21.6-1.7 5-3.7 9.8-6 14.5-1.8 3.7-3.5 7.3-5.2 11-.9 1.9-1.6 3.8-2.5 5.7-.2.4-.5.8-.6 1.2-.6-.1-.6-.5-.6-.8.1-.5.2-1 .4-1.4 2.5-7.7 5.1-15.4 8.2-23 3.6-8.8 6.4-17.8 9-26.9.9-3 1.4-6.2 1.9-9.3.2-1 .2-2 .2-3-1.3-.5-2.7-.4-4.1-.5-1.4-.1-2.8 0-4.2.1-3 .1-4.6-1-5.2-3.8-.4-1.9-.7-3.9-.9-5.9-.1-1.2.1-2.3.6-3.4.8-1.8 1.6-3.5 3-4.9 1-1 2.1-1.3 3.4-.9 2.2.6 3.8 2 5.1 3.8 1.4 2 2.5 4.1 2.9 6.6.2 1.2.8 1.7 2 1.8 1.3.1 2.4.5 3.6 1.1.9.5 1.6 1.2 1.9 2.2.4 1.2.7 2.4.6 3.7-.3.2-.5.6-.7 1.1zm-9.8-9c-.8-1.7-1.9-2.9-3.4-3.6-2.1-1.1-3.4-.7-4.7 1.2-.3.4-.6.8-.8 1.3-.2.4-.1.9-.2 1.5h8.4c.1-.1.3-.2.7-.4zm6.2 98c-1.3-.6-2.4-1.2-3.6-1.6-1.2-.5-2.5-.8-3.9-.6-.9.1-1.3.6-1.4 1.4-.2 1.8-.1 3.7.4 5.4.6 2.5 1.5 4.9 2.5 7.3 2 4.8 4.3 9.4 5.5 14.4.3 1.2.4 2.3.2 3.4-.1.6-.8 1-1.3.6-1-.8-1.9-1.6-2.8-2.5-1.9-1.8-3.6-3.7-5.5-5.4-2.1-1.8-4.3-3.4-6.5-5-.6-.4-1.3-.7-2-1.1-.2.8-.4 1.4-.5 2-.3.1-.5.3-.8.3-2.4-.1-4.8 0-7.2.5-.8.2-1.7.1-2.5.1-1.1 0-1.9-.6-2.2-1.6-.8-2.8-1.6-5.6-1.8-8.5-.1-1.2.4-2.1 1.7-2.4.8-.2 1.6-.5 2.4-.5 3-.2 5.9.4 8.6 1.9 4.7 2.7 9.1 5.9 12.9 9.7.5.5 1 1.3 2.1 1.5-.1-.5-.2-.8-.3-1.1-1.7-3.6-3-7.4-3.9-11.3-1-4.2-1.9-8.4-1.4-12.8.1-1.1.4-2.1 1.1-3 .4-.5.8-.8 1.4-.9 3-.5 5.6.4 7.9 2.2.3.2.6.6.7 1 .5 2 1.1 4.2.2 6.6zm87-42.2c2.8 1.8 5.7 2.7 8.4 3.8 2.5 1 5.1 1.9 7.7 2.9.4.1.8.3 1.1.5 1.9 1 2.3 1.6 2 3.7-.4 3.1-.8 6.2-1.4 9.4-.2 1.5-.7 2.9-1.1 4.3-.2.6-.6 1.1-.9 1.7-4.8-2.7-9.8-4.4-14.8-6.2-1.5-.5-2.9-1.2-4.3-1.9-.6-.3-.8-.8-.7-1.4.1-.7.3-1.3.4-1.9.9-4.1 1.8-8.3 2.7-12.4.3-.7.5-1.4.9-2.5zm292.4 4.8c-1.3 2.4-2.6 4.8-4 7.2-1.5 2.7-3.1 5.3-4.6 8-.7 1.2-1.4 2.5-2 3.8-1.4 3-1.1 6 .2 8.9.2.4.5.9.8 1.2.8.9 1.8 1.1 2.9.7 1.6-.6 2.8-1.8 3.5-3.3.5-1.1 1-2.3 1.4-3.4.3-.8.5-1.5 1.1-2.1.6.1.5.5.5.8-.2 1.1-.4 2.1-.8 3.1-1.4 3.7-3.5 7-6 10-.7.8-1.6 1.5-2.6 1.9-1.2.6-2.3.3-3.2-.5-.5-.5-1-1.1-1.4-1.8-2-3.5-2-7.1-.4-10.8 1.4-3.4 2.9-6.7 4.8-9.8 2.1-3.6 4.2-7.2 6.3-10.7.6-1.1 1.4-2.1 2.1-3.1.2-.2.5-.3.7-.4.5 0 .6.2.7.3zm-58.9-58.9c-.1.5-.2 1-.3 1.4-1.3 3.2-2.9 6.1-4.9 8.9-.7 1-1.7 1.8-2.7 2.6-.2.2-.5.4-.8.5-1.6.6-2.6.7-3.7-.8-1.3-1.6-2-3.4-2.5-5.4-.6-2.5 0-5 .8-7.3 1.1-3.1 2.5-6.2 3.9-9.2 2.4-5.1 4.9-10.1 7.8-15 .2-.4.5-.8 1.1-1.6 0 .8 0 1.1-.1 1.4-.4 1-.9 2-1.4 2.9-1.9 3.8-3.8 7.5-5.7 11.3-1.2 2.5-2.1 5-2.6 7.7-.6 3.1.3 5.8 1.9 8.3.7 1.2 1.7 1.4 3 .9 1.4-.5 2.4-1.4 3.2-2.6.8-1.4 1.7-2.8 2.6-4.2.1.1.2.1.4.2zM181.6 66.9c0 .7 0 1.3-.1 1.9-.9 2.9-1.7 5.7-2.8 8.5-.5 1.3-1.4 2.4-2.2 3.6-.2.3-.6.6-.9.9-1.4 1.1-2.5 1.2-3.8 0-2.4-2.2-4.1-4.8-4.2-8.2-.1-2.5 0-5 .6-7.4 1.2-4.7 2.4-9.5 3.7-14.2.8-2.9 1.8-5.7 2.7-8.5.1-.4.1-.8.8-.9 0 .4.1.8 0 1.1-.7 2.4-1.3 4.8-2 7.2-1.1 3.9-2.3 7.8-2.9 11.8-.2 1.6-.3 3.3-.2 5 .2 2.7 1.5 4.9 3.3 6.8 1 1 1.9 1.1 3.1.4 1.2-.7 2.2-1.8 2.7-3.2.4-1.2.9-2.5 1.4-3.7 0-.5.1-1 .8-1.1z"/><path class="st0" d="M60.5 49.5c-.4.2-.6.3-.7.3h-8.4c.1-.6.1-1.1.2-1.5.2-.5.5-.9.8-1.3 1.3-1.9 2.6-2.2 4.7-1.2 1.5.9 2.6 2 3.4 3.7zm242.1 199.1c0 .1.1.3.1.4-.2.9-.5 1.7-.8 2.6-3.2 1.7-6.4 3.3-9.5 5-5.1 2.8-10.1 5.6-14.9 8.9-2.9 2-5.9 4-8.8 6.2-1.5 1.1-3.1 2.3-4.4 3.9.3.2.6.5.9.7 2.8 1.6 5.6 3.2 8.2 5.2 2.5 1.9 5 3.9 7.2 6.2 1.1 1.1 2.2 2.1 3.3 3.1.8.7 1.8 1.3 3 1.1 1.4-.2 2.9-1.6 2.9-3 0-.9 0-1.8-.2-2.7-.5-2.8-1.2-5.5-1.7-8.3-.4-2.3-.7-4.6-1-6.9-.1-.7-.1-1.4-.5-2-.5-.6-.5-1.3-.3-2 .3-1.1.5-2.3 1.5-3.4.3 1.9 1 3.3 2.3 4.1.2 1-.2 1.7-.6 2.4-.6 1-.7 2-.4 3.2.7 2.9 1.3 5.8 1.9 8.7.2.9.4 1.9.5 2.8.5 3.1-.2 6-1.9 8.7-.3.5-.7 1-1.2 1.4-1 .9-2.2 1.1-3.4.5-1-.5-1.9-1.1-2.7-1.9-3-2.6-5.9-5.2-8.8-7.9-.5-.4-1.1-.8-1.9-1.4.3 1 .4 1.8.7 2.6 1.1 3-.8 7-3.8 8.3-.1 0-.1.1-.2.1-1.9.4-2.5 1.8-3 3.5-1.2 3.4-3.3 6.2-6.1 8.4-1.3 1-2.7 1.4-4.2 1.2-1.5-.2-3-.5-4.5-.8-.6-.1-1.2-.4-1.4-1 .1-.5.5-.4.7-.4 3.1.5 5.9-.4 8.4-2.1 2.5-1.6 4.6-3.7 6.1-6.4.1-.2.2-.4.2-.6v-.2c-.7.1-1.5.2-2.2.2h-1.7c-2.5-.3-3.2-1.2-2.9-3.7.2-1.8.9-3.3 1.7-4.8.3-.6.9-1 1.4-1.4.8-.6 1.3-.5 2 .2 1.2 1.3 2.4 2.7 3.2 4.3.1.2.3.5.5.8.8.1 1.4-.4 2.1-.7.7-.4 1.5-.8 2.2-1.2.7-.4.8-.9.5-1.6-.5-1.2-1.3-2.3-2.2-3.2-1.3-1.3-2.7-2.5-4.1-3.8l-.3-.3c-2.1-1.5-2.5-3.7-2.1-6.1.2-.9.4-1.7 1.1-2.4 1-1 1.9-2 2.9-2.9 3-2.4 6.1-4.8 9.4-6.8 2.9-1.8 5.8-3.7 8.7-5.5 5.7-3.5 11.7-6.5 17.6-9.5.2.1.3.2.5.2zM261 293.4c-.3-1.1.5-1.8.1-2.8-.9.6-1.5 1.2-1.7 2.4l1.6.4zm165.8-31.7c-.3 1.2-.4 2-.6 2.8-.1.2-.3.5-.5.7-.1.2-.3.2-.5.4-2.1 1.8-3 4.1-3.1 6.7-.1 2.5.1 5 .6 7.4.5 2.6 1.1 5.3 1.6 7.9.4 2 1.1 4 1.9 5.9.5 1.1 1.1 2.2 2.4 2.8.3-.6.5-1.1.7-1.6.5-1.5 1.5-2.6 2.6-3.7s2.5-1.8 4.1-1.5c1.4.2 2.7.5 4 .8 1.9.5 3.8 1.3 5.8 1.6 1.8.3 3.6.7 5.5.8.9 0 1.8.2 2.7.3-.1 1.2-.9 2-1.4 2.9-.1.2-.6.3-.9.3-.5 0-1.1 0-1.6-.1-1.5-.3-2.9 0-4.4.5.1.4.2.9.4 1.2.7 1 1.8 1.4 3 1.5 2.7.2 5-.7 7-2.6.6-.6 1.2-1.1 1.9-1.8.3.4.5.7.7 1.1.6 1 1.4 1.7 2.4 2.3.6.3 1 .2 1.5-.2.6-.6 1.1-1.2 1.8-1.7 2-1.7 3.9-3.5 5.9-5.2.9-.7 1.9-1.3 2.9-2 .3-.2.6-.3 1-.3 1.6 0 3.2.2 4.6.9 1.8.8 2.2 2 1.6 3.9-.5 1.4-1.3 2.5-2.6 3.4-2.4 1.6-4.9 2.8-7.6 3.6-1.3.4-2.6.8-4 1.1-1.4.4-2.8.6-4.3.4-.9-.1-1.6.2-2.2.9-.3.4-.7.8-1.1 1.2-.5-.3-.3-.6-.2-.9.3-.6.5-1.1.9-1.8-.4-.4-.8-.8-1.2-1.3-.4-.5-.7-1-1-1.4-.8.1-1.1.7-1.5 1.1-1.6 1.7-3.5 2.6-5.8 3-1.3.2-2.5 0-3.6-.6-1.2-.6-1.9-1.6-1.7-3 .1-.7.3-1.3-.1-2.1-1.6.2-3 1-4.4 1.6-2.3 1-4.6 1.8-7.1 2.3-2.2.5-4.2-.1-5.9-1.7-.7-.7-1.2-1.5-1.6-2.4-.9-2.2-1.6-4.4-2-6.7-.5-2.4-1-4.9-1.5-7.3-.9-4.4-.9-8.8-.1-13.2.6-2.9 1.7-5.5 4-7.5.3-.3.4-.4 1-.7zm15.6 32.9c-2.7-.7-4.8-1.5-7-1.9-2.9-.6-5.2 1-6.1 4 1.5.8 2.8 1.1 4.3.9 2.5-.4 4.8-1 7.1-2.1.4-.2.8-.5 1.7-.9zm35.6-1c-1.6-1-1.8-1-3.8-1.4-1.1-.2-2 0-2.9.5-2.4 1.3-4.5 3.2-6.5 4.9-.1.1-.2.3-.3.5 2 .1 4.2-.3 8.2-1.8 1.7-.6 3.6-1.3 5.3-2.7zm-251.1-21.4c.4.7 1.1 1.2 1.7 1.7 1.8 1.4 3.3 3.1 4.6 5 .3.4.5.8.9 1.2 1.9 2.2 2.9 4.8 3.8 7.5.5 1.5.5 3 .3 4.5-.3 2.2-1.4 3.3-3.7 3.5-2 .2-4-.1-5.6-1.3-.2 0-.4 0-.5.1-2.2 2.2-4.9 3.3-7.8 4-2.3.6-4.7 1.1-7.1 1.4-2.3.3-4.7.3-7-.2-1.3-.3-2.7-.7-3.8-1.5-1.9-1.2-3-2.8-2.7-5.2.2-1.5.5-2.9 1-4.2.1-.2.3-.4.6-.8.3 1.1.1 1.8-.1 2.6-.4 1.9-.2 2.4 1.4 3.5 1.4.9 2.9 1.6 4.6 1.9 2.8.5 5.6.6 8.4 0 2.7-.6 5.4-1 8-2.1 1.1-.5 2.2-1.1 3.3-1.7 1-.6 1.6-1.4 1.8-2.6.1-.6.3-1.2.6-2 .6 1.2 0 2.1.3 3.2.3.2.8.5 1.3.7 1.5.5 3 .6 4.5.4 1.1-.1 1.4-.5 1.2-1.5-.3-1.5-.7-3-1.5-4.3-1.6-2.5-3.2-5-5.3-7.1-.5-.5-1-.9-1.8-.9-1-.1-2.1-.2-3.1-.4-1-.1-1.4-.5-1.5-1.4-.3-1.7-.3-3.5.2-5.1.4-1.5 1.6-2.6 2.8-3.5 1.6-1.2 3.3-2.3 4.9-3.4 1.3-.8 2.6-1.6 3.8-2.5 3-2.2 6.2-3.8 9.4-5.6.9-.5 1.7-1.1 2.6-1.6 1.6-1 3.2-1.9 4.8-2.8 2.4-1.3 4.8-2.6 7.3-3.9.5-.3 1-.4 1.5-.7 1 2 .6 3.2-1.1 4.1l-2.7 1.5c-1.1.6-2.1 1.3-3.2 1.8-2.8 1.3-5.5 2.9-8.1 4.6-1.1.7-2.2 1.3-3.4 2-2.6 1.4-5.1 3.1-7.5 4.7-2.2 1.5-4.3 3-6.4 4.5-.8.5-1.6 1-1.7 1.9zm114.6 24.7c-.9-.2-1.8 0-2.7.1-1.1.2-2.2 0-3.3-.3-1.4-.3-2-1.3-1.8-2.8.1-.6.3-1.2.5-1.8.7-2 1.9-3.7 3-5.3 2.5.7 3.5 1.6 6.4 5.8.4-.1.9-.1 1.3-.3 1.6-.7 3.1-1.4 4.7-2.1.7-.4 1.4-.8 2.4-.7.6.5 1.2 1.2 2 1.7 1.1.8 1.6.7 2.6-.1 2.2-1.8 4.3-3.7 6.5-5.5 1.1-.9 2.1-1.8 3.2-2.6.9-.7 1.8-.9 2.9-.7.9.2 1.8.3 2.6.6 1.6.5 2.3 1.6 2.2 3.3-.2 2-1.1 3.7-2.8 4.8-2.9 1.8-6.1 3.2-9.5 3.9-1.8.4-3.7.6-5.5.8-.7.1-1.3.3-1.8.8s-1 1.1-1.6 1.7l-1.1 1.1c-.2-1.8 1.3-2.5 1.6-4l-2.1-1.8c-.5-.4-1-.5-1.6-.2-.6.2-1.1.5-1.7.7-1 .5-2 1-3 1.4-1.1.4-1.5 1.1-1.8 2.1-.7 2.3-1.7 4.4-2.9 6.4-1.2 2.1-2.9 3.8-5 5.1-1.1.7-2.2 1-3.5 1.1-1.9.1-3.9-.1-5.7-.6-.4-.1-.9-.3-1.3-.5 0-.5.3-.5.6-.5h1c1.9.3 3.7-.2 5.4-1 3-1.4 5.8-3.2 7.8-6 .9-1.2 1.7-3 2-4.6zm30.3-9.2c-.5-.4-.8-.6-1.1-.8-2.2-.9-4.3-.9-6.2.6l-5.4 4.2c-.1.1-.1.3-.2.6 4.5-.6 8.9-1.7 12.9-4.6zm-33.9 3.7c-.5-.4-1-.5-1.4-.1-.3.3-.7.7-.5 1.2.2.5.6.7 1.3.4.2-.4.4-1 .6-1.5zm64.7-6.5c.9.7 1.1 1.6 1.2 2.4.2.9.2 1.9.1 2.9-.1.9-.3 1.8-.6 2.6s-.7 1.6-1.1 2.4c1.9.1 4-.3 7.8-1.9 2-.8 4-1.5 5.4-3.1.1-.8-.3-1.4-.6-2-.6-1-1.3-2-2.1-2.8-.6-.6-.8-1.2-.7-2.1.1-.7 0-1.4.4-2.1.3.2.6.3.7.5.9 1.2 1.8 2.3 2.5 3.5 1.1 1.8 1.3 3.8.9 5.8-.4 2.1-1.8 3.3-3.6 4.3-2.2 1.2-4.5 2.1-6.9 2.8-.5.2-1 .3-1.7.5.1.3.1.6.2.8.8 2 .1 3.8-.6 5.6-.2.5-.6.9-1 1.3-.7.7-1.5.9-2.4.7-1.6-.4-2.7-1.4-3.4-2.8-.4-.9-.7-1.8-1-2.7-.2-.4-.3-.9-.5-1.4-.7.3-1.3.6-2 .8-.6-.3 0-1-.6-1.5-.5-.1-1.2-.2-1.9-.3-1-.1-1.8-.6-2.5-1.3-2-1.9-3-4.3-3.5-6.9-1.2-5.7-2-11.4-2.4-17.2-.2-3.1.2-6.1 1.5-8.9.7-1.6 1.5-2.4 2.9-3.3.4.9.4 1.3.2 2.3-.1.5-.3 1-.8 1.4-2.2 1.7-2.9 4.1-2.7 6.8.5 5.7 1.3 11.4 2.9 16.9.6 2 1.5 3.8 3 5.4.5.6 1.2 1 2 1s1.5.1 2.3.1c1.7.1 2.7-.7 3.2-2.4 1.2-3 3.3-5.5 5.4-8.1zm-4.5 15c.5 2.1 1.9 3.4 3.6 3.6.8.1 1.4-.2 1.8-1-1.3-2-3.1-2.5-5.4-2.6zm.4-5.4c1.5-.5 2.5-1.3 3.4-2.3 1-1.2 1-1.6 0-3.2-1.6 1.3-3 3.5-3.4 5.5zm98.7-33.7c1 1.2 2 2.2 3 3.4-.2 1.6-.9 3-2.3 4.1-.1 2.4-.2 4.7-.3 7.1-.1 3.1-.5 6.2-1.2 9.2-.4 1.5-.5 3 0 4.5.4 1.5.4 3 .3 4.5 0 1.1-.6 1.8-1.6 2.2-.3.1-.6.3-1 .4-2.1.5-4.3 1-6.5 1.5-.2-.4-.4-.7-.4-1 0-1-.1-1.9.5-2.8 3.6-.7 2.9-.4 4.5-3.2.5-.8.9-1.7 1.3-2.6.4-.7.3-1.3 0-2-1.5-3.3-3.6-6.3-6-9.1-.5-.6-1.1-1.2-1.6-1.9-1.4-1.9-3.5-2.8-5.7-3.4-.7-.2-1.3-.3-2-.5-1-.2-1.5-.9-1.6-1.9-.1-1.9 0-3.7.9-5.5.5.2 1 .2 1.3.5.8.6 1.5 1.2 2.2 1.8 5.3 5 9.9 10.5 13.4 17 .1.2.3.3.5.6.2-.4.4-.7.5-1.1.4-2.5.9-5 1.2-7.5.3-2.7.3-5.4.5-8 0-.6.1-1.2-.3-1.8-.7-.9-.7-1.9-.2-2.9.1-.6.4-1.1.6-1.6zm-2.4 29.9c-.7.1-.9.6-1 1.2 0 .1.1.2.2.4.3-.1.7-.3 1-.4v-.7c0-.2-.1-.3-.2-.5z"/><path class="st0" d="M465.8 257.9c.5.9.3 1.7 0 2.4s-.9 1.2-1.7 1.4c-2.3.4-4.2 1.7-6.2 2.7-2.3 1.1-4.6 2.1-6.9 3.3-3.3 1.7-6.7 3.3-9.9 5.1-3.5 1.9-6.8 4.1-10.3 6.1-.6.4-1.3.7-2 1-.2.1-.5 0-.6-.1-.1-.2-.2-.5-.2-.7.2-.9.8-1.6 1.6-2.1 1.6-1.1 3.2-2.2 4.8-3.2 7.4-4.3 14.8-8.4 22.6-11.9 2.5-1.1 5-2.4 7.5-3.5.4-.2.9-.4 1.3-.5zm-49-.1c-.3 2-1.4 3.2-2.9 4.1-3.4 2.2-6.9 4.3-10.2 6.6-4.3 2.9-8.7 5.8-12.5 9.5-.1.1-.2.1-.5.3 0-.4 0-.7.1-1 .4-1.3 1.1-2.3 2.2-3.2 2-1.7 4-3.3 6.2-4.8 3.2-2.1 6.3-4.2 9.4-6.3 1.4-.9 2.9-1.8 4.4-2.7 1.2-.8 2.4-1.6 3.8-2.5zm-99.1 30.9c2.4 2.6 4.3 5.2 3.7 9-.3 2-.5 3.9-1.5 5.8-1.4 2.7-3.6 4.5-6.2 5.8-.5.3-1.2.4-1.8.4-2.8.1-5.5-.2-8.2-.7-.2 0-.3-.2-.6-.5.7 0 1.2 0 1.6.1 3.4.3 6.5-.6 9.4-2.5 1.5-1.1 3-2.3 4.2-3.7.8-.9 1.5-2 2-3.1s.4-2.2-.2-3.2c-.3-.5-.7-1-1-1.5-.4-.6-.8-1.1-1.2-1.7-1-1.3-1-2.3-.2-4.2zm51-30c.6.4 1.2.8 1.7 1.2 0 .8-.2 1.3-.8 1.7-.5-.1-1-.3-1.5-.4-1.1 1.5-2 3-3.2 4.3-1.2 1.4-2.6 2.6-4 3.9-1.3 1.1-2.5 2.5-4.3 3.1-.2-.7 0-1 .4-1.3 2.9-2.2 5.3-4.8 7.8-7.3.7-.7 1.3-1.6 1.9-2.4.2-.2.2-.5.3-.9-.8-.5-1.6-.9-2.3-1.4-1.2-.8-1.5-1.5-1-2.8.8-2 .7-2.1 2.7-2.8 2.1.9 2.7 2.1 2.3 5.1zm-3.9-2.5c1.4 1.3 1.6 1.4 2.8 1.5-.7-1.8-1.2-2.1-2.8-1.5zm-56 5h-.4c-1-.3-1.9-.2-2.8.2-.1.1-.3.1-.4.1-.2 0-.4-.1-.5-.2-.1-.1-.2-.4-.1-.6.6-1.1 1.6-1.8 2.8-2.4.3-.1.7-.1 1 0 1.2.4 2.1-.1 2.9-1 .6-.7 1.1-1.4 1.7-2.1.6-.7 1.3-1.2 2.1-1.6.9-.4 1.6-.2 2.1.7.6 1 .6 2.1 0 3.1-.7 1.1-1.6 1.9-2.7 2.5-1.2.6-4.3 1.3-5.7 1.3zm4.3-3.4c1 .3 1.6-.2 2.2-.7.1-.1.1-.4.1-.5-.1-.1-.4-.2-.5-.2-.8.2-1.3.7-1.8 1.4zm4.3 15.3c.1-.7 0-1.1.1-1.3.3-.4.8-.8 1.2-1.1 2.2-1.7 4.2-3.6 6-5.6.5-.5 1.1-1 1.2-1.9-.6-.4-1.2-.7-1.7-1.1-.3-.2-.5-.6-.6-1-.4-1.7.4-3.4 1.7-4.3 1-.7 2-.4 2.6.7.4.8.6 1.7.4 2.6-.1.5-.2.9-.2 1.4.4.4.8.8 1.2 1.1.5.4.4 1 .2 1.5-.2.4-.5.6-1 .4-.4-.1-.7-.3-1.2-.5-2.6 3.6-5.8 6.5-9.9 9.1zm9.5-12.4c.2-.9 0-1.5-.7-1.9-.4-.3-.9-.3-1.3.1-.1.1-.2.6-.1.7.5.6 1.1 1 2.1 1.1zm-111.7.4c-2-1.1-3.5-.8-4.9.5.1-1.5.6-3 1.3-3.7.9-.9 1.9-1.3 3.2-1.1.1 0 .3.1.4.1 1.2.5 2.4.5 3.4-.1.6.3.7.7.6 1.1-.2.7-.3 1.4-.7 1.9-1.9 2.9-4.3 4.9-7.8 5.5-.3.1-.7 0-.9 0-.2-.6.1-.9.4-1.1 1.1-.6 2.2-1.2 3.2-1.8.6-.3 1.1-.8 1.8-1.3zM335 271.6c-.2-1.1.4-1.5 1-2 2.1-1.5 4.3-2.9 6.5-4.4 1.9-1.3 3.7-2.6 5.5-3.9 1.1-.9 2.2-1.9 3.2-2.8-.1 1.3-.5 2.3-1.3 3.3-1.2 1.5-2.7 2.8-4.3 3.8-2.8 1.9-5.7 3.6-8.5 5.4-.6.3-1.2.7-2.1.6zm127.1 8.4c-.6-1.5.7-2.1 1.1-3.2-1.4-1-2.6-.3-3.8.7.3-2.1 1.3-3.7 2.9-4.3.4-.2.9-.2 1.4-.2.7.1 1.5.3 2.2.4.7.1 1.5.1 2.2.1.1.3.2.5.1.6-.4 1.8-1.2 3.4-2.9 4.3-.8.7-1.8 1.4-3.2 1.6zm-162-14.6c.1.1.1.2.1.2.2 3.7 1.2 7.3 2 10.9l1.5 6.9c.4 1.6.5 3.3.3 4.9-.2 1.4-.3 2.7-.5 4.1-.1.5-.3.9-.4 1.4-.5-.2-.3-.6-.3-.9 0-.3 0-.7.1-1 .4-2.1.2-4.3-.2-6.4-.5-2.3-1.1-4.6-1.6-6.8-.6-2.5-1.2-5-1.6-7.5-.3-1.8-.2-3.6.3-5.3 0-.2.2-.3.3-.5zm-55.9 0c.1.1.1.2.1.2.2 3.7 1.2 7.3 2 10.9l1.5 6.9c.4 1.6.5 3.3.3 4.9-.2 1.4-.3 2.7-.5 4.1-.1.5-.3.9-.4 1.4-.5-.2-.3-.6-.3-.9 0-.3 0-.7.1-1 .4-2.1.2-4.3-.2-6.4-.5-2.3-1.1-4.6-1.6-6.8-.6-2.5-1.2-5-1.6-7.5-.3-1.8-.2-3.6.3-5.3 0-.2.1-.3.3-.5zm-27 49.6c.1-.7.6-.8 1-1 2.3-1.2 4.5-2.3 6.8-3.5 2.3-1.1 4.6-2.8 6.2-4.6-.3 2.2-1.3 3.8-2.9 5.1-1.5 1.2-3 2.1-4.9 2.6-1.8.4-3.6 1-5.4 1.4-.1.1-.5 0-.8 0zm47.5-54.5c-.3 1.4-.6 2.6-1.4 3.5-1.1 1.2-2.1 2.5-3.5 3.5-1.6 1.1-3.1 2.3-4.7 3.3-.6.4-1.2.9-2.1.8-.2-.8.1-1.5.7-2 1.5-1.3 3.1-2.6 4.7-3.8 2-1.5 4.1-3 5.7-5 .1-.1.3-.1.6-.3zm221.4 3.9c-.4-1.1.5-1.8.8-2.6l-1.1-1.1c-.7-.6-.8-1.4-.5-2.2.4-1.4 1.2-2.4 2.7-2.8 1.2.9 1.2.9.5 2.7-.1 0-.3.1-.4 0-.4-.2-.9-.6-1.2 0-.2.4.3.7.6.9.9.7 1.9.7 2.9.2.5-.2 1-.4 1.5-.7.5 1.2.4 2.1-.5 2.7-.3.2-.7.4-1.1.5-1.3.2-2.3.9-3.2 1.8-.3.2-.6.4-1 .6zm-40.9 12c.3 1.8 1.2 2.3 2.6 2.4 1.4.1 2.4-.4 3.3-1.9-.1 1.9-.5 3.3-1.4 4.4-.6.8-1.6 1.1-2.6 1-.8 0-1.6-.3-2.3-.7-1-.5-1.2-1.4-.9-2.5.2-.7.5-1.4.7-2.1 0 0 .2-.1.6-.6zm38.6-27c.1 1.2-.3 2.3-1.2 3.1-.8.7-1.7 1.5-2.6 2.1-1.7 1.1-3.4 2-5.2 3-.2.1-.5 0-.7-.2-.1-.1-.1-.4-.1-.6.2-.8.8-1.5 1.5-1.9 2.8-1.6 5.4-3.5 8-5.5h.3zM208 276.8c.2.3.3.3.3.4.2 1.1.4 1.4 1.3 1.5.8.1 1.6 0 2.4-.1.8-.2 1.4-.7 1.9-1.5.4.4.1.7 0 .9-.4.8-.7 1.6-1.2 2.4-1 1.5-3.3 2.1-5 1.5-.8-.3-1.3-1-1.1-1.7.2-1.2.7-2.3 1.4-3.4zM394.8 254c2.5 1.9 3.9 4.1 4.3 6.9l.3 2.7c0 .7 0 1.4-.2 2.1-.1-.3-.2-.7-.3-1-.3-2.6-1.5-4.7-3.3-6.4-1.3-1.3-1.2-2.6-.8-4.3zm44 12.7c-.1-.7-.3-1.5-.4-2.2-.2-1.9-.9-3.5-2.2-4.8-1.4-1.4-1.4-2.9-.8-4.5 1.6 1 2.8 2.7 3.3 4.6.6 2.3.6 4.6.1 6.9zm-20.5 37.5c-1.5-.8-3.1-1.3-4.2-2.4.1-1.2.5-2.2 1.2-3.2 1.3.6 2.4 1.3 3.6 1.9.5.3.5.7.4 1.3-.2.8-.5 1.6-1 2.4zM211 310.5c-1.4-1-2.6-1.8-3.7-2.5.2-1.8.2-1.9 1.2-3.2.7.2 1.3.7 1.9 1.1.6.4 1.1.8 1.8 1.2-.5 1.1-.8 2.1-1.2 3.4zm283.8-19.8c.1.2.2.4.2.5v.7c-.3.1-.7.3-1 .4-.1-.2-.2-.3-.2-.4.1-.6.3-1.1 1-1.2z"/><path class="st0" d="M364.8 256.2c1.6-.6 2.1-.4 2.8 1.5-1.2-.1-1.4-.2-2.8-1.5zm-51.7 1.6c.5-.7 1-1.2 1.8-1.4.2 0 .4.1.5.2.1.1.1.4-.1.5-.6.5-1.2 1.1-2.2.7zm13.8 2.9c-1-.2-1.7-.5-2.1-1.1-.1-.1 0-.6.1-.7.4-.4.9-.4 1.3-.1.7.5 1 1 .7 1.9zM32.6 295.4c.6 1.3 1.6 1.9 2.8 2.3.9.3 1.9.5 2.8.7.7.2 1.5.4 2.2.7.9.4 1.3 1.2 1 2.2-.3 1-.6 2-1 2.9-.3.7-.9 1.2-1.4 1.7-.8.7-1.6 1.3-2.6 1.7-3.3 1.7-6.6 3.3-10.3 4.3-2.2.5-4.4.6-6.6.2-4.7-.8-6.7-4.1-6.4-8.7.2-3.1 1.6-5.8 3.2-8.4.2-.3.5-.5.7-.7.5.3.2.5.1.7-.7 1.5-1.4 3-2.2 4.5-.9 1.8-.6 3.6.1 5.4.6 1.4 3 3.1 4.7 3.5 2.7.5 5.3.5 8-.3 3.7-1.1 7.3-2.6 10.6-4.6.3-.2.5-.4.8-.7-.7-.8-1.5-.8-2.3-1-1-.3-2-.5-3-.8-1-.3-1.7-.9-2.3-1.7-.6-.8-.9-1.7-.5-2.7 1.1-3.5 3.2-6.2 6.3-8.1.7-.4 1.5-.6 2.3-.8.9-.2 1.6.3 1.9 1.2l.3 1.2c.6 2.7 2.4 4.3 4.7 5.4 1.2.6 2.5.9 3.8 1 2.7.4 5.5.5 8.2 0 2.6-.5 5.1-1 7.7-1.7 1.9-.6 3.6-1.3 5.4-2.1 1.2-.5 2.1-1.3 2.5-2.6.1-.4.4-.7.7-1.2.5.9-.1 1.6.1 2.3 1.2 1.4 2.9 1.9 4.7 2.1.9.1 1.8-.2 2.3-1.1.4-.6.7-1.2 1.1-1.7.3-.5.5-.9.8-1.4.4 0 .6.1 1 .1.1-.1.3-.2.4-.4.5-1 1.1-1.9 2-2.6.3-.2.7-.5 1-.7 1.2-.6 1.7-.5 2.2.8.6 1.5 1.1 3.1 1.6 4.7.3.8.2 1.5-.3 2.2 0 .1-.1.1-.1.2-1.1 2.4-1.3 2.4-3.8 1.5-1.7-.6-3.3-1.5-4.9-2.2-.7.2-.8.8-1.1 1.4-1.5 2.7-3.3 2.8-6.4 1.9-.4-.1-.8-.5-1.2-.7-.3-.2-.7-.5-1.1-.8-.4.2-.7.4-1 .6-1.7 1.3-3.6 2-5.5 2.7-2.7.9-5.4 1.8-8.1 2.3-3.6.7-7.3.7-10.9-.1-2.8-.6-5.1-2.1-6.6-4.6-.6-.9-.9-1.9-1.1-2.9-.2-1.2-.7-1.5-1.9-1.3-.3.1-.7.1-1 .3-1.7 1-3.3 2.1-4.4 3.9zm56.3-3.9c.1-.4.2-.4.2-.5-.1-.3-.2-.7-.3-1-.7-1.8-1.1-1.9-2.7-1-.2.1-.3.3-.6.6 1.1.8 2.2 1.3 3.4 1.9zm97.7-3.9c0 .6.1 1.2.1 1.9 1.3.6 2.5 1 4 .6-.4-1.7-.1-3.2.8-4.6.7 1 1 1.9.8 2.9-.3 1.3-.6 2.7-1.1 4-.4 1-1.3 1.5-2.3 1.4-.8 0-1.6-.2-2.5-.4-.4-.1-.8-.1-1.3-.2-.2.5-.4.9-.6 1.4-.7 2-2.2 3.1-4.2 3.6-1.4.3-2.9.4-4.3.4-.8 0-1.6.1-2.4.5-1.5.9-3.2 1.2-5 .8-1-.2-1.8-.6-2.6-1.2-.5-.4-1-.9-1.5-1.3-.9-.1-1.4.5-2.1.8-1 .5-1.9 1.1-2.9 1.5-3 1.3-6.2 1.4-9.3.8-2.1-.3-3.7-1.5-5.4-3.7-.3.3-.7.6-1 .9-.6.6-1.2 1.3-1.9 1.9-1.8 1.4-4.4 1.3-6 .1-1.2-.9-2.2-1.8-2.7-3.3-.3-.8-.7-1.7-1-2.5-.1-.3-.3-.6-.5-.8-.8.4-1 1.1-1.1 1.8-.6 2.4-2.2 3.6-4.3 4.3-1.1.4-2.3.6-3.4.8-.9.2-1.8-.1-2.6-.6-1-.5-1.6-1.3-1.5-2.5 0-1.1 0-2.2.7-3.4.2 1.1.6 2 1.6 2.5s2 .5 3 .4c.2 0 .4 0 .6-.1 1.2-.4 2.4-.8 3.5-1.3 2.1-.9 2.8-2.8 2.1-4.7-.9-2.5-1.6-5.1-2.5-7.6-.5-1.4-.6-2.8-.1-4.4.3.4.6.7.7 1 2 4.5 4 8.9 5.6 13.6.5 1.4 1.4 2.5 2.7 3.3 1.9 1.2 3.9 1.2 5.8 0 .7-.4 1.3-1.1 1.8-1.7.5-.5.9-1.2 1.6-1.5.1 0 .1.1.2.1.7 2.1 2.4 2.9 4.3 3.5 2.2.7 4.5.6 6.8.2 1.3-.3 2.7-.7 4-1.2.5-.2.9-.5 1.4-.8-1-1.5-1.4-1.7-4.8-1.8 0-1.3.6-2.4 1.2-3.4.2-.3.5-.4.8-.6 1.6-.6 3.3-.6 4.9-.3 1.4.3 2.4 1.3 3.3 2.4.4.5.4 1.2.2 1.8-.2.7-.5 1.3-.8 2 .3.3.6.6.9.8 2.5 1.1 4.8.7 7.1-.7.7-.4 1-1.1 1.2-1.9.1-.4.3-.9 1.1-1-.1.8-.2 1.6-.3 2.6.4.1.7.2 1.1.2 1-.1 2.1-.2 3.1-.4.6-.1 1.2-.4 1.7-.7.8-.5 1.3-1.2 1.5-2.1.2-1 .5-2 .8-3 0-.5.3-1 1-1.1zm-27.3-7c0-1.3.4-2.4 1.5-3.2.6-.5 1.2-.9 1.9-1.3 3.2-1.8 6.3-3.7 9.6-5.3 3.4-1.7 6.7-3.5 10.1-5.3 1.1-.6 2.2-1.4 3.3-2.1-.2 1.5-.6 2.5-1.7 3.3-1.3.9-2.6 1.8-4 2.5-4.2 2.3-8.5 4.5-12.7 6.9-2.5 1.4-4.9 3-7.4 4.6-.2 0-.4-.1-.6-.1zM45 276.3c-.2-1.1.2-1.5.7-1.9 1.2-.9 2.3-1.8 3.5-2.5 6.1-3.3 12.2-6.6 18.4-9.9 1.3-.7 2.5-1.4 3.8-2.1.3-.2.6-.3 1-.4-.5 2.2-.8 2.7-2.3 3.5-4 2.2-8 4.4-12 6.5-2.7 1.4-5.4 2.8-8.1 4.1l-3.3 1.8c-.4.3-1 .5-1.7.9zm86.7-18.2c2.4 1.6 1.7 3.8 1.6 5.9.6.4 1.1.8 1.6 1.2.2.8 0 1.3-.7 1.9-.6-.3-1.2-.5-1.9-.8-1.1 1.1-2.1 2.3-3.3 3.4-1.2 1.1-2.4 2.1-3.6 3.1l-3.6 3c-.5-.2-.4-.6-.3-.9.3-.4.6-.7 1-1.1 1.8-1.7 3.7-3.3 5.5-5 1.1-1 2.1-1.9 3.1-3.2-.3-.3-.6-.6-.9-.8-.2-.2-.5-.3-.7-.5-1.8-1.6-1.6-4.3.6-5.5.4-.3 1-.5 1.6-.7zm.5 5.1c.4-.8 0-1.4-.2-2-.3-.7-.9-.9-1.7-.7-.6.2-.9.8-.4 1.2.6.7 1.4 1.3 2.3 1.5zM87 268.8c-1.3 2-3 3.7-4.8 5.3-1.5 1.2-3.1 2.3-4.6 3.5-.3.2-.6.4-.9.5-.1 0-.3-.1-.5-.3-.1-.1 0-.3 0-.4.2-.3.5-.5.7-.7 2.9-1.9 5.4-4.3 7.8-6.7.6-.6 1.1-1.2 1.5-2.1-.6-.5-1.2-.9-1.8-1.4-.9-.7-1.2-1.5-.8-2.7.4-1.2.9-2.3 2.2-2.8.7-.3 1.2-.2 1.6.4.7 1 .9 2.1.8 3.3-.1.5-.1 1.1-.2 1.6.6.4 1.1.7 1.6 1.1-.2 1.8-.4 1.9-2.6 1.4zm.1-3.3c-.3-.9-.4-1.4-.6-1.8-.2-.3-.6-.6-1-.6-.4-.1-.8.1-.9.7.6.6 1.2 1.2 2.5 1.7zm59.3 2.3c.5-1 .7-1.6 1-2.1 1.1-2.1 3.3-2.3 5-1.6 1.6.7 1.6.6 3.1.5-.6 1.9-1.4 3.7-3.2 4.8-.4.2-.7.4-1 .7-1.6 1.4-3.6 1.7-5.6 1.6-.2 0-.4-.1-.5-.2-.2-.6.2-.9.6-1 1.8-.4 3.3-1.4 4.8-2.2.2-.1.4-.3.7-.6-1.6-1.3-3.1-.9-4.9.1zm2.1 39.5c-.1.3-.1.6-.3.8-.3.7-.7 1.3-1.1 2.1-.4-.1-.8-.2-1.2-.4-.7-.3-1.2-.9-2.1-.9-.3.3-.6.6-1 .9-.4.4-.8.8-1.2 1.1-.5.4-1.1.5-1.7.1-.9-.6-1.8-1.2-2.5-2.2.4-1 .7-2 1.5-2.9.9.6 1.6 1.2 2.4 1.6 1 .6 1.6.4 2.3-.5.3-.3.5-.7.7-1 .2-.3.4-.5.6-.8 1.6.5 2.6 1.3 3.6 2.1z"/><path class="st0" d="M64.3 280.2c.5.2.7.2.8.3.9.6 1.9 1.1 2.9 1.7-.1 1.3-1 2.1-1.7 3-1.3-.1-2-1.2-3.3-1.5-.3.5-.6 1-1 1.5-1.1 1.6-1.8 1.7-3.4.7-.5-.3-.9-.6-1.3-1-.2-.1-.3-.3-.4-.5.4-1 .7-2 1.6-2.9.5.3.9.6 1.4.8.5.3.9.6 1.4.8.7.3 1.4.1 1.8-.6.4-.7.7-1.4 1.2-2.3zm-24.8-14.9c.3 1.7-.3 3.1-1 4.5-.3.7-1.1 1-1.9.9-.3-.1-.6-.2-1-.3-.3.3-.5.6-.8.9-.7.7-1.6.8-2.5.7-.8-.1-1.2-.7-1.1-1.5.2-1.2.6-2.2 1.1-3.4.5 1.1.7 1.4 1.2 1.4.9.1 1.8-.1 2.3-1 .2-.4.4-.8.6-1.3.6-.1.4.4.6.6.7.6 1.5.4 1.8-.3.4-.4.5-.8.7-1.2zm105.1 12.5c-.3.4-.7.8-1 1.2-.5.7-.4 1.3.4 1.7.6.3 1.2.6 1.9.8.8.2 1.6.1 2.2-.7.3-.4.7-.7 1.3-1.2-.1.5 0 .7-.1.8-.8 1-1.7 2-2.6 2.9-1.3 1.2-3.8 1.1-5.3-.1-.3-.2-.5-.7-.5-1 0-.5.1-1 .4-1.4.7-1.3 1.7-2.4 3.3-3zm-82.3 1.1c-1.4-.9-2.7-1.7-4-2.6.2-1.5.3-1.7 1.4-3.1 1.4.4 2.5 1.2 3.6 2.2.4.4.4.8.2 1.3-.1.3-.3.6-.4.9-.3.4-.5.8-.8 1.3zm-31.1-1.2c1.2.6 2.3 1.5 3.4 2.3.1 1.1-.6 1.8-1.1 2.6-.2.4-.8.4-1.1.2-.9-.6-1.8-1.2-2.8-1.9.3-1.3.6-2.4 1.6-3.2zm-9.4 14c3.3 2.7 4.5 7.9 2.6 11.6 0-.5-.1-.8-.1-1.1.6-3.1-.4-5.7-2.4-7.9-.9-.9-.9-1.1-.1-2.6zm110.4-28.5c-1-.2-1.7-.8-2.3-1.5-.4-.4-.2-1.1.4-1.2.8-.2 1.4 0 1.7.7.3.6.7 1.2.2 2zm-45.1 2.3c-1.3-.5-1.9-1.1-2.4-1.7.1-.6.5-.8.9-.7.4.1.8.3 1 .6.2.4.2.9.5 1.8zm23.4 27.8c-.4-1-.6-2-.6-3.1-.2-.5-.3-.9-.4-1.4-.3-.3-.6-.7-.8-1-1-1.3-2.2-2.2-3.6-3-.5-.3-.9-.4-1.5-.5-.5-.1-.9.1-1.1.4l-.6.9c-.3.6-.5 1.2-.8 1.7-.3.6-.4 1.2-.4 1.9v3.3c0 .2 0 .3.1.5.3.6.6 1.1 1.2 1.4.7.4 1.4.6 2.2.6 1.6.1 3.1-.3 4.5-1 .2-.1.3-.2.6-.2.4.5.5 1 .2 1.6-.1.2-.2.4-.3.7-.5.9-.9 1.8-1.6 2.7-.4.5-.8 1-1.1 1.5-.6.8-1.2 1.5-2 2.1-.6.5-1.2 1-1.8 1.4-2.3 1.5-4.8 2.1-7.5 2.1h-.1c-.9-.1-1.9-.1-2.8-.3h-.6c-.1 0-.2.1-.2.2s.1.3.1.3c.3.2.7.3 1 .4.5.2.9.5 1.4.6 1.1.4 2.2.7 3.3 1 1.4.4 2.9.6 4.4.5 1-.1 1.9-.4 2.7-1.1l.6-.6c.5-.4.9-.9 1.3-1.4.7-.8 1.4-1.7 2-2.7.5-.7.9-1.5 1.2-2.3.5-1.1.6-2.2.8-3.4v-.5c-.1-1.1.1-2.2.2-3.3zm-4.2-2.9c-.5.2-1.7.4-2.2.4-.7 0-1.4-.2-2.1-.5-.2-.1-.3-.4-.2-.5.1-.2.2-.4.3-.7.4-.7.6-.8 1.5-.6l.9.3c.7.3 1.3.7 1.9 1.3.1 0 0 .2-.1.3z"/></svg>